Garage_Gothic-Bold.ufo
<glyph name="exclam" format="1">
  <advance width="177"/>
  <unicode hex="0021"/>
  <outline>
    <contour>
      <point x="142" y="207" type="curve" smooth="yes"/>
      <point x="142" y="191"/>
      <point x="139" y="189"/>
      <point x="86" y="189" type="curve" smooth="yes"/>
      <point x="37" y="189"/>
      <point x="35" y="191"/>
      <point x="35" y="205" type="curve" smooth="yes"/>
      <point x="35" y="418"/>
      <point x="35" y="474"/>
      <point x="35" y="682" type="curve" smooth="yes"/>
      <point x="35" y="698"/>
      <point x="38" y="700"/>
      <point x="86" y="700" type="curve" smooth="yes"/>
      <point x="140" y="700"/>
      <point x="142" y="699"/>
      <point x="142" y="681" type="curve" smooth="yes"/>
      <point x="142" y="553"/>
      <point x="142" y="423"/>
    </contour>
    <contour>
      <point x="147" y="57" type="curve" smooth="yes"/>
      <point x="145" y="24"/>
      <point x="122" y="-1"/>
      <point x="90" y="-3" type="curve" smooth="yes"/>
      <point x="41" y="-6"/>
      <point x="33" y="23"/>
      <point x="30" y="53" type="curve" smooth="yes"/>
      <point x="26" y="91"/>
      <point x="54" y="129"/>
      <point x="90" y="125" type="curve" smooth="yes"/>
      <point x="154" y="117"/>
      <point x="149" y="92"/>
    </contour>
  </outline>
</glyph>
<glyph name="quotedbl" format="1">
  <advance width="240"/>
  <unicode hex="0022"/>
  <outline>
    <contour>
      <point x="216" y="683" type="curve" smooth="yes"/>
      <point x="216" y="614"/>
      <point x="215" y="615"/>
      <point x="215" y="559" type="curve" smooth="yes"/>
      <point x="215" y="554"/>
      <point x="211" y="533"/>
      <point x="196" y="536" type="curve" smooth="yes"/>
      <point x="186" y="538"/>
      <point x="165" y="537"/>
      <point x="153" y="536" type="curve" smooth="yes"/>
      <point x="141" y="535"/>
      <point x="138" y="545"/>
      <point x="138" y="567" type="curve" smooth="yes"/>
      <point x="138" y="601"/>
      <point x="139" y="620"/>
      <point x="138" y="653" type="curve" smooth="yes"/>
      <point x="137" y="680"/>
      <point x="143" y="699"/>
      <point x="154" y="699" type="curve" smooth="yes"/>
      <point x="165" y="699"/>
      <point x="189" y="699"/>
      <point x="200" y="702" type="curve" smooth="yes"/>
      <point x="208" y="704"/>
      <point x="216" y="703"/>
    </contour>
    <contour>
      <point x="103" y="683" type="curve" smooth="yes"/>
      <point x="103" y="614"/>
      <point x="102" y="615"/>
      <point x="102" y="559" type="curve" smooth="yes"/>
      <point x="102" y="554"/>
      <point x="98" y="533"/>
      <point x="83" y="536" type="curve" smooth="yes"/>
      <point x="73" y="538"/>
      <point x="52" y="537"/>
      <point x="40" y="536" type="curve" smooth="yes"/>
      <point x="28" y="535"/>
      <point x="25" y="545"/>
      <point x="25" y="567" type="curve" smooth="yes"/>
      <point x="25" y="601"/>
      <point x="26" y="620"/>
      <point x="25" y="653" type="curve" smooth="yes"/>
      <point x="24" y="680"/>
      <point x="30" y="697"/>
      <point x="41" y="699" type="curve" smooth="yes"/>
      <point x="52" y="701"/>
      <point x="75" y="702"/>
      <point x="87" y="702" type="curve" smooth="yes"/>
      <point x="95" y="702"/>
      <point x="103" y="703"/>
    </contour>
  </outline>
</glyph>
<glyph name="numbersign" format="1">
  <advance width="482"/>
  <unicode hex="0023"/>
  <outline>
    <contour>
      <point x="468" y="566" type="curve"/>
      <point x="439" y="561"/>
      <point x="400" y="565"/>
      <point x="392" y="556" type="curve"/>
      <point x="386" y="551"/>
      <point x="361" y="408"/>
      <point x="365" y="398" type="curve"/>
      <point x="366" y="393"/>
      <point x="405" y="397"/>
      <point x="440" y="397" type="curve" smooth="yes"/>
      <point x="450" y="397"/>
      <point x="458" y="350"/>
      <point x="448" y="349" type="curve"/>
      <point x="419" y="343"/>
      <point x="364" y="343"/>
      <point x="357" y="339" type="curve" smooth="yes"/>
      <point x="348" y="333"/>
      <point x="341" y="258"/>
      <point x="328" y="225" type="curve" smooth="yes"/>
      <point x="324" y="216"/>
      <point x="267" y="217"/>
      <point x="264" y="228" type="curve"/>
      <point x="263" y="245"/>
      <point x="288" y="329"/>
      <point x="284" y="335" type="curve"/>
      <point x="280" y="343"/>
      <point x="155" y="344"/>
      <point x="148" y="335" type="curve"/>
      <point x="141" y="329"/>
      <point x="138" y="267"/>
      <point x="124" y="235" type="curve" smooth="yes"/>
      <point x="120" y="225"/>
      <point x="61" y="223"/>
      <point x="61" y="235" type="curve"/>
      <point x="58" y="265"/>
      <point x="80" y="329"/>
      <point x="76" y="335" type="curve" smooth="yes"/>
      <point x="68" y="346"/>
      <point x="51" y="335"/>
      <point x="17" y="343" type="curve"/>
      <point x="5" y="344"/>
      <point x="7" y="394"/>
      <point x="19" y="397" type="curve" smooth="yes"/>
      <point x="48" y="405"/>
      <point x="68" y="389"/>
      <point x="82" y="401" type="curve"/>
      <point x="91" y="407"/>
      <point x="120" y="547"/>
      <point x="115" y="555" type="curve"/>
      <point x="106" y="565"/>
      <point x="70" y="555"/>
      <point x="37" y="562" type="curve" smooth="yes"/>
      <point x="24" y="565"/>
      <point x="27" y="610"/>
      <point x="38" y="615" type="curve"/>
      <point x="68" y="623"/>
      <point x="107" y="609"/>
      <point x="121" y="619" type="curve" smooth="yes"/>
      <point x="131" y="627"/>
      <point x="136" y="666"/>
      <point x="142" y="701" type="curve"/>
      <point x="145" y="711"/>
      <point x="207" y="711"/>
      <point x="207" y="699" type="curve"/>
      <point x="204" y="672"/>
      <point x="190" y="624"/>
      <point x="197" y="619" type="curve"/>
      <point x="204" y="610"/>
      <point x="322" y="613"/>
      <point x="329" y="619" type="curve"/>
      <point x="337" y="624"/>
      <point x="338" y="666"/>
      <point x="345" y="701" type="curve" smooth="yes"/>
      <point x="347" y="711"/>
      <point x="406" y="711"/>
      <point x="406" y="699" type="curve"/>
      <point x="409" y="672"/>
      <point x="394" y="620"/>
      <point x="399" y="617" type="curve"/>
      <point x="406" y="610"/>
      <point x="434" y="614"/>
      <point x="460" y="615" type="curve" smooth="yes"/>
      <point x="469" y="616"/>
      <point x="478" y="569"/>
    </contour>
    <contour>
      <point x="321" y="556" type="curve"/>
      <point x="318" y="565"/>
      <point x="190" y="565"/>
      <point x="183" y="556" type="curve"/>
      <point x="176" y="551"/>
      <point x="150" y="404"/>
      <point x="156" y="397" type="curve"/>
      <point x="160" y="389"/>
      <point x="284" y="389"/>
      <point x="291" y="397" type="curve"/>
      <point x="298" y="408"/>
      <point x="322" y="549"/>
    </contour>
  </outline>
</glyph>
<glyph name="dollar" format="1">
  <advance width="340"/>
  <unicode hex="0024"/>
  <outline>
    <contour>
      <point x="316" y="140" type="curve" smooth="yes"/>
      <point x="316" y="75"/>
      <point x="283" y="30"/>
      <point x="229" y="9" type="curve"/>
      <point x="225" y="8"/>
      <point x="224" y="0"/>
      <point x="224" y="-4" type="curve" smooth="yes"/>
      <point x="224" y="-26"/>
      <point x="224" y="-37"/>
      <point x="224" y="-54" type="curve" smooth="yes"/>
      <point x="224" y="-65"/>
      <point x="192" y="-67"/>
      <point x="167" y="-67" type="curve" smooth="yes"/>
      <point x="144" y="-67"/>
      <point x="117" y="-64"/>
      <point x="117" y="-54" type="curve" smooth="yes"/>
      <point x="117" y="-40"/>
      <point x="117" y="-27"/>
      <point x="117" y="-6" type="curve" smooth="yes"/>
      <point x="117" y="-2"/>
      <point x="118" y="8"/>
      <point x="111" y="10" type="curve" smooth="yes"/>
      <point x="62" y="24"/>
      <point x="25" y="73"/>
      <point x="25" y="140" type="curve" smooth="yes"/>
      <point x="25" y="151"/>
      <point x="25" y="180"/>
      <point x="25" y="193" type="curve" smooth="yes"/>
      <point x="25" y="205"/>
      <point x="34" y="206"/>
      <point x="76" y="206" type="curve" smooth="yes"/>
      <point x="117" y="206"/>
      <point x="134" y="206"/>
      <point x="134" y="195" type="curve" smooth="yes"/>
      <point x="134" y="182"/>
      <point x="134" y="166"/>
      <point x="134" y="156" type="curve" smooth="yes"/>
      <point x="134" y="119"/>
      <point x="141" y="97"/>
      <point x="171" y="97" type="curve" smooth="yes"/>
      <point x="203" y="97"/>
      <point x="209" y="125"/>
      <point x="209" y="149" type="curve" smooth="yes"/>
      <point x="209" y="168"/>
      <point x="209" y="184"/>
      <point x="207" y="198" type="curve" smooth="yes"/>
      <point x="200" y="258"/>
      <point x="151" y="301"/>
      <point x="108" y="352" type="curve" smooth="yes"/>
      <point x="62" y="407"/>
      <point x="30" y="453"/>
      <point x="28" y="514" type="curve" smooth="yes"/>
      <point x="27" y="528"/>
      <point x="27" y="545"/>
      <point x="27" y="564" type="curve" smooth="yes"/>
      <point x="27" y="618"/>
      <point x="56" y="669"/>
      <point x="111" y="690" type="curve" smooth="yes"/>
      <point x="116" y="692"/>
      <point x="117" y="698"/>
      <point x="117" y="705" type="curve" smooth="yes"/>
      <point x="117" y="726"/>
      <point x="117" y="746"/>
      <point x="117" y="760" type="curve" smooth="yes"/>
      <point x="117" y="771"/>
      <point x="144" y="771"/>
      <point x="167" y="771" type="curve" smooth="yes"/>
      <point x="191" y="771"/>
      <point x="223" y="770"/>
      <point x="223" y="763" type="curve" smooth="yes"/>
      <point x="223" y="747"/>
      <point x="223" y="717"/>
      <point x="223" y="702" type="curve" smooth="yes"/>
      <point x="223" y="697"/>
      <point x="223" y="691"/>
      <point x="230" y="687" type="curve"/>
      <point x="282" y="665"/>
      <point x="309" y="616"/>
      <point x="309" y="564" type="curve" smooth="yes"/>
      <point x="309" y="549"/>
      <point x="309" y="533"/>
      <point x="309" y="517" type="curve" smooth="yes"/>
      <point x="309" y="509"/>
      <point x="294" y="509"/>
      <point x="261" y="509" type="curve" smooth="yes"/>
      <point x="223" y="509"/>
      <point x="203" y="510"/>
      <point x="203" y="518" type="curve" smooth="yes"/>
      <point x="203" y="530"/>
      <point x="203" y="553"/>
      <point x="203" y="562" type="curve" smooth="yes"/>
      <point x="203" y="590"/>
      <point x="185" y="607"/>
      <point x="168" y="607" type="curve" smooth="yes"/>
      <point x="147" y="607"/>
      <point x="132" y="587"/>
      <point x="132" y="563" type="curve" smooth="yes"/>
      <point x="132" y="546"/>
      <point x="132" y="532"/>
      <point x="132" y="520" type="curve" smooth="yes"/>
      <point x="134" y="480"/>
      <point x="159" y="450"/>
      <point x="209" y="396" type="curve" smooth="yes"/>
      <point x="256" y="346"/>
      <point x="307" y="287"/>
      <point x="314" y="200" type="curve" smooth="yes"/>
      <point x="316" y="182"/>
      <point x="316" y="162"/>
    </contour>
  </outline>
</glyph>
<glyph name="ampersand" format="1">
  <advance width="416"/>
  <unicode hex="0026"/>
  <outline>
    <contour>
      <point x="391" y="3" type="curve" smooth="yes"/>
      <point x="387" y="-1"/>
      <point x="331" y="0"/>
      <point x="322" y="0" type="curve" smooth="yes"/>
      <point x="313" y="0"/>
      <point x="302" y="-3"/>
      <point x="292" y="2" type="curve" smooth="yes"/>
      <point x="286" y="5"/>
      <point x="284" y="18"/>
      <point x="281" y="23" type="curve"/>
      <point x="276" y="36"/>
      <point x="274" y="42"/>
      <point x="268" y="40" type="curve"/>
      <point x="249" y="27"/>
      <point x="232" y="0"/>
      <point x="167" y="0" type="curve" smooth="yes"/>
      <point x="119" y="0"/>
      <point x="33" y="32"/>
      <point x="33" y="140" type="curve" smooth="yes"/>
      <point x="33" y="273"/>
      <point x="79" y="330"/>
      <point x="95" y="352" type="curve"/>
      <point x="97" y="356"/>
      <point x="98" y="360"/>
      <point x="96" y="366" type="curve"/>
      <point x="75" y="406"/>
      <point x="76" y="416"/>
      <point x="65" y="440" type="curve" smooth="yes"/>
      <point x="48" y="479"/>
      <point x="43" y="530"/>
      <point x="43" y="562" type="curve" smooth="yes"/>
      <point x="43" y="662"/>
      <point x="119" y="700"/>
      <point x="177" y="700" type="curve" smooth="yes"/>
      <point x="224" y="700"/>
      <point x="307" y="662"/>
      <point x="307" y="562" type="curve" smooth="yes"/>
      <point x="307" y="490"/>
      <point x="279" y="449"/>
      <point x="266" y="427" type="curve" smooth="yes"/>
      <point x="248" y="396"/>
      <point x="237" y="384"/>
      <point x="217" y="357" type="curve"/>
      <point x="215" y="352"/>
      <point x="213" y="348"/>
      <point x="215" y="343" type="curve" smooth="yes"/>
      <point x="225" y="322"/>
      <point x="230" y="313"/>
      <point x="241" y="287" type="curve" smooth="yes"/>
      <point x="249" y="269"/>
      <point x="258" y="252"/>
      <point x="267" y="236" type="curve" smooth="yes"/>
      <point x="271" y="230"/>
      <point x="270" y="232"/>
      <point x="273" y="234" type="curve"/>
      <point x="277" y="240"/>
      <point x="277" y="258"/>
      <point x="277" y="272" type="curve" smooth="yes"/>
      <point x="277" y="295"/>
      <point x="276" y="298"/>
      <point x="276" y="310" type="curve" smooth="yes"/>
      <point x="276" y="316"/>
      <point x="281" y="318"/>
      <point x="317" y="318" type="curve" smooth="yes"/>
      <point x="361" y="318"/>
      <point x="368" y="316"/>
      <point x="368" y="312" type="curve" smooth="yes"/>
      <point x="368" y="301"/>
      <point x="368" y="298"/>
      <point x="368" y="284" type="curve" smooth="yes"/>
      <point x="368" y="256"/>
      <point x="367" y="226"/>
      <point x="360" y="189" type="curve" smooth="yes"/>
      <point x="355" y="162"/>
      <point x="336" y="129"/>
      <point x="336" y="122" type="curve" smooth="yes"/>
      <point x="336" y="116"/>
      <point x="356" y="80"/>
      <point x="365" y="62" type="curve" smooth="yes"/>
      <point x="375" y="41"/>
      <point x="394" y="6"/>
    </contour>
    <contour>
      <point x="204" y="568" type="curve" smooth="yes"/>
      <point x="204" y="592"/>
      <point x="191" y="612"/>
      <point x="170" y="612" type="curve" smooth="yes"/>
      <point x="153" y="612"/>
      <point x="135" y="595"/>
      <point x="134" y="567" type="curve" smooth="yes"/>
      <point x="132" y="526"/>
      <point x="138" y="497"/>
      <point x="152" y="454" type="curve" smooth="yes"/>
      <point x="154" y="447"/>
      <point x="160" y="437"/>
      <point x="166" y="437" type="curve" smooth="yes"/>
      <point x="173" y="437"/>
      <point x="179" y="446"/>
      <point x="182" y="451" type="curve" smooth="yes"/>
      <point x="192" y="469"/>
      <point x="200" y="488"/>
      <point x="201" y="509" type="curve"/>
      <point x="203" y="521"/>
      <point x="204" y="553"/>
    </contour>
    <contour>
      <point x="218" y="135" type="curve"/>
      <point x="206" y="165"/>
      <point x="196" y="180"/>
      <point x="183" y="208" type="curve" smooth="yes"/>
      <point x="174" y="228"/>
      <point x="170" y="239"/>
      <point x="157" y="255" type="curve"/>
      <point x="153" y="257"/>
      <point x="151" y="259"/>
      <point x="147" y="256" type="curve"/>
      <point x="140" y="248"/>
      <point x="132" y="234"/>
      <point x="129" y="221" type="curve" smooth="yes"/>
      <point x="126" y="208"/>
      <point x="123" y="175"/>
      <point x="123" y="147" type="curve" smooth="yes"/>
      <point x="123" y="130"/>
      <point x="139" y="96"/>
      <point x="164" y="96" type="curve" smooth="yes"/>
      <point x="176" y="96"/>
      <point x="191" y="99"/>
      <point x="199" y="105" type="curve" smooth="yes"/>
      <point x="204" y="109"/>
      <point x="209" y="113"/>
      <point x="215" y="120" type="curve"/>
      <point x="218" y="127"/>
      <point x="219" y="129"/>
    </contour>
  </outline>
</glyph>
<glyph name="quotesingle" format="1">
  <advance width="127"/>
  <unicode hex="0027"/>
  <outline>
    <contour>
      <point x="103" y="683" type="curve" smooth="yes"/>
      <point x="103" y="614"/>
      <point x="102" y="615"/>
      <point x="102" y="559" type="curve" smooth="yes"/>
      <point x="102" y="554"/>
      <point x="98" y="533"/>
      <point x="83" y="536" type="curve" smooth="yes"/>
      <point x="73" y="538"/>
      <point x="52" y="537"/>
      <point x="40" y="536" type="curve" smooth="yes"/>
      <point x="28" y="535"/>
      <point x="25" y="545"/>
      <point x="25" y="567" type="curve" smooth="yes"/>
      <point x="25" y="601"/>
      <point x="26" y="620"/>
      <point x="25" y="653" type="curve" smooth="yes"/>
      <point x="24" y="680"/>
      <point x="30" y="699"/>
      <point x="41" y="699" type="curve" smooth="yes"/>
      <point x="52" y="699"/>
      <point x="76" y="699"/>
      <point x="87" y="702" type="curve" smooth="yes"/>
      <point x="95" y="704"/>
      <point x="103" y="703"/>
    </contour>
  </outline>
</glyph>
<glyph name="parenleft" format="1">
  <advance width="209"/>
  <unicode hex="0028"/>
  <outline>
    <contour>
      <point x="199" y="743" type="curve" smooth="yes"/>
      <point x="199" y="732"/>
      <point x="199" y="698"/>
      <point x="193" y="698" type="curve" smooth="yes"/>
      <point x="154" y="698"/>
      <point x="134" y="673"/>
      <point x="134" y="638" type="curve" smooth="yes"/>
      <point x="134" y="416"/>
      <point x="134" y="158"/>
      <point x="134" y="65" type="curve" smooth="yes"/>
      <point x="134" y="30"/>
      <point x="151" y="4"/>
      <point x="193" y="4" type="curve" smooth="yes"/>
      <point x="199" y="4"/>
      <point x="198" y="-28"/>
      <point x="198" y="-39" type="curve" smooth="yes"/>
      <point x="198" y="-56"/>
      <point x="200" y="-88"/>
      <point x="193" y="-88" type="curve" smooth="yes"/>
      <point x="92" y="-88"/>
      <point x="35" y="-41"/>
      <point x="35" y="60" type="curve" smooth="yes"/>
      <point x="35" y="158"/>
      <point x="35" y="547"/>
      <point x="35" y="641" type="curve" smooth="yes"/>
      <point x="35" y="741"/>
      <point x="92" y="788"/>
      <point x="193" y="788" type="curve" smooth="yes"/>
      <point x="201" y="788"/>
      <point x="199" y="758"/>
    </contour>
  </outline>
</glyph>
<glyph name="parenright" format="1">
  <advance width="209"/>
  <unicode hex="0029"/>
  <outline>
    <contour>
      <point x="174" y="60" type="curve" smooth="yes"/>
      <point x="174" y="-41"/>
      <point x="117" y="-88"/>
      <point x="16" y="-88" type="curve" smooth="yes"/>
      <point x="9" y="-88"/>
      <point x="11" y="-56"/>
      <point x="11" y="-39" type="curve" smooth="yes"/>
      <point x="11" y="-28"/>
      <point x="10" y="4"/>
      <point x="16" y="4" type="curve" smooth="yes"/>
      <point x="58" y="4"/>
      <point x="74" y="30"/>
      <point x="74" y="65" type="curve" smooth="yes"/>
      <point x="74" y="161"/>
      <point x="74" y="552"/>
      <point x="74" y="638" type="curve" smooth="yes"/>
      <point x="74" y="673"/>
      <point x="54" y="698"/>
      <point x="16" y="698" type="curve" smooth="yes"/>
      <point x="9" y="698"/>
      <point x="10" y="732"/>
      <point x="10" y="743" type="curve" smooth="yes"/>
      <point x="10" y="758"/>
      <point x="7" y="788"/>
      <point x="16" y="788" type="curve" smooth="yes"/>
      <point x="116" y="788"/>
      <point x="174" y="741"/>
      <point x="174" y="641" type="curve" smooth="yes"/>
      <point x="174" y="415"/>
      <point x="174" y="156"/>
    </contour>
  </outline>
</glyph>
<glyph name="asterisk" format="1">
  <advance width="357"/>
  <unicode hex="002A"/>
  <outline>
    <contour>
      <point x="302" y="614" type="curve" smooth="yes"/>
      <point x="266" y="601"/>
      <point x="237" y="590"/>
      <point x="237" y="580" type="curve" smooth="yes"/>
      <point x="237" y="572"/>
      <point x="264" y="554"/>
      <point x="300" y="538" type="curve" smooth="yes"/>
      <point x="320" y="529"/>
      <point x="291" y="484"/>
      <point x="272" y="494" type="curve" smooth="yes"/>
      <point x="228" y="518"/>
      <point x="219" y="521"/>
      <point x="212" y="515" type="curve" smooth="yes"/>
      <point x="204" y="509"/>
      <point x="207" y="491"/>
      <point x="209" y="463" type="curve" smooth="yes"/>
      <point x="211" y="446"/>
      <point x="144" y="446"/>
      <point x="146" y="463" type="curve" smooth="yes"/>
      <point x="149" y="490"/>
      <point x="149" y="514"/>
      <point x="141" y="521" type="curve" smooth="yes"/>
      <point x="134" y="527"/>
      <point x="113" y="511"/>
      <point x="84" y="496" type="curve" smooth="yes"/>
      <point x="66" y="487"/>
      <point x="36" y="545"/>
      <point x="54" y="551" type="curve" smooth="yes"/>
      <point x="86" y="562"/>
      <point x="122" y="571"/>
      <point x="122" y="581" type="curve" smooth="yes"/>
      <point x="122" y="590"/>
      <point x="86" y="604"/>
      <point x="59" y="619" type="curve" smooth="yes"/>
      <point x="38" y="631"/>
      <point x="65" y="677"/>
      <point x="84" y="665" type="curve" smooth="yes"/>
      <point x="120" y="643"/>
      <point x="134" y="635"/>
      <point x="141" y="640" type="curve"/>
      <point x="150" y="644"/>
      <point x="144" y="674"/>
      <point x="141" y="703" type="curve" smooth="yes"/>
      <point x="140" y="719"/>
      <point x="216" y="719"/>
      <point x="215" y="701" type="curve" smooth="yes"/>
      <point x="212" y="662"/>
      <point x="204" y="638"/>
      <point x="215" y="634" type="curve" smooth="yes"/>
      <point x="224" y="631"/>
      <point x="245" y="650"/>
      <point x="272" y="668" type="curve" smooth="yes"/>
      <point x="287" y="679"/>
      <point x="318" y="620"/>
    </contour>
  </outline>
</glyph>
<glyph name="plus" format="1">
  <advance width="245"/>
  <unicode hex="002B"/>
  <outline>
    <contour>
      <point x="214" y="226" type="curve" smooth="yes"/>
      <point x="201" y="220"/>
      <point x="153" y="226"/>
      <point x="149" y="220" type="curve" smooth="yes"/>
      <point x="145" y="215"/>
      <point x="149" y="171"/>
      <point x="149" y="153" type="curve" smooth="yes"/>
      <point x="149" y="148"/>
      <point x="101" y="144"/>
      <point x="99" y="149" type="curve" smooth="yes"/>
      <point x="93" y="162"/>
      <point x="98" y="214"/>
      <point x="93" y="220" type="curve" smooth="yes"/>
      <point x="87" y="227"/>
      <point x="44" y="219"/>
      <point x="27" y="223" type="curve" smooth="yes"/>
      <point x="21" y="224"/>
      <point x="22" y="274"/>
      <point x="28" y="276" type="curve" smooth="yes"/>
      <point x="43" y="280"/>
      <point x="86" y="273"/>
      <point x="92" y="279" type="curve" smooth="yes"/>
      <point x="97" y="284"/>
      <point x="92" y="326"/>
      <point x="96" y="343" type="curve" smooth="yes"/>
      <point x="97" y="349"/>
      <point x="147" y="348"/>
      <point x="149" y="342" type="curve" smooth="yes"/>
      <point x="153" y="327"/>
      <point x="146" y="283"/>
      <point x="151" y="278" type="curve" smooth="yes"/>
      <point x="156" y="273"/>
      <point x="192" y="276"/>
      <point x="210" y="276" type="curve" smooth="yes"/>
      <point x="215" y="276"/>
      <point x="219" y="228"/>
    </contour>
  </outline>
</glyph>
<glyph name="comma" format="1">
  <advance width="162"/>
  <unicode hex="002C"/>
  <outline>
    <contour>
      <point x="134" y="64" type="curve" smooth="yes"/>
      <point x="134" y="41"/>
      <point x="133" y="21"/>
      <point x="123" y="-4" type="curve" smooth="yes"/>
      <point x="111" y="-35"/>
      <point x="81" y="-100"/>
      <point x="49" y="-95" type="curve" smooth="yes"/>
      <point x="28" y="-91"/>
      <point x="54" y="-34"/>
      <point x="58" y="-12" type="curve" smooth="yes"/>
      <point x="62" y="6"/>
      <point x="49" y="6"/>
      <point x="41" y="13" type="curve" smooth="yes"/>
      <point x="31" y="21"/>
      <point x="25" y="37"/>
      <point x="25" y="53" type="curve" smooth="yes"/>
      <point x="25" y="88"/>
      <point x="40" y="119"/>
      <point x="76" y="118" type="curve" smooth="yes"/>
      <point x="112" y="117"/>
      <point x="133" y="95"/>
    </contour>
  </outline>
</glyph>
<glyph name="hyphen" format="1">
  <advance width="226"/>
  <unicode hex="002D"/>
  <unicode hex="2010"/>
  <unicode hex="2011"/>
  <outline>
    <contour>
      <point x="209" y="229" type="curve" smooth="yes"/>
      <point x="211" y="221"/>
      <point x="210" y="213"/>
      <point x="190" y="213" type="curve" smooth="yes"/>
      <point x="121" y="213"/>
      <point x="99" y="214"/>
      <point x="43" y="214" type="curve" smooth="yes"/>
      <point x="38" y="214"/>
      <point x="17" y="218"/>
      <point x="20" y="233" type="curve" smooth="yes"/>
      <point x="22" y="243"/>
      <point x="21" y="264"/>
      <point x="20" y="276" type="curve" smooth="yes"/>
      <point x="19" y="288"/>
      <point x="29" y="291"/>
      <point x="51" y="291" type="curve" smooth="yes"/>
      <point x="85" y="291"/>
      <point x="127" y="290"/>
      <point x="160" y="291" type="curve" smooth="yes"/>
      <point x="187" y="292"/>
      <point x="206" y="286"/>
      <point x="206" y="275" type="curve" smooth="yes"/>
      <point x="206" y="264"/>
      <point x="206" y="240"/>
    </contour>
  </outline>
</glyph>
<glyph name="period" format="1">
  <advance width="162"/>
  <unicode hex="002E"/>
  <outline>
    <contour>
      <point x="138" y="58" type="curve" smooth="yes"/>
      <point x="137" y="25"/>
      <point x="125" y="-1"/>
      <point x="83" y="-4" type="curve" smooth="yes"/>
      <point x="40" y="-8"/>
      <point x="26" y="25"/>
      <point x="25" y="56" type="curve" smooth="yes"/>
      <point x="24" y="91"/>
      <point x="44" y="125"/>
      <point x="83" y="121" type="curve" smooth="yes"/>
      <point x="134" y="116"/>
      <point x="139" y="91"/>
    </contour>
  </outline>
</glyph>
<glyph name="slash" format="1">
  <advance width="256"/>
  <unicode hex="002F"/>
  <outline>
    <contour>
      <point x="236" y="681" type="curve" smooth="yes"/>
      <point x="194" y="437"/>
      <point x="160" y="250"/>
      <point x="119" y="16" type="curve" smooth="yes"/>
      <point x="116" y="1"/>
      <point x="80" y="0"/>
      <point x="60" y="0" type="curve" smooth="yes"/>
      <point x="41" y="0"/>
      <point x="17" y="0"/>
      <point x="20" y="15" type="curve" smooth="yes"/>
      <point x="60" y="246"/>
      <point x="95" y="445"/>
      <point x="137" y="687" type="curve" smooth="yes"/>
      <point x="139" y="699"/>
      <point x="166" y="701"/>
      <point x="187" y="701" type="curve" smooth="yes"/>
      <point x="212" y="701"/>
      <point x="239" y="698"/>
    </contour>
  </outline>
</glyph>
<glyph name="zero" format="1">
  <advance width="357"/>
  <unicode hex="0030"/>
  <outline>
    <contour>
      <point x="326" y="144" type="curve" smooth="yes"/>
      <point x="326" y="48"/>
      <point x="267" y="0"/>
      <point x="181" y="0" type="curve" smooth="yes"/>
      <point x="97" y="0"/>
      <point x="36" y="55"/>
      <point x="36" y="144" type="curve" smooth="yes"/>
      <point x="36" y="294"/>
      <point x="36" y="408"/>
      <point x="36" y="557" type="curve" smooth="yes"/>
      <point x="36" y="644"/>
      <point x="98" y="700"/>
      <point x="181" y="700" type="curve" smooth="yes"/>
      <point x="266" y="700"/>
      <point x="326" y="644"/>
      <point x="326" y="557" type="curve" smooth="yes"/>
      <point x="326" y="410"/>
      <point x="326" y="293"/>
    </contour>
    <contour>
      <point x="218" y="166" type="curve" smooth="yes"/>
      <point x="218" y="296"/>
      <point x="218" y="408"/>
      <point x="218" y="537" type="curve" smooth="yes"/>
      <point x="218" y="565"/>
      <point x="210" y="597"/>
      <point x="181" y="597" type="curve" smooth="yes"/>
      <point x="151" y="597"/>
      <point x="143" y="565"/>
      <point x="143" y="537" type="curve" smooth="yes"/>
      <point x="143" y="408"/>
      <point x="143" y="296"/>
      <point x="143" y="166" type="curve" smooth="yes"/>
      <point x="143" y="132"/>
      <point x="151" y="106"/>
      <point x="181" y="106" type="curve" smooth="yes"/>
      <point x="211" y="106"/>
      <point x="218" y="132"/>
    </contour>
  </outline>
</glyph>
<glyph name="one" format="1">
  <advance width="306"/>
  <unicode hex="0031"/>
  <outline>
    <contour>
      <point x="286" y="45" type="curve" smooth="yes"/>
      <point x="286" y="23"/>
      <point x="284" y="0"/>
      <point x="275" y="0" type="curve" smooth="yes"/>
      <point x="225" y="0"/>
      <point x="84" y="0"/>
      <point x="34" y="0" type="curve" smooth="yes"/>
      <point x="21" y="0"/>
      <point x="20" y="20"/>
      <point x="20" y="44" type="curve" smooth="yes"/>
      <point x="20" y="70"/>
      <point x="22" y="93"/>
      <point x="36" y="93" type="curve" smooth="yes"/>
      <point x="46" y="93"/>
      <point x="63" y="93"/>
      <point x="78" y="93" type="curve" smooth="yes"/>
      <point x="85" y="93"/>
      <point x="91" y="92"/>
      <point x="96" y="95" type="curve" smooth="yes"/>
      <point x="101" y="98"/>
      <point x="101" y="113"/>
      <point x="101" y="125" type="curve" smooth="yes"/>
      <point x="101" y="302"/>
      <point x="101" y="361"/>
      <point x="101" y="538" type="curve" smooth="yes"/>
      <point x="101" y="546"/>
      <point x="102" y="562"/>
      <point x="97" y="562" type="curve" smooth="yes"/>
      <point x="86" y="562"/>
      <point x="67" y="544"/>
      <point x="57" y="537" type="curve"/>
      <point x="49" y="530"/>
      <point x="33" y="512"/>
      <point x="30" y="528" type="curve" smooth="yes"/>
      <point x="27" y="548"/>
      <point x="24" y="579"/>
      <point x="28" y="600" type="curve"/>
      <point x="29" y="610"/>
      <point x="51" y="627"/>
      <point x="68" y="641" type="curve" smooth="yes"/>
      <point x="84" y="654"/>
      <point x="90" y="690"/>
      <point x="99" y="692" type="curve"/>
      <point x="124" y="700"/>
      <point x="176" y="700"/>
      <point x="196" y="700" type="curve" smooth="yes"/>
      <point x="209" y="700"/>
      <point x="207" y="681"/>
      <point x="207" y="670" type="curve" smooth="yes"/>
      <point x="207" y="460"/>
      <point x="207" y="347"/>
      <point x="207" y="125" type="curve" smooth="yes"/>
      <point x="207" y="114"/>
      <point x="207" y="102"/>
      <point x="210" y="98" type="curve" smooth="yes"/>
      <point x="214" y="93"/>
      <point x="223" y="93"/>
      <point x="227" y="93" type="curve" smooth="yes"/>
      <point x="247" y="93"/>
      <point x="263" y="93"/>
      <point x="277" y="93" type="curve" smooth="yes"/>
      <point x="286" y="93"/>
      <point x="286" y="71"/>
    </contour>
  </outline>
</glyph>
<glyph name="two" format="1">
  <advance width="338"/>
  <unicode hex="0032"/>
  <outline>
    <contour>
      <point x="313" y="54" type="curve" smooth="yes"/>
      <point x="313" y="29"/>
      <point x="312" y="0"/>
      <point x="296" y="0" type="curve" smooth="yes"/>
      <point x="247" y="0"/>
      <point x="112" y="0"/>
      <point x="58" y="0" type="curve" smooth="yes"/>
      <point x="47" y="0"/>
      <point x="41" y="-2"/>
      <point x="34" y="4" type="curve" smooth="yes"/>
      <point x="25" y="11"/>
      <point x="27" y="13"/>
      <point x="27" y="28" type="curve" smooth="yes"/>
      <point x="27" y="78"/>
      <point x="27" y="126"/>
      <point x="27" y="176" type="curve" smooth="yes"/>
      <point x="27" y="220"/>
      <point x="43" y="256"/>
      <point x="60" y="277" type="curve" smooth="yes"/>
      <point x="109" y="336"/>
      <point x="116" y="343"/>
      <point x="157" y="395" type="curve" smooth="yes"/>
      <point x="179" y="424"/>
      <point x="187" y="440"/>
      <point x="198" y="474" type="curve" smooth="yes"/>
      <point x="207" y="503"/>
      <point x="208" y="523"/>
      <point x="208" y="546" type="curve" smooth="yes"/>
      <point x="208" y="576"/>
      <point x="201" y="598"/>
      <point x="170" y="598" type="curve" smooth="yes"/>
      <point x="141" y="598"/>
      <point x="135" y="569"/>
      <point x="135" y="546" type="curve" smooth="yes"/>
      <point x="135" y="527"/>
      <point x="135" y="526"/>
      <point x="135" y="511" type="curve" smooth="yes"/>
      <point x="135" y="500"/>
      <point x="102" y="498"/>
      <point x="80" y="498" type="curve" smooth="yes"/>
      <point x="57" y="498"/>
      <point x="31" y="498"/>
      <point x="31" y="512" type="curve" smooth="yes"/>
      <point x="31" y="531"/>
      <point x="31" y="549"/>
      <point x="31" y="568" type="curve" smooth="yes"/>
      <point x="31" y="640"/>
      <point x="84" y="700"/>
      <point x="170" y="700" type="curve" smooth="yes"/>
      <point x="261" y="700"/>
      <point x="312" y="644"/>
      <point x="312" y="569" type="curve" smooth="yes"/>
      <point x="312" y="531"/>
      <point x="312" y="535"/>
      <point x="312" y="495" type="curve" smooth="yes"/>
      <point x="312" y="427"/>
      <point x="270" y="372"/>
      <point x="238" y="334" type="curve" smooth="yes"/>
      <point x="201" y="290"/>
      <point x="187" y="274"/>
      <point x="152" y="232" type="curve" smooth="yes"/>
      <point x="141" y="218"/>
      <point x="134" y="200"/>
      <point x="134" y="181" type="curve" smooth="yes"/>
      <point x="134" y="158"/>
      <point x="134" y="158"/>
      <point x="134" y="135" type="curve" smooth="yes"/>
      <point x="134" y="120"/>
      <point x="133" y="117"/>
      <point x="139" y="111" type="curve" smooth="yes"/>
      <point x="144" y="106"/>
      <point x="152" y="106"/>
      <point x="162" y="106" type="curve" smooth="yes"/>
      <point x="194" y="106"/>
      <point x="266" y="106"/>
      <point x="298" y="106" type="curve" smooth="yes"/>
      <point x="311" y="106"/>
      <point x="313" y="80"/>
    </contour>
  </outline>
</glyph>
<glyph name="three" format="1">
  <advance width="338"/>
  <unicode hex="0033"/>
  <outline>
    <contour>
      <point x="313" y="140" type="curve" smooth="yes"/>
      <point x="313" y="57"/>
      <point x="252" y="0"/>
      <point x="168" y="0" type="curve" smooth="yes"/>
      <point x="86" y="0"/>
      <point x="25" y="59"/>
      <point x="25" y="140" type="curve" smooth="yes"/>
      <point x="25" y="158"/>
      <point x="25" y="180"/>
      <point x="25" y="197" type="curve" smooth="yes"/>
      <point x="25" y="214"/>
      <point x="50" y="217"/>
      <point x="77" y="217" type="curve" smooth="yes"/>
      <point x="107" y="217"/>
      <point x="135" y="214"/>
      <point x="135" y="198" type="curve" smooth="yes"/>
      <point x="135" y="179"/>
      <point x="135" y="173"/>
      <point x="135" y="161" type="curve" smooth="yes"/>
      <point x="135" y="136"/>
      <point x="142" y="105"/>
      <point x="169" y="105" type="curve" smooth="yes"/>
      <point x="195" y="105"/>
      <point x="204" y="135"/>
      <point x="204" y="161" type="curve" smooth="yes"/>
      <point x="204" y="224"/>
      <point x="204" y="224"/>
      <point x="204" y="286" type="curve" smooth="yes"/>
      <point x="204" y="308"/>
      <point x="196" y="333"/>
      <point x="172" y="335" type="curve" smooth="yes"/>
      <point x="143" y="338"/>
      <point x="152" y="331"/>
      <point x="140" y="326" type="curve"/>
      <point x="129" y="323"/>
      <point x="113" y="340"/>
      <point x="100" y="349" type="curve"/>
      <point x="94" y="352"/>
      <point x="69" y="377"/>
      <point x="73" y="383" type="curve" smooth="yes"/>
      <point x="131" y="487"/>
      <point x="144" y="501"/>
      <point x="187" y="572" type="curve" smooth="yes"/>
      <point x="195" y="586"/>
      <point x="194" y="589"/>
      <point x="189" y="596" type="curve" smooth="yes"/>
      <point x="185" y="602"/>
      <point x="94" y="601"/>
      <point x="48" y="601" type="curve" smooth="yes"/>
      <point x="38" y="601"/>
      <point x="35" y="622"/>
      <point x="35" y="650" type="curve" smooth="yes"/>
      <point x="35" y="680"/>
      <point x="37" y="700"/>
      <point x="48" y="700" type="curve" smooth="yes"/>
      <point x="118" y="700"/>
      <point x="215" y="700"/>
      <point x="299" y="700" type="curve" smooth="yes"/>
      <point x="311" y="700"/>
      <point x="313" y="691"/>
      <point x="313" y="671" type="curve" smooth="yes"/>
      <point x="313" y="649"/>
      <point x="316" y="598"/>
      <point x="306" y="580" type="curve" smooth="yes"/>
      <point x="269" y="511"/>
      <point x="254" y="489"/>
      <point x="216" y="423" type="curve"/>
      <point x="213" y="419"/>
      <point x="210" y="413"/>
      <point x="220" y="411" type="curve" smooth="yes"/>
      <point x="238" y="408"/>
      <point x="258" y="405"/>
      <point x="276" y="389" type="curve" smooth="yes"/>
      <point x="299" y="369"/>
      <point x="313" y="337"/>
      <point x="313" y="283" type="curve" smooth="yes"/>
      <point x="313" y="214"/>
      <point x="313" y="207"/>
    </contour>
  </outline>
</glyph>
<glyph name="four" format="1">
  <advance width="331"/>
  <unicode hex="0034"/>
  <outline>
    <contour>
      <point x="316" y="170" type="curve" smooth="yes"/>
      <point x="316" y="151"/>
      <point x="316" y="131"/>
      <point x="310" y="131" type="curve" smooth="yes"/>
      <point x="296" y="131"/>
      <point x="295" y="132"/>
      <point x="289" y="127" type="curve"/>
      <point x="285" y="123"/>
      <point x="286" y="121"/>
      <point x="286" y="115" type="curve" smooth="yes"/>
      <point x="286" y="76"/>
      <point x="286" y="48"/>
      <point x="286" y="12" type="curve" smooth="yes"/>
      <point x="286" y="1"/>
      <point x="267" y="0"/>
      <point x="241" y="0" type="curve" smooth="yes"/>
      <point x="221" y="0"/>
      <point x="185" y="2"/>
      <point x="185" y="13" type="curve" smooth="yes"/>
      <point x="185" y="48"/>
      <point x="185" y="65"/>
      <point x="185" y="103" type="curve" smooth="yes"/>
      <point x="185" y="109"/>
      <point x="186" y="117"/>
      <point x="183" y="124" type="curve"/>
      <point x="179" y="130"/>
      <point x="166" y="129"/>
      <point x="156" y="129" type="curve" smooth="yes"/>
      <point x="125" y="129"/>
      <point x="65" y="129"/>
      <point x="34" y="129" type="curve" smooth="yes"/>
      <point x="29" y="129"/>
      <point x="21" y="128"/>
      <point x="18" y="133" type="curve" smooth="yes"/>
      <point x="14" y="140"/>
      <point x="15" y="148"/>
      <point x="15" y="156" type="curve" smooth="yes"/>
      <point x="15" y="195"/>
      <point x="15" y="204"/>
      <point x="15" y="243" type="curve" smooth="yes"/>
      <point x="15" y="254"/>
      <point x="15" y="261"/>
      <point x="17" y="274" type="curve" smooth="yes"/>
      <point x="19" y="284"/>
      <point x="22" y="293"/>
      <point x="25" y="302" type="curve" smooth="yes"/>
      <point x="72" y="439"/>
      <point x="104" y="532"/>
      <point x="157" y="679" type="curve" smooth="yes"/>
      <point x="164" y="697"/>
      <point x="171" y="702"/>
      <point x="218" y="702" type="curve" smooth="yes"/>
      <point x="273" y="702"/>
      <point x="285" y="699"/>
      <point x="285" y="689" type="curve" smooth="yes"/>
      <point x="285" y="507"/>
      <point x="285" y="422"/>
      <point x="285" y="240" type="curve" smooth="yes"/>
      <point x="285" y="236"/>
      <point x="285" y="228"/>
      <point x="287" y="226" type="curve" smooth="yes"/>
      <point x="291" y="222"/>
      <point x="302" y="223"/>
      <point x="310" y="223" type="curve" smooth="yes"/>
      <point x="316" y="223"/>
      <point x="316" y="190"/>
    </contour>
    <contour>
      <point x="189" y="461" type="curve" smooth="yes"/>
      <point x="189" y="486"/>
      <point x="190" y="502"/>
      <point x="185" y="502" type="curve" smooth="yes"/>
      <point x="178" y="502"/>
      <point x="176" y="484"/>
      <point x="173" y="473" type="curve" smooth="yes"/>
      <point x="160" y="419"/>
      <point x="148" y="375"/>
      <point x="134" y="321" type="curve" smooth="yes"/>
      <point x="131" y="310"/>
      <point x="128" y="303"/>
      <point x="126" y="292" type="curve" smooth="yes"/>
      <point x="125" y="285"/>
      <point x="124" y="282"/>
      <point x="124" y="275" type="curve" smooth="yes"/>
      <point x="124" y="257"/>
      <point x="124" y="254"/>
      <point x="124" y="242" type="curve" smooth="yes"/>
      <point x="124" y="231"/>
      <point x="125" y="230"/>
      <point x="129" y="225" type="curve" smooth="yes"/>
      <point x="131" y="222"/>
      <point x="137" y="222"/>
      <point x="151" y="222" type="curve" smooth="yes"/>
      <point x="165" y="222"/>
      <point x="178" y="223"/>
      <point x="182" y="225" type="curve" smooth="yes"/>
      <point x="186" y="227"/>
      <point x="185" y="235"/>
      <point x="185" y="243" type="curve" smooth="yes"/>
      <point x="186" y="336"/>
      <point x="188" y="368"/>
    </contour>
  </outline>
</glyph>
<glyph name="five" format="1">
  <advance width="343"/>
  <unicode hex="0035"/>
  <outline>
    <contour>
      <point x="318" y="223" type="curve" smooth="yes"/>
      <point x="318" y="182"/>
      <point x="305" y="140"/>
      <point x="286" y="108" type="curve" smooth="yes"/>
      <point x="267" y="74"/>
      <point x="227" y="41"/>
      <point x="180" y="20" type="curve"/>
      <point x="138" y="6"/>
      <point x="57" y="-10"/>
      <point x="36" y="1" type="curve" smooth="yes"/>
      <point x="30" y="4"/>
      <point x="31" y="38"/>
      <point x="31" y="49" type="curve" smooth="yes"/>
      <point x="31" y="58"/>
      <point x="31" y="88"/>
      <point x="35" y="92" type="curve" smooth="yes"/>
      <point x="50" y="107"/>
      <point x="65" y="94"/>
      <point x="119" y="110" type="curve" smooth="yes"/>
      <point x="151" y="120"/>
      <point x="168" y="134"/>
      <point x="185" y="151" type="curve" smooth="yes"/>
      <point x="203" y="169"/>
      <point x="210" y="190"/>
      <point x="210" y="215" type="curve" smooth="yes"/>
      <point x="210" y="246"/>
      <point x="210" y="246"/>
      <point x="210" y="281" type="curve" smooth="yes"/>
      <point x="210" y="317"/>
      <point x="204" y="340"/>
      <point x="176" y="340" type="curve" smooth="yes"/>
      <point x="154" y="340"/>
      <point x="148" y="332"/>
      <point x="141" y="321" type="curve" smooth="yes"/>
      <point x="136" y="314"/>
      <point x="129" y="309"/>
      <point x="119" y="306" type="curve" smooth="yes"/>
      <point x="110" y="303"/>
      <point x="57" y="300"/>
      <point x="33" y="306" type="curve"/>
      <point x="28" y="308"/>
      <point x="30" y="334"/>
      <point x="30" y="350" type="curve" smooth="yes"/>
      <point x="30" y="477"/>
      <point x="30" y="542"/>
      <point x="30" y="664" type="curve" smooth="yes"/>
      <point x="30" y="676"/>
      <point x="32" y="687"/>
      <point x="34" y="690" type="curve" smooth="yes"/>
      <point x="42" y="701"/>
      <point x="48" y="700"/>
      <point x="60" y="700" type="curve" smooth="yes"/>
      <point x="118" y="700"/>
      <point x="241" y="700"/>
      <point x="298" y="700" type="curve" smooth="yes"/>
      <point x="313" y="700"/>
      <point x="315" y="675"/>
      <point x="315" y="655" type="curve" smooth="yes"/>
      <point x="315" y="635"/>
      <point x="313" y="604"/>
      <point x="300" y="604" type="curve" smooth="yes"/>
      <point x="259" y="604"/>
      <point x="207" y="604"/>
      <point x="167" y="604" type="curve" smooth="yes"/>
      <point x="156" y="604"/>
      <point x="150" y="604"/>
      <point x="144" y="597" type="curve" smooth="yes"/>
      <point x="138" y="590"/>
      <point x="138" y="586"/>
      <point x="138" y="576" type="curve" smooth="yes"/>
      <point x="138" y="511"/>
      <point x="138" y="521"/>
      <point x="138" y="457" type="curve" smooth="yes"/>
      <point x="138" y="442"/>
      <point x="135" y="418"/>
      <point x="152" y="419" type="curve" smooth="yes"/>
      <point x="164" y="419"/>
      <point x="167" y="431"/>
      <point x="209" y="431" type="curve" smooth="yes"/>
      <point x="249" y="431"/>
      <point x="270" y="418"/>
      <point x="291" y="394" type="curve" smooth="yes"/>
      <point x="312" y="370"/>
      <point x="318" y="346"/>
      <point x="318" y="315" type="curve" smooth="yes"/>
      <point x="318" y="283"/>
      <point x="318" y="255"/>
    </contour>
  </outline>
</glyph>
<glyph name="six" format="1">
  <advance width="347"/>
  <unicode hex="0036"/>
  <outline>
    <contour>
      <point x="317" y="154" type="curve" smooth="yes"/>
      <point x="317" y="60"/>
      <point x="264" y="0"/>
      <point x="176" y="0" type="curve" smooth="yes"/>
      <point x="81" y="0"/>
      <point x="33" y="66"/>
      <point x="33" y="154" type="curve" smooth="yes"/>
      <point x="33" y="279"/>
      <point x="34" y="334"/>
      <point x="34" y="468" type="curve" smooth="yes"/>
      <point x="34" y="523"/>
      <point x="43" y="557"/>
      <point x="78" y="605" type="curve" smooth="yes"/>
      <point x="113" y="654"/>
      <point x="194" y="699"/>
      <point x="309" y="701" type="curve" smooth="yes"/>
      <point x="316" y="701"/>
      <point x="315" y="666"/>
      <point x="315" y="656" type="curve" smooth="yes"/>
      <point x="315" y="646"/>
      <point x="315" y="612"/>
      <point x="309" y="612" type="curve"/>
      <point x="255" y="605"/>
      <point x="209" y="602"/>
      <point x="176" y="569" type="curve" smooth="yes"/>
      <point x="152" y="546"/>
      <point x="139" y="520"/>
      <point x="139" y="480" type="curve" smooth="yes"/>
      <point x="139" y="451"/>
      <point x="139" y="455"/>
      <point x="139" y="426" type="curve" smooth="yes"/>
      <point x="139" y="420"/>
      <point x="137" y="410"/>
      <point x="143" y="407" type="curve"/>
      <point x="149" y="401"/>
      <point x="164" y="421"/>
      <point x="211" y="421" type="curve" smooth="yes"/>
      <point x="234" y="421"/>
      <point x="256" y="414"/>
      <point x="277" y="394" type="curve" smooth="yes"/>
      <point x="300" y="373"/>
      <point x="317" y="338"/>
      <point x="317" y="293" type="curve" smooth="yes"/>
      <point x="317" y="234"/>
      <point x="317" y="215"/>
    </contour>
    <contour>
      <point x="213" y="174" type="curve" smooth="yes"/>
      <point x="213" y="215"/>
      <point x="213" y="242"/>
      <point x="213" y="279" type="curve" smooth="yes"/>
      <point x="213" y="311"/>
      <point x="204" y="337"/>
      <point x="175" y="337" type="curve" smooth="yes"/>
      <point x="145" y="337"/>
      <point x="138" y="311"/>
      <point x="138" y="277" type="curve" smooth="yes"/>
      <point x="138" y="239"/>
      <point x="138" y="209"/>
      <point x="138" y="174" type="curve" smooth="yes"/>
      <point x="138" y="132"/>
      <point x="138" y="103"/>
      <point x="176" y="103" type="curve" smooth="yes"/>
      <point x="208" y="103"/>
      <point x="213" y="136"/>
    </contour>
  </outline>
</glyph>
<glyph name="seven" format="1">
  <advance width="316"/>
  <unicode hex="0037"/>
  <outline>
    <contour>
      <point x="301" y="597" type="curve" smooth="yes"/>
      <point x="301" y="579"/>
      <point x="288" y="563"/>
      <point x="263" y="503" type="curve" smooth="yes"/>
      <point x="243" y="454"/>
      <point x="228" y="405"/>
      <point x="214" y="342" type="curve" smooth="yes"/>
      <point x="192" y="240"/>
      <point x="175" y="160"/>
      <point x="168" y="54" type="curve" smooth="yes"/>
      <point x="167" y="40"/>
      <point x="167" y="11"/>
      <point x="162" y="7" type="curve" smooth="yes"/>
      <point x="152" y="-1"/>
      <point x="118" y="0"/>
      <point x="107" y="0" type="curve" smooth="yes"/>
      <point x="96" y="0"/>
      <point x="74" y="-2"/>
      <point x="66" y="5" type="curve" smooth="yes"/>
      <point x="60" y="11"/>
      <point x="63" y="37"/>
      <point x="64" y="57" type="curve" smooth="yes"/>
      <point x="71" y="162"/>
      <point x="84" y="247"/>
      <point x="107" y="355" type="curve" smooth="yes"/>
      <point x="124" y="435"/>
      <point x="145" y="493"/>
      <point x="170" y="561" type="curve" smooth="yes"/>
      <point x="175" y="575"/>
      <point x="174" y="594"/>
      <point x="169" y="601" type="curve" smooth="yes"/>
      <point x="165" y="606"/>
      <point x="137" y="605"/>
      <point x="117" y="605" type="curve" smooth="yes"/>
      <point x="82" y="605"/>
      <point x="60" y="605"/>
      <point x="27" y="605" type="curve" smooth="yes"/>
      <point x="17" y="605"/>
      <point x="15" y="633"/>
      <point x="15" y="653" type="curve" smooth="yes"/>
      <point x="15" y="677"/>
      <point x="15" y="700"/>
      <point x="25" y="700" type="curve" smooth="yes"/>
      <point x="128" y="700"/>
      <point x="211" y="700"/>
      <point x="285" y="700" type="curve" smooth="yes"/>
      <point x="294" y="700"/>
      <point x="296" y="697"/>
      <point x="298" y="694" type="curve" smooth="yes"/>
      <point x="301" y="690"/>
      <point x="301" y="672"/>
      <point x="301" y="668" type="curve" smooth="yes"/>
      <point x="301" y="634"/>
      <point x="301" y="631"/>
    </contour>
  </outline>
</glyph>
<glyph name="eight" format="1">
  <advance width="357"/>
  <unicode hex="0038"/>
  <outline>
    <contour>
      <point x="324" y="148" type="curve" smooth="yes"/>
      <point x="324" y="57"/>
      <point x="265" y="0"/>
      <point x="178" y="0" type="curve" smooth="yes"/>
      <point x="94" y="0"/>
      <point x="33" y="60"/>
      <point x="33" y="148" type="curve" smooth="yes"/>
      <point x="33" y="212"/>
      <point x="33" y="234"/>
      <point x="33" y="301" type="curve" smooth="yes"/>
      <point x="33" y="324"/>
      <point x="39" y="338"/>
      <point x="48" y="352" type="curve" smooth="yes"/>
      <point x="57" y="365"/>
      <point x="69" y="371"/>
      <point x="80" y="377" type="curve"/>
      <point x="70" y="384"/>
      <point x="59" y="391"/>
      <point x="50" y="403" type="curve" smooth="yes"/>
      <point x="39" y="417"/>
      <point x="33" y="432"/>
      <point x="33" y="456" type="curve" smooth="yes"/>
      <point x="33" y="508"/>
      <point x="33" y="517"/>
      <point x="33" y="567" type="curve" smooth="yes"/>
      <point x="33" y="646"/>
      <point x="98" y="700"/>
      <point x="178" y="700" type="curve" smooth="yes"/>
      <point x="260" y="700"/>
      <point x="324" y="647"/>
      <point x="324" y="566" type="curve" smooth="yes"/>
      <point x="324" y="516"/>
      <point x="324" y="506"/>
      <point x="324" y="453" type="curve" smooth="yes"/>
      <point x="324" y="428"/>
      <point x="315" y="414"/>
      <point x="305" y="400" type="curve" smooth="yes"/>
      <point x="295" y="387"/>
      <point x="282" y="382"/>
      <point x="274" y="375" type="curve"/>
      <point x="282" y="368"/>
      <point x="292" y="363"/>
      <point x="302" y="352" type="curve"/>
      <point x="314" y="335"/>
      <point x="324" y="319"/>
      <point x="324" y="290" type="curve" smooth="yes"/>
      <point x="324" y="227"/>
      <point x="324" y="209"/>
    </contour>
    <contour>
      <point x="216" y="456" type="curve" smooth="yes"/>
      <point x="216" y="494"/>
      <point x="216" y="519"/>
      <point x="216" y="547" type="curve" smooth="yes"/>
      <point x="216" y="574"/>
      <point x="206" y="600"/>
      <point x="178" y="600" type="curve" smooth="yes"/>
      <point x="150" y="600"/>
      <point x="140" y="573"/>
      <point x="140" y="546" type="curve" smooth="yes"/>
      <point x="140" y="516"/>
      <point x="140" y="493"/>
      <point x="140" y="456" type="curve" smooth="yes"/>
      <point x="140" y="428"/>
      <point x="149" y="399"/>
      <point x="178" y="399" type="curve" smooth="yes"/>
      <point x="207" y="399"/>
      <point x="216" y="426"/>
    </contour>
    <contour>
      <point x="216" y="163" type="curve" smooth="yes"/>
      <point x="216" y="203"/>
      <point x="216" y="220"/>
      <point x="216" y="258" type="curve" smooth="yes"/>
      <point x="216" y="286"/>
      <point x="207" y="315"/>
      <point x="178" y="315" type="curve" smooth="yes"/>
      <point x="149" y="315"/>
      <point x="140" y="286"/>
      <point x="140" y="259" type="curve" smooth="yes"/>
      <point x="140" y="222"/>
      <point x="140" y="204"/>
      <point x="140" y="163" type="curve" smooth="yes"/>
      <point x="140" y="131"/>
      <point x="147" y="100"/>
      <point x="178" y="100" type="curve" smooth="yes"/>
      <point x="209" y="100"/>
      <point x="216" y="130"/>
    </contour>
  </outline>
</glyph>
<glyph name="nine" format="1">
  <advance width="347"/>
  <unicode hex="0039"/>
  <outline>
    <contour>
      <point x="314" y="235" type="curve" smooth="yes"/>
      <point x="314" y="174"/>
      <point x="307" y="140"/>
      <point x="271" y="93" type="curve" smooth="yes"/>
      <point x="235" y="46"/>
      <point x="154" y="2"/>
      <point x="37" y="-1" type="curve" smooth="yes"/>
      <point x="29" y="-1"/>
      <point x="31" y="35"/>
      <point x="31" y="46" type="curve" smooth="yes"/>
      <point x="31" y="57"/>
      <point x="31" y="94"/>
      <point x="37" y="94" type="curve"/>
      <point x="95" y="101"/>
      <point x="139" y="103"/>
      <point x="172" y="135" type="curve" smooth="yes"/>
      <point x="191" y="152"/>
      <point x="201" y="167"/>
      <point x="205" y="190" type="curve" smooth="yes"/>
      <point x="207" y="199"/>
      <point x="207" y="208"/>
      <point x="207" y="217" type="curve" smooth="yes"/>
      <point x="207" y="245"/>
      <point x="207" y="241"/>
      <point x="207" y="270" type="curve" smooth="yes"/>
      <point x="207" y="278"/>
      <point x="210" y="289"/>
      <point x="202" y="293" type="curve" smooth="yes"/>
      <point x="197" y="296"/>
      <point x="185" y="275"/>
      <point x="139" y="275" type="curve" smooth="yes"/>
      <point x="117" y="275"/>
      <point x="91" y="283"/>
      <point x="68" y="307" type="curve" smooth="yes"/>
      <point x="45" y="330"/>
      <point x="27" y="364"/>
      <point x="27" y="403" type="curve" smooth="yes"/>
      <point x="27" y="464"/>
      <point x="27" y="489"/>
      <point x="27" y="551" type="curve" smooth="yes"/>
      <point x="27" y="651"/>
      <point x="83" y="700"/>
      <point x="171" y="700" type="curve" smooth="yes"/>
      <point x="256" y="700"/>
      <point x="314" y="647"/>
      <point x="314" y="551" type="curve" smooth="yes"/>
      <point x="314" y="427"/>
      <point x="314" y="370"/>
    </contour>
    <contour>
      <point x="208" y="423" type="curve" smooth="yes"/>
      <point x="208" y="461"/>
      <point x="208" y="491"/>
      <point x="208" y="531" type="curve" smooth="yes"/>
      <point x="208" y="572"/>
      <point x="203" y="601"/>
      <point x="170" y="601" type="curve" smooth="yes"/>
      <point x="138" y="601"/>
      <point x="134" y="568"/>
      <point x="134" y="531" type="curve" smooth="yes"/>
      <point x="134" y="488"/>
      <point x="134" y="462"/>
      <point x="134" y="421" type="curve" smooth="yes"/>
      <point x="134" y="389"/>
      <point x="143" y="364"/>
      <point x="171" y="364" type="curve" smooth="yes"/>
      <point x="201" y="364"/>
      <point x="208" y="390"/>
    </contour>
  </outline>
</glyph>
<glyph name="colon" format="1">
  <advance width="162"/>
  <unicode hex="003A"/>
  <outline>
    <contour>
      <point x="133" y="295" type="curve" smooth="yes"/>
      <point x="132" y="263"/>
      <point x="120" y="239"/>
      <point x="81" y="236" type="curve" smooth="yes"/>
      <point x="40" y="232"/>
      <point x="26" y="263"/>
      <point x="25" y="293" type="curve" smooth="yes"/>
      <point x="24" y="326"/>
      <point x="44" y="359"/>
      <point x="81" y="355" type="curve" smooth="yes"/>
      <point x="130" y="350"/>
      <point x="133" y="326"/>
    </contour>
    <contour>
      <point x="133" y="58" type="curve" smooth="yes"/>
      <point x="132" y="26"/>
      <point x="120" y="2"/>
      <point x="81" y="-1" type="curve" smooth="yes"/>
      <point x="40" y="-5"/>
      <point x="26" y="26"/>
      <point x="25" y="56" type="curve" smooth="yes"/>
      <point x="24" y="89"/>
      <point x="44" y="122"/>
      <point x="81" y="118" type="curve" smooth="yes"/>
      <point x="130" y="113"/>
      <point x="133" y="89"/>
    </contour>
  </outline>
</glyph>
<glyph name="semicolon" format="1">
  <advance width="162"/>
  <unicode hex="003B"/>
  <outline>
    <contour>
      <point x="133" y="295" type="curve" smooth="yes"/>
      <point x="132" y="263"/>
      <point x="120" y="239"/>
      <point x="81" y="236" type="curve" smooth="yes"/>
      <point x="40" y="232"/>
      <point x="26" y="263"/>
      <point x="25" y="293" type="curve" smooth="yes"/>
      <point x="24" y="326"/>
      <point x="44" y="359"/>
      <point x="81" y="355" type="curve" smooth="yes"/>
      <point x="130" y="350"/>
      <point x="133" y="326"/>
    </contour>
    <contour>
      <point x="134" y="64" type="curve" smooth="yes"/>
      <point x="134" y="41"/>
      <point x="133" y="21"/>
      <point x="123" y="-4" type="curve" smooth="yes"/>
      <point x="111" y="-35"/>
      <point x="81" y="-100"/>
      <point x="49" y="-95" type="curve" smooth="yes"/>
      <point x="28" y="-91"/>
      <point x="54" y="-34"/>
      <point x="58" y="-12" type="curve" smooth="yes"/>
      <point x="62" y="6"/>
      <point x="49" y="6"/>
      <point x="41" y="13" type="curve" smooth="yes"/>
      <point x="31" y="21"/>
      <point x="25" y="37"/>
      <point x="25" y="53" type="curve" smooth="yes"/>
      <point x="25" y="88"/>
      <point x="40" y="119"/>
      <point x="76" y="118" type="curve" smooth="yes"/>
      <point x="112" y="117"/>
      <point x="133" y="95"/>
    </contour>
  </outline>
</glyph>
<glyph name="less" format="1">
  <advance width="271"/>
  <unicode hex="003C"/>
  <outline>
    <contour>
      <point x="241" y="391" type="curve" smooth="yes"/>
      <point x="203" y="350"/>
      <point x="109" y="254"/>
      <point x="109" y="247" type="curve" smooth="yes"/>
      <point x="109" y="240"/>
      <point x="203" y="145"/>
      <point x="237" y="103" type="curve" smooth="yes"/>
      <point x="249" y="87"/>
      <point x="241" y="81"/>
      <point x="232" y="79" type="curve" smooth="yes"/>
      <point x="222" y="76"/>
      <point x="200" y="63"/>
      <point x="189" y="59" type="curve" smooth="yes"/>
      <point x="186" y="58"/>
      <point x="21" y="235"/>
      <point x="21" y="247" type="curve" smooth="yes"/>
      <point x="21" y="259"/>
      <point x="190" y="435"/>
      <point x="194" y="433" type="curve" smooth="yes"/>
      <point x="205" y="427"/>
      <point x="226" y="418"/>
      <point x="236" y="415" type="curve" smooth="yes"/>
      <point x="245" y="413"/>
      <point x="254" y="405"/>
    </contour>
  </outline>
</glyph>
<glyph name="equal" format="1">
  <advance width="256"/>
  <unicode hex="003D"/>
  <outline>
    <contour>
      <point x="235" y="302" type="curve" smooth="yes"/>
      <point x="222" y="296"/>
      <point x="211" y="298"/>
      <point x="198" y="297" type="curve" smooth="yes"/>
      <point x="164" y="294"/>
      <point x="103" y="294"/>
      <point x="68" y="295" type="curve" smooth="yes"/>
      <point x="51" y="295"/>
      <point x="42" y="294"/>
      <point x="25" y="300" type="curve" smooth="yes"/>
      <point x="18" y="302"/>
      <point x="16" y="353"/>
      <point x="26" y="356" type="curve" smooth="yes"/>
      <point x="41" y="361"/>
      <point x="49" y="358"/>
      <point x="63" y="358" type="curve" smooth="yes"/>
      <point x="94" y="359"/>
      <point x="153" y="357"/>
      <point x="183" y="357" type="curve" smooth="yes"/>
      <point x="201" y="357"/>
      <point x="213" y="356"/>
      <point x="231" y="356" type="curve" smooth="yes"/>
      <point x="236" y="356"/>
      <point x="240" y="304"/>
    </contour>
    <contour>
      <point x="236" y="158" type="curve" smooth="yes"/>
      <point x="223" y="152"/>
      <point x="212" y="154"/>
      <point x="199" y="153" type="curve" smooth="yes"/>
      <point x="165" y="150"/>
      <point x="103" y="150"/>
      <point x="68" y="151" type="curve" smooth="yes"/>
      <point x="51" y="151"/>
      <point x="42" y="152"/>
      <point x="25" y="156" type="curve" smooth="yes"/>
      <point x="19" y="157"/>
      <point x="19" y="208"/>
      <point x="26" y="212" type="curve"/>
      <point x="41" y="218"/>
      <point x="49" y="214"/>
      <point x="63" y="214" type="curve" smooth="yes"/>
      <point x="94" y="215"/>
      <point x="154" y="213"/>
      <point x="184" y="213" type="curve" smooth="yes"/>
      <point x="202" y="213"/>
      <point x="221" y="215"/>
      <point x="232" y="212" type="curve"/>
      <point x="237" y="204"/>
      <point x="241" y="160"/>
    </contour>
  </outline>
</glyph>
<glyph name="greater" format="1">
  <advance width="271"/>
  <unicode hex="003E"/>
  <outline>
    <contour>
      <point x="250" y="247" type="curve" smooth="yes"/>
      <point x="250" y="235"/>
      <point x="96" y="53"/>
      <point x="87" y="59" type="curve"/>
      <point x="77" y="64"/>
      <point x="55" y="76"/>
      <point x="45" y="79" type="curve" smooth="yes"/>
      <point x="36" y="81"/>
      <point x="27" y="88"/>
      <point x="40" y="103" type="curve" smooth="yes"/>
      <point x="77" y="144"/>
      <point x="165" y="240"/>
      <point x="165" y="247" type="curve" smooth="yes"/>
      <point x="165" y="254"/>
      <point x="72" y="348"/>
      <point x="30" y="391" type="curve" smooth="yes"/>
      <point x="17" y="405"/>
      <point x="26" y="413"/>
      <point x="35" y="415" type="curve" smooth="yes"/>
      <point x="45" y="418"/>
      <point x="67" y="428"/>
      <point x="77" y="433" type="curve"/>
      <point x="86" y="439"/>
      <point x="250" y="259"/>
    </contour>
  </outline>
</glyph>
<glyph name="question" format="1">
  <advance width="330"/>
  <unicode hex="003F"/>
  <outline>
    <contour>
      <point x="310" y="497" type="curve" smooth="yes"/>
      <point x="310" y="429"/>
      <point x="282" y="391"/>
      <point x="250" y="353" type="curve" smooth="yes"/>
      <point x="208" y="305"/>
      <point x="214" y="266"/>
      <point x="214" y="203" type="curve" smooth="yes"/>
      <point x="214" y="189"/>
      <point x="188" y="188"/>
      <point x="159" y="189" type="curve" smooth="yes"/>
      <point x="133" y="189"/>
      <point x="109" y="188"/>
      <point x="109" y="206" type="curve" smooth="yes"/>
      <point x="109" y="263"/>
      <point x="101" y="303"/>
      <point x="126" y="351" type="curve" smooth="yes"/>
      <point x="146" y="390"/>
      <point x="181" y="417"/>
      <point x="195" y="452" type="curve" smooth="yes"/>
      <point x="208" y="484"/>
      <point x="206" y="511"/>
      <point x="206" y="548" type="curve" smooth="yes"/>
      <point x="206" y="578"/>
      <point x="199" y="600"/>
      <point x="167" y="600" type="curve" smooth="yes"/>
      <point x="138" y="600"/>
      <point x="133" y="571"/>
      <point x="133" y="548" type="curve" smooth="yes"/>
      <point x="133" y="532"/>
      <point x="133" y="528"/>
      <point x="133" y="513" type="curve" smooth="yes"/>
      <point x="133" y="502"/>
      <point x="101" y="500"/>
      <point x="78" y="500" type="curve" smooth="yes"/>
      <point x="53" y="500"/>
      <point x="29" y="501"/>
      <point x="29" y="514" type="curve" smooth="yes"/>
      <point x="29" y="535"/>
      <point x="29" y="551"/>
      <point x="29" y="570" type="curve" smooth="yes"/>
      <point x="29" y="642"/>
      <point x="81" y="702"/>
      <point x="168" y="702" type="curve" smooth="yes"/>
      <point x="258" y="702"/>
      <point x="310" y="646"/>
      <point x="310" y="571" type="curve" smooth="yes"/>
      <point x="310" y="533"/>
      <point x="310" y="537"/>
    </contour>
    <contour>
      <point x="216" y="55" type="curve" smooth="yes"/>
      <point x="214" y="23"/>
      <point x="192" y="-2"/>
      <point x="161" y="-4" type="curve" smooth="yes"/>
      <point x="114" y="-7"/>
      <point x="106" y="22"/>
      <point x="103" y="52" type="curve" smooth="yes"/>
      <point x="99" y="88"/>
      <point x="126" y="127"/>
      <point x="161" y="121" type="curve"/>
      <point x="223" y="116"/>
      <point x="218" y="89"/>
    </contour>
  </outline>
</glyph>
<glyph name="at" format="1">
  <advance width="554"/>
  <unicode hex="0040"/>
  <outline>
    <contour>
      <point x="519" y="359" type="curve" smooth="yes"/>
      <point x="519" y="231"/>
      <point x="454" y="227"/>
      <point x="423" y="227" type="curve" smooth="yes"/>
      <point x="364" y="227"/>
      <point x="358" y="268"/>
      <point x="353" y="268" type="curve" smooth="yes"/>
      <point x="350" y="268"/>
      <point x="343" y="227"/>
      <point x="273" y="227" type="curve" smooth="yes"/>
      <point x="197" y="227"/>
      <point x="167" y="294"/>
      <point x="167" y="333" type="curve" smooth="yes"/>
      <point x="167" y="378"/>
      <point x="167" y="345"/>
      <point x="167" y="391" type="curve" smooth="yes"/>
      <point x="167" y="441"/>
      <point x="207" y="497"/>
      <point x="273" y="497" type="curve" smooth="yes"/>
      <point x="311" y="497"/>
      <point x="323" y="480"/>
      <point x="332" y="472" type="curve" smooth="yes"/>
      <point x="337" y="468"/>
      <point x="339" y="468"/>
      <point x="339" y="478" type="curve" smooth="yes"/>
      <point x="339" y="490"/>
      <point x="342" y="497"/>
      <point x="357" y="497" type="curve" smooth="yes"/>
      <point x="374" y="497"/>
      <point x="381" y="497"/>
      <point x="381" y="492" type="curve" smooth="yes"/>
      <point x="381" y="473"/>
      <point x="381" y="459"/>
      <point x="381" y="338" type="curve" smooth="yes"/>
      <point x="381" y="297"/>
      <point x="405" y="280"/>
      <point x="419" y="280" type="curve" smooth="yes"/>
      <point x="444" y="280"/>
      <point x="468" y="290"/>
      <point x="468" y="367" type="curve" smooth="yes"/>
      <point x="468" y="482"/>
      <point x="384" y="555"/>
      <point x="279" y="555" type="curve" smooth="yes"/>
      <point x="174" y="555"/>
      <point x="88" y="471"/>
      <point x="88" y="364" type="curve" smooth="yes"/>
      <point x="88" y="261"/>
      <point x="174" y="177"/>
      <point x="279" y="177" type="curve" smooth="yes"/>
      <point x="323" y="177"/>
      <point x="311" y="177"/>
      <point x="350" y="177" type="curve" smooth="yes"/>
      <point x="357" y="177"/>
      <point x="360" y="171"/>
      <point x="360" y="154" type="curve" smooth="yes"/>
      <point x="360" y="136"/>
      <point x="358" y="122"/>
      <point x="353" y="122" type="curve" smooth="yes"/>
      <point x="311" y="122"/>
      <point x="316" y="122"/>
      <point x="277" y="122" type="curve" smooth="yes"/>
      <point x="143" y="122"/>
      <point x="35" y="231"/>
      <point x="35" y="364" type="curve" smooth="yes"/>
      <point x="35" y="497"/>
      <point x="143" y="606"/>
      <point x="277" y="606" type="curve" smooth="yes"/>
      <point x="410" y="606"/>
      <point x="519" y="528"/>
    </contour>
    <contour>
      <point x="332" y="333" type="curve" smooth="yes"/>
      <point x="332" y="364"/>
      <point x="332" y="361"/>
      <point x="332" y="392" type="curve" smooth="yes"/>
      <point x="332" y="420"/>
      <point x="315" y="451"/>
      <point x="274" y="451" type="curve" smooth="yes"/>
      <point x="231" y="451"/>
      <point x="216" y="413"/>
      <point x="216" y="392" type="curve" smooth="yes"/>
      <point x="216" y="361"/>
      <point x="216" y="366"/>
      <point x="216" y="333" type="curve" smooth="yes"/>
      <point x="216" y="290"/>
      <point x="253" y="276"/>
      <point x="274" y="276" type="curve" smooth="yes"/>
      <point x="294" y="276"/>
      <point x="332" y="290"/>
    </contour>
  </outline>
</glyph>
<glyph name="A" format="1">
  <advance width="333"/>
  <unicode hex="0041"/>
  <outline>
    <contour>
      <point x="318" y="10" type="curve" smooth="yes"/>
      <point x="320" y="-1"/>
      <point x="290" y="0"/>
      <point x="263" y="0" type="curve" smooth="yes"/>
      <point x="234" y="0"/>
      <point x="215" y="-2"/>
      <point x="213" y="12" type="curve" smooth="yes"/>
      <point x="205" y="68"/>
      <point x="201" y="106"/>
      <point x="193" y="161" type="curve" smooth="yes"/>
      <point x="192" y="171"/>
      <point x="180" y="169"/>
      <point x="164" y="169" type="curve" smooth="yes"/>
      <point x="145" y="169"/>
      <point x="135" y="171"/>
      <point x="134" y="161" type="curve" smooth="yes"/>
      <point x="128" y="105"/>
      <point x="124" y="68"/>
      <point x="119" y="10" type="curve" smooth="yes"/>
      <point x="118" y="-1"/>
      <point x="96" y="0"/>
      <point x="64" y="0" type="curve" smooth="yes"/>
      <point x="49" y="0"/>
      <point x="14" y="0"/>
      <point x="15" y="9" type="curve" smooth="yes"/>
      <point x="52" y="270"/>
      <point x="78" y="445"/>
      <point x="111" y="686" type="curve" smooth="yes"/>
      <point x="113" y="700"/>
      <point x="141" y="701"/>
      <point x="163" y="701" type="curve" smooth="yes"/>
      <point x="188" y="701"/>
      <point x="214" y="700"/>
      <point x="217" y="683" type="curve" smooth="yes"/>
      <point x="255" y="427"/>
      <point x="278" y="271"/>
    </contour>
    <contour>
      <point x="185" y="251" type="curve" smooth="yes"/>
      <point x="180" y="325"/>
      <point x="177" y="367"/>
      <point x="172" y="446" type="curve" smooth="yes"/>
      <point x="172" y="451"/>
      <point x="170" y="473"/>
      <point x="163" y="473" type="curve" smooth="yes"/>
      <point x="158" y="473"/>
      <point x="156" y="448"/>
      <point x="156" y="444" type="curve" smooth="yes"/>
      <point x="151" y="366"/>
      <point x="148" y="316"/>
      <point x="143" y="252" type="curve" smooth="yes"/>
      <point x="143" y="245"/>
      <point x="148" y="244"/>
      <point x="163" y="244" type="curve" smooth="yes"/>
      <point x="176" y="244"/>
      <point x="186" y="242"/>
    </contour>
  </outline>
</glyph>
<glyph name="B" format="1">
  <advance width="364"/>
  <unicode hex="0042"/>
  <outline>
    <contour>
      <point x="331" y="152" type="curve" smooth="yes"/>
      <point x="331" y="115"/>
      <point x="323" y="80"/>
      <point x="290" y="45" type="curve" smooth="yes"/>
      <point x="258" y="11"/>
      <point x="212" y="0"/>
      <point x="173" y="0" type="curve" smooth="yes"/>
      <point x="143" y="0"/>
      <point x="100" y="-1"/>
      <point x="76" y="0" type="curve" smooth="yes"/>
      <point x="62" y="1"/>
      <point x="49" y="-1"/>
      <point x="46" y="5" type="curve"/>
      <point x="41" y="12"/>
      <point x="40" y="14"/>
      <point x="40" y="35" type="curve" smooth="yes"/>
      <point x="40" y="227"/>
      <point x="40" y="476"/>
      <point x="40" y="669" type="curve" smooth="yes"/>
      <point x="40" y="682"/>
      <point x="40" y="690"/>
      <point x="46" y="695" type="curve"/>
      <point x="52" y="701"/>
      <point x="59" y="700"/>
      <point x="70" y="700" type="curve" smooth="yes"/>
      <point x="93" y="700"/>
      <point x="142" y="700"/>
      <point x="169" y="700" type="curve" smooth="yes"/>
      <point x="213" y="700"/>
      <point x="258" y="687"/>
      <point x="288" y="658" type="curve" smooth="yes"/>
      <point x="316" y="630"/>
      <point x="327" y="590"/>
      <point x="327" y="549" type="curve" smooth="yes"/>
      <point x="327" y="511"/>
      <point x="327" y="501"/>
      <point x="327" y="464" type="curve" smooth="yes"/>
      <point x="327" y="433"/>
      <point x="321" y="414"/>
      <point x="308" y="396" type="curve" smooth="yes"/>
      <point x="290" y="373"/>
      <point x="262" y="368"/>
      <point x="262" y="364" type="curve" smooth="yes"/>
      <point x="262" y="361"/>
      <point x="295" y="358"/>
      <point x="315" y="330" type="curve" smooth="yes"/>
      <point x="327" y="312"/>
      <point x="331" y="295"/>
      <point x="331" y="268" type="curve" smooth="yes"/>
      <point x="331" y="195"/>
      <point x="331" y="197"/>
    </contour>
    <contour>
      <point x="220" y="460" type="curve" smooth="yes"/>
      <point x="220" y="490"/>
      <point x="220" y="505"/>
      <point x="220" y="528" type="curve" smooth="yes"/>
      <point x="220" y="549"/>
      <point x="219" y="568"/>
      <point x="206" y="583" type="curve" smooth="yes"/>
      <point x="199" y="591"/>
      <point x="192" y="595"/>
      <point x="174" y="595" type="curve" smooth="yes"/>
      <point x="162" y="595"/>
      <point x="154" y="595"/>
      <point x="151" y="591" type="curve" smooth="yes"/>
      <point x="148" y="587"/>
      <point x="147" y="583"/>
      <point x="147" y="577" type="curve" smooth="yes"/>
      <point x="147" y="533"/>
      <point x="147" y="471"/>
      <point x="147" y="428" type="curve" smooth="yes"/>
      <point x="147" y="419"/>
      <point x="147" y="413"/>
      <point x="152" y="409" type="curve" smooth="yes"/>
      <point x="157" y="405"/>
      <point x="162" y="406"/>
      <point x="170" y="406" type="curve" smooth="yes"/>
      <point x="181" y="406"/>
      <point x="195" y="409"/>
      <point x="206" y="421" type="curve" smooth="yes"/>
      <point x="219" y="435"/>
      <point x="220" y="449"/>
    </contour>
    <contour>
      <point x="224" y="163" type="curve" smooth="yes"/>
      <point x="224" y="192"/>
      <point x="224" y="219"/>
      <point x="224" y="247" type="curve" smooth="yes"/>
      <point x="224" y="284"/>
      <point x="212" y="310"/>
      <point x="183" y="310" type="curve" smooth="yes"/>
      <point x="151" y="310"/>
      <point x="147" y="309"/>
      <point x="147" y="291" type="curve" smooth="yes"/>
      <point x="147" y="251"/>
      <point x="147" y="177"/>
      <point x="147" y="127" type="curve" smooth="yes"/>
      <point x="147" y="118"/>
      <point x="147" y="107"/>
      <point x="154" y="106" type="curve" smooth="yes"/>
      <point x="159" y="105"/>
      <point x="163" y="105"/>
      <point x="174" y="105" type="curve" smooth="yes"/>
      <point x="183" y="105"/>
      <point x="199" y="107"/>
      <point x="210" y="119" type="curve" smooth="yes"/>
      <point x="223" y="132"/>
      <point x="224" y="145"/>
    </contour>
  </outline>
</glyph>
<glyph name="C" format="1">
  <advance width="339"/>
  <unicode hex="0043"/>
  <outline>
    <contour>
      <point x="319" y="140" type="curve" smooth="yes"/>
      <point x="319" y="57"/>
      <point x="271" y="0"/>
      <point x="178" y="0" type="curve" smooth="yes"/>
      <point x="88" y="0"/>
      <point x="33" y="64"/>
      <point x="33" y="140" type="curve" smooth="yes"/>
      <point x="33" y="290"/>
      <point x="33" y="409"/>
      <point x="33" y="559" type="curve" smooth="yes"/>
      <point x="33" y="636"/>
      <point x="88" y="700"/>
      <point x="178" y="700" type="curve" smooth="yes"/>
      <point x="272" y="700"/>
      <point x="319" y="632"/>
      <point x="319" y="559" type="curve" smooth="yes"/>
      <point x="319" y="547"/>
      <point x="319" y="516"/>
      <point x="319" y="505" type="curve" smooth="yes"/>
      <point x="319" y="495"/>
      <point x="311" y="492"/>
      <point x="265" y="492" type="curve" smooth="yes"/>
      <point x="232" y="492"/>
      <point x="215" y="490"/>
      <point x="215" y="503" type="curve" smooth="yes"/>
      <point x="215" y="517"/>
      <point x="215" y="545"/>
      <point x="215" y="555" type="curve" smooth="yes"/>
      <point x="215" y="569"/>
      <point x="204" y="597"/>
      <point x="178" y="597" type="curve" smooth="yes"/>
      <point x="147" y="597"/>
      <point x="140" y="566"/>
      <point x="140" y="540" type="curve" smooth="yes"/>
      <point x="140" y="412"/>
      <point x="140" y="292"/>
      <point x="140" y="163" type="curve" smooth="yes"/>
      <point x="140" y="135"/>
      <point x="147" y="106"/>
      <point x="178" y="106" type="curve" smooth="yes"/>
      <point x="207" y="106"/>
      <point x="215" y="130"/>
      <point x="215" y="146" type="curve" smooth="yes"/>
      <point x="215" y="160"/>
      <point x="215" y="175"/>
      <point x="215" y="198" type="curve" smooth="yes"/>
      <point x="215" y="212"/>
      <point x="224" y="211"/>
      <point x="268" y="211" type="curve" smooth="yes"/>
      <point x="310" y="211"/>
      <point x="319" y="210"/>
      <point x="319" y="192" type="curve" smooth="yes"/>
      <point x="319" y="177"/>
      <point x="319" y="153"/>
    </contour>
  </outline>
</glyph>
<glyph name="D" format="1">
  <advance width="364"/>
  <unicode hex="0044"/>
  <outline>
    <contour>
      <point x="331" y="152" type="curve" smooth="yes"/>
      <point x="331" y="115"/>
      <point x="322" y="78"/>
      <point x="288" y="43" type="curve" smooth="yes"/>
      <point x="256" y="10"/>
      <point x="210" y="0"/>
      <point x="173" y="0" type="curve" smooth="yes"/>
      <point x="140" y="0"/>
      <point x="95" y="0"/>
      <point x="69" y="0" type="curve" smooth="yes"/>
      <point x="56" y="0"/>
      <point x="48" y="-1"/>
      <point x="44" y="7" type="curve"/>
      <point x="40" y="12"/>
      <point x="40" y="21"/>
      <point x="40" y="31" type="curve" smooth="yes"/>
      <point x="40" y="229"/>
      <point x="40" y="475"/>
      <point x="40" y="669" type="curve" smooth="yes"/>
      <point x="40" y="680"/>
      <point x="40" y="689"/>
      <point x="44" y="694" type="curve" smooth="yes"/>
      <point x="50" y="701"/>
      <point x="57" y="700"/>
      <point x="70" y="700" type="curve" smooth="yes"/>
      <point x="94" y="700"/>
      <point x="145" y="700"/>
      <point x="172" y="700" type="curve" smooth="yes"/>
      <point x="215" y="700"/>
      <point x="259" y="688"/>
      <point x="290" y="659" type="curve" smooth="yes"/>
      <point x="319" y="632"/>
      <point x="331" y="592"/>
      <point x="331" y="549" type="curve" smooth="yes"/>
      <point x="331" y="397"/>
      <point x="331" y="304"/>
    </contour>
    <contour>
      <point x="223" y="172" type="curve" smooth="yes"/>
      <point x="223" y="306"/>
      <point x="223" y="394"/>
      <point x="223" y="528" type="curve" smooth="yes"/>
      <point x="223" y="549"/>
      <point x="222" y="568"/>
      <point x="210" y="583" type="curve"/>
      <point x="202" y="591"/>
      <point x="195" y="595"/>
      <point x="177" y="595" type="curve" smooth="yes"/>
      <point x="161" y="595"/>
      <point x="153" y="595"/>
      <point x="150" y="591" type="curve" smooth="yes"/>
      <point x="147" y="587"/>
      <point x="147" y="583"/>
      <point x="147" y="577" type="curve" smooth="yes"/>
      <point x="147" y="421"/>
      <point x="147" y="280"/>
      <point x="147" y="127" type="curve" smooth="yes"/>
      <point x="147" y="118"/>
      <point x="147" y="111"/>
      <point x="151" y="107" type="curve" smooth="yes"/>
      <point x="154" y="104"/>
      <point x="165" y="105"/>
      <point x="174" y="105" type="curve" smooth="yes"/>
      <point x="186" y="105"/>
      <point x="201" y="109"/>
      <point x="212" y="123" type="curve" smooth="yes"/>
      <point x="224" y="140"/>
      <point x="223" y="157"/>
    </contour>
  </outline>
</glyph>
<glyph name="E" format="1">
  <advance width="310"/>
  <unicode hex="0045"/>
  <outline>
    <contour>
      <point x="290" y="50" type="curve" smooth="yes"/>
      <point x="290" y="4"/>
      <point x="289" y="0"/>
      <point x="278" y="0" type="curve" smooth="yes"/>
      <point x="235" y="0"/>
      <point x="129" y="0"/>
      <point x="86" y="0" type="curve" smooth="yes"/>
      <point x="70" y="0"/>
      <point x="53" y="-2"/>
      <point x="46" y="4" type="curve" smooth="yes"/>
      <point x="38" y="11"/>
      <point x="40" y="26"/>
      <point x="40" y="38" type="curve" smooth="yes"/>
      <point x="40" y="278"/>
      <point x="40" y="430"/>
      <point x="40" y="670" type="curve" smooth="yes"/>
      <point x="40" y="683"/>
      <point x="41" y="684"/>
      <point x="47" y="692" type="curve" smooth="yes"/>
      <point x="53" y="700"/>
      <point x="60" y="700"/>
      <point x="70" y="700" type="curve" smooth="yes"/>
      <point x="125" y="700"/>
      <point x="222" y="700"/>
      <point x="277" y="700" type="curve" smooth="yes"/>
      <point x="289" y="700"/>
      <point x="289" y="692"/>
      <point x="289" y="653" type="curve" smooth="yes"/>
      <point x="289" y="608"/>
      <point x="289" y="602"/>
      <point x="276" y="602" type="curve" smooth="yes"/>
      <point x="249" y="602"/>
      <point x="195" y="602"/>
      <point x="176" y="602" type="curve" smooth="yes"/>
      <point x="168" y="602"/>
      <point x="156" y="601"/>
      <point x="153" y="597" type="curve" smooth="yes"/>
      <point x="148" y="590"/>
      <point x="148" y="591"/>
      <point x="148" y="578" type="curve" smooth="yes"/>
      <point x="148" y="511"/>
      <point x="148" y="513"/>
      <point x="148" y="446" type="curve" smooth="yes"/>
      <point x="148" y="437"/>
      <point x="146" y="426"/>
      <point x="154" y="420" type="curve" smooth="yes"/>
      <point x="161" y="415"/>
      <point x="168" y="416"/>
      <point x="176" y="416" type="curve" smooth="yes"/>
      <point x="193" y="416"/>
      <point x="215" y="416"/>
      <point x="224" y="416" type="curve" smooth="yes"/>
      <point x="236" y="416"/>
      <point x="237" y="410"/>
      <point x="237" y="366" type="curve" smooth="yes"/>
      <point x="237" y="324"/>
      <point x="237" y="318"/>
      <point x="224" y="318" type="curve" smooth="yes"/>
      <point x="216" y="318"/>
      <point x="197" y="318"/>
      <point x="179" y="318" type="curve" smooth="yes"/>
      <point x="169" y="318"/>
      <point x="158" y="317"/>
      <point x="154" y="315" type="curve"/>
      <point x="145" y="309"/>
      <point x="147" y="299"/>
      <point x="147" y="286" type="curve" smooth="yes"/>
      <point x="147" y="206"/>
      <point x="147" y="217"/>
      <point x="147" y="137" type="curve" smooth="yes"/>
      <point x="147" y="124"/>
      <point x="147" y="105"/>
      <point x="152" y="102" type="curve" smooth="yes"/>
      <point x="157" y="99"/>
      <point x="171" y="98"/>
      <point x="182" y="98" type="curve" smooth="yes"/>
      <point x="209" y="98"/>
      <point x="250" y="98"/>
      <point x="277" y="98" type="curve" smooth="yes"/>
      <point x="289" y="98"/>
      <point x="290" y="94"/>
    </contour>
  </outline>
</glyph>
<glyph name="F" format="1">
  <advance width="294"/>
  <unicode hex="0046"/>
  <outline>
    <contour>
      <point x="289" y="653" type="curve" smooth="yes"/>
      <point x="289" y="607"/>
      <point x="288" y="602"/>
      <point x="273" y="602" type="curve" smooth="yes"/>
      <point x="250" y="602"/>
      <point x="196" y="602"/>
      <point x="176" y="602" type="curve" smooth="yes"/>
      <point x="168" y="602"/>
      <point x="158" y="601"/>
      <point x="154" y="598" type="curve"/>
      <point x="147" y="591"/>
      <point x="148" y="583"/>
      <point x="148" y="570" type="curve" smooth="yes"/>
      <point x="148" y="500"/>
      <point x="148" y="502"/>
      <point x="148" y="432" type="curve" smooth="yes"/>
      <point x="148" y="423"/>
      <point x="147" y="412"/>
      <point x="154" y="406" type="curve" smooth="yes"/>
      <point x="160" y="401"/>
      <point x="168" y="402"/>
      <point x="176" y="402" type="curve" smooth="yes"/>
      <point x="193" y="401"/>
      <point x="223" y="401"/>
      <point x="232" y="401" type="curve" smooth="yes"/>
      <point x="246" y="401"/>
      <point x="247" y="396"/>
      <point x="247" y="352" type="curve" smooth="yes"/>
      <point x="247" y="309"/>
      <point x="247" y="304"/>
      <point x="232" y="304" type="curve" smooth="yes"/>
      <point x="224" y="304"/>
      <point x="196" y="305"/>
      <point x="179" y="304" type="curve" smooth="yes"/>
      <point x="169" y="304"/>
      <point x="158" y="304"/>
      <point x="154" y="301" type="curve" smooth="yes"/>
      <point x="145" y="295"/>
      <point x="147" y="282"/>
      <point x="147" y="269" type="curve" smooth="yes"/>
      <point x="147" y="181"/>
      <point x="147" y="121"/>
      <point x="147" y="17" type="curve" smooth="yes"/>
      <point x="147" y="0"/>
      <point x="139" y="1"/>
      <point x="88" y="1" type="curve" smooth="yes"/>
      <point x="46" y="1"/>
      <point x="40" y="0"/>
      <point x="40" y="16" type="curve" smooth="yes"/>
      <point x="40" y="256"/>
      <point x="40" y="429"/>
      <point x="40" y="669" type="curve" smooth="yes"/>
      <point x="40" y="682"/>
      <point x="40" y="685"/>
      <point x="46" y="692" type="curve" smooth="yes"/>
      <point x="52" y="700"/>
      <point x="57" y="700"/>
      <point x="67" y="700" type="curve" smooth="yes"/>
      <point x="121" y="700"/>
      <point x="222" y="700"/>
      <point x="277" y="700" type="curve" smooth="yes"/>
      <point x="289" y="700"/>
      <point x="289" y="693"/>
    </contour>
  </outline>
</glyph>
<glyph name="G" format="1">
  <advance width="357"/>
  <unicode hex="0047"/>
  <outline>
    <contour>
      <point x="324" y="20" type="curve" smooth="yes"/>
      <point x="324" y="15"/>
      <point x="324" y="4"/>
      <point x="316" y="1" type="curve"/>
      <point x="310" y="-2"/>
      <point x="302" y="1"/>
      <point x="295" y="1" type="curve" smooth="yes"/>
      <point x="285" y="1"/>
      <point x="277" y="37"/>
      <point x="267" y="42" type="curve"/>
      <point x="256" y="45"/>
      <point x="247" y="0"/>
      <point x="178" y="0" type="curve" smooth="yes"/>
      <point x="85" y="0"/>
      <point x="33" y="68"/>
      <point x="33" y="140" type="curve" smooth="yes"/>
      <point x="33" y="214"/>
      <point x="33" y="484"/>
      <point x="33" y="559" type="curve" smooth="yes"/>
      <point x="33" y="628"/>
      <point x="83" y="700"/>
      <point x="178" y="700" type="curve" smooth="yes"/>
      <point x="275" y="700"/>
      <point x="324" y="628"/>
      <point x="324" y="559" type="curve" smooth="yes"/>
      <point x="324" y="547"/>
      <point x="324" y="515"/>
      <point x="324" y="505" type="curve" smooth="yes"/>
      <point x="324" y="496"/>
      <point x="315" y="492"/>
      <point x="264" y="492" type="curve" smooth="yes"/>
      <point x="229" y="492"/>
      <point x="216" y="491"/>
      <point x="216" y="502" type="curve" smooth="yes"/>
      <point x="216" y="516"/>
      <point x="215" y="545"/>
      <point x="215" y="555" type="curve" smooth="yes"/>
      <point x="215" y="569"/>
      <point x="205" y="597"/>
      <point x="178" y="597" type="curve" smooth="yes"/>
      <point x="148" y="597"/>
      <point x="140" y="565"/>
      <point x="140" y="540" type="curve" smooth="yes"/>
      <point x="140" y="412"/>
      <point x="140" y="228"/>
      <point x="140" y="163" type="curve" smooth="yes"/>
      <point x="140" y="137"/>
      <point x="143" y="106"/>
      <point x="178" y="106" type="curve" smooth="yes"/>
      <point x="210" y="106"/>
      <point x="215" y="133"/>
      <point x="215" y="146" type="curve" smooth="yes"/>
      <point x="215" y="176"/>
      <point x="215" y="231"/>
      <point x="215" y="277" type="curve" smooth="yes"/>
      <point x="215" y="286"/>
      <point x="212" y="289"/>
      <point x="206" y="291" type="curve" smooth="yes"/>
      <point x="196" y="294"/>
      <point x="184" y="294"/>
      <point x="179" y="297" type="curve"/>
      <point x="175" y="301"/>
      <point x="175" y="311"/>
      <point x="175" y="327" type="curve" smooth="yes"/>
      <point x="175" y="344"/>
      <point x="175" y="355"/>
      <point x="179" y="357" type="curve"/>
      <point x="192" y="366"/>
      <point x="236" y="367"/>
      <point x="276" y="366" type="curve" smooth="yes"/>
      <point x="316" y="365"/>
      <point x="324" y="359"/>
      <point x="324" y="345" type="curve" smooth="yes"/>
      <point x="324" y="275"/>
      <point x="324" y="87"/>
    </contour>
  </outline>
</glyph>
<glyph name="H" format="1">
  <advance width="371"/>
  <unicode hex="0048"/>
  <outline>
    <contour>
      <point x="331" y="21" type="curve" smooth="yes"/>
      <point x="331" y="2"/>
      <point x="331" y="1"/>
      <point x="278" y="1" type="curve" smooth="yes"/>
      <point x="225" y="1"/>
      <point x="223" y="2"/>
      <point x="223" y="21" type="curve" smooth="yes"/>
      <point x="223" y="116"/>
      <point x="223" y="191"/>
      <point x="223" y="286" type="curve" smooth="yes"/>
      <point x="223" y="298"/>
      <point x="223" y="308"/>
      <point x="214" y="309" type="curve"/>
      <point x="202" y="312"/>
      <point x="158" y="310"/>
      <point x="154" y="309" type="curve"/>
      <point x="146" y="306"/>
      <point x="146" y="297"/>
      <point x="146" y="284" type="curve" smooth="yes"/>
      <point x="146" y="187"/>
      <point x="146" y="114"/>
      <point x="146" y="17" type="curve" smooth="yes"/>
      <point x="146" y="1"/>
      <point x="143" y="1"/>
      <point x="91" y="1" type="curve" smooth="yes"/>
      <point x="42" y="1"/>
      <point x="40" y="1"/>
      <point x="40" y="15" type="curve" smooth="yes"/>
      <point x="40" y="266"/>
      <point x="40" y="441"/>
      <point x="40" y="681" type="curve" smooth="yes"/>
      <point x="40" y="696"/>
      <point x="43" y="699"/>
      <point x="91" y="699" type="curve" smooth="yes"/>
      <point x="144" y="699"/>
      <point x="147" y="696"/>
      <point x="147" y="680" type="curve" smooth="yes"/>
      <point x="147" y="598"/>
      <point x="147" y="527"/>
      <point x="147" y="446" type="curve" smooth="yes"/>
      <point x="147" y="429"/>
      <point x="147" y="418"/>
      <point x="160" y="414" type="curve"/>
      <point x="169" y="413"/>
      <point x="204" y="411"/>
      <point x="215" y="414" type="curve"/>
      <point x="223" y="417"/>
      <point x="223" y="428"/>
      <point x="223" y="443" type="curve" smooth="yes"/>
      <point x="223" y="527"/>
      <point x="223" y="612"/>
      <point x="223" y="684" type="curve" smooth="yes"/>
      <point x="223" y="701"/>
      <point x="229" y="699"/>
      <point x="277" y="699" type="curve" smooth="yes"/>
      <point x="328" y="699"/>
      <point x="331" y="699"/>
      <point x="331" y="683" type="curve" smooth="yes"/>
      <point x="331" y="446"/>
      <point x="331" y="268"/>
    </contour>
  </outline>
</glyph>
<glyph name="I" format="1">
  <advance width="187"/>
  <unicode hex="0049"/>
  <outline>
    <contour>
      <point x="147" y="17" type="curve" smooth="yes"/>
      <point x="147" y="2"/>
      <point x="146" y="1"/>
      <point x="91" y="1" type="curve" smooth="yes"/>
      <point x="42" y="1"/>
      <point x="40" y="1"/>
      <point x="40" y="15" type="curve" smooth="yes"/>
      <point x="40" y="266"/>
      <point x="40" y="443"/>
      <point x="40" y="683" type="curve" smooth="yes"/>
      <point x="40" y="698"/>
      <point x="44" y="699"/>
      <point x="91" y="699" type="curve" smooth="yes"/>
      <point x="144" y="699"/>
      <point x="147" y="698"/>
      <point x="147" y="682" type="curve" smooth="yes"/>
      <point x="147" y="521"/>
      <point x="147" y="271"/>
    </contour>
  </outline>
</glyph>
<glyph name="J" format="1">
  <advance width="329"/>
  <unicode hex="004A"/>
  <outline>
    <contour>
      <point x="289" y="140" type="curve" smooth="yes"/>
      <point x="289" y="57"/>
      <point x="245" y="0"/>
      <point x="152" y="0" type="curve" smooth="yes"/>
      <point x="61" y="0"/>
      <point x="15" y="66"/>
      <point x="15" y="139" type="curve" smooth="yes"/>
      <point x="15" y="164"/>
      <point x="15" y="174"/>
      <point x="15" y="192" type="curve" smooth="yes"/>
      <point x="15" y="212"/>
      <point x="21" y="211"/>
      <point x="64" y="211" type="curve" smooth="yes"/>
      <point x="108" y="211"/>
      <point x="116" y="210"/>
      <point x="116" y="192" type="curve" smooth="yes"/>
      <point x="116" y="178"/>
      <point x="116" y="161"/>
      <point x="117" y="148" type="curve" smooth="yes"/>
      <point x="119" y="127"/>
      <point x="124" y="106"/>
      <point x="152" y="106" type="curve" smooth="yes"/>
      <point x="186" y="106"/>
      <point x="189" y="135"/>
      <point x="189" y="162" type="curve" smooth="yes"/>
      <point x="188" y="306"/>
      <point x="189" y="515"/>
      <point x="189" y="678" type="curve" smooth="yes"/>
      <point x="189" y="697"/>
      <point x="195" y="699"/>
      <point x="236" y="699" type="curve" smooth="yes"/>
      <point x="286" y="699"/>
      <point x="289" y="699"/>
      <point x="289" y="679" type="curve" smooth="yes"/>
      <point x="289" y="499"/>
      <point x="289" y="302"/>
    </contour>
  </outline>
</glyph>
<glyph name="K" format="1">
  <advance width="372"/>
  <unicode hex="004B"/>
  <outline>
    <contour>
      <point x="357" y="12" type="curve"/>
      <point x="358" y="6"/>
      <point x="357" y="0"/>
      <point x="304" y="0" type="curve" smooth="yes"/>
      <point x="259" y="0"/>
      <point x="250" y="-2"/>
      <point x="246" y="14" type="curve" smooth="yes"/>
      <point x="219" y="122"/>
      <point x="202" y="188"/>
      <point x="176" y="296" type="curve" smooth="yes"/>
      <point x="174" y="305"/>
      <point x="167" y="307"/>
      <point x="155" y="280" type="curve" smooth="yes"/>
      <point x="149" y="266"/>
      <point x="147" y="253"/>
      <point x="147" y="238" type="curve" smooth="yes"/>
      <point x="147" y="162"/>
      <point x="147" y="94"/>
      <point x="147" y="18" type="curve" smooth="yes"/>
      <point x="147" y="2"/>
      <point x="122" y="0"/>
      <point x="93" y="0" type="curve" smooth="yes"/>
      <point x="67" y="0"/>
      <point x="40" y="2"/>
      <point x="40" y="16" type="curve" smooth="yes"/>
      <point x="40" y="267"/>
      <point x="40" y="445"/>
      <point x="40" y="685" type="curve" smooth="yes"/>
      <point x="40" y="698"/>
      <point x="70" y="699"/>
      <point x="92" y="699" type="curve" smooth="yes"/>
      <point x="115" y="699"/>
      <point x="147" y="699"/>
      <point x="147" y="684" type="curve" smooth="yes"/>
      <point x="147" y="602"/>
      <point x="147" y="522"/>
      <point x="147" y="442" type="curve" smooth="yes"/>
      <point x="147" y="435"/>
      <point x="146" y="420"/>
      <point x="152" y="422" type="curve" smooth="yes"/>
      <point x="155" y="423"/>
      <point x="157" y="434"/>
      <point x="159" y="441" type="curve" smooth="yes"/>
      <point x="187" y="537"/>
      <point x="200" y="589"/>
      <point x="228" y="686" type="curve" smooth="yes"/>
      <point x="231" y="697"/>
      <point x="237" y="696"/>
      <point x="284" y="696" type="curve" smooth="yes"/>
      <point x="333" y="696"/>
      <point x="342" y="692"/>
      <point x="340" y="686" type="curve" smooth="yes"/>
      <point x="306" y="579"/>
      <point x="293" y="537"/>
      <point x="258" y="435" type="curve" smooth="yes"/>
      <point x="254" y="424"/>
      <point x="251" y="412"/>
      <point x="251" y="402" type="curve" smooth="yes"/>
      <point x="251" y="393"/>
      <point x="253" y="385"/>
      <point x="258" y="366" type="curve" smooth="yes"/>
      <point x="297" y="230"/>
      <point x="316" y="160"/>
    </contour>
  </outline>
</glyph>
<glyph name="L" format="1">
  <advance width="298"/>
  <unicode hex="004C"/>
  <outline>
    <contour>
      <point x="283" y="51" type="curve" smooth="yes"/>
      <point x="283" y="3"/>
      <point x="282" y="0"/>
      <point x="270" y="0" type="curve" smooth="yes"/>
      <point x="222" y="0"/>
      <point x="106" y="0"/>
      <point x="78" y="0" type="curve" smooth="yes"/>
      <point x="64" y="0"/>
      <point x="50" y="0"/>
      <point x="45" y="6" type="curve" smooth="yes"/>
      <point x="39" y="13"/>
      <point x="40" y="28"/>
      <point x="40" y="41" type="curve" smooth="yes"/>
      <point x="40" y="281"/>
      <point x="40" y="444"/>
      <point x="40" y="684" type="curve" smooth="yes"/>
      <point x="40" y="698"/>
      <point x="45" y="700"/>
      <point x="90" y="700" type="curve" smooth="yes"/>
      <point x="141" y="700"/>
      <point x="147" y="699"/>
      <point x="147" y="683" type="curve" smooth="yes"/>
      <point x="147" y="469"/>
      <point x="147" y="286"/>
      <point x="147" y="137" type="curve" smooth="yes"/>
      <point x="147" y="124"/>
      <point x="146" y="107"/>
      <point x="153" y="102" type="curve" smooth="yes"/>
      <point x="158" y="99"/>
      <point x="170" y="98"/>
      <point x="180" y="98" type="curve" smooth="yes"/>
      <point x="202" y="98"/>
      <point x="247" y="98"/>
      <point x="269" y="98" type="curve" smooth="yes"/>
      <point x="282" y="98"/>
      <point x="283" y="93"/>
    </contour>
  </outline>
</glyph>
<glyph name="M" format="1">
  <advance width="437"/>
  <unicode hex="004D"/>
  <outline>
    <contour>
      <point x="397" y="18" type="curve" smooth="yes"/>
      <point x="397" y="2"/>
      <point x="398" y="0"/>
      <point x="344" y="0" type="curve" smooth="yes"/>
      <point x="295" y="0"/>
      <point x="292" y="2"/>
      <point x="292" y="17" type="curve" smooth="yes"/>
      <point x="292" y="157"/>
      <point x="292" y="338"/>
      <point x="289" y="417" type="curve"/>
      <point x="285" y="426"/>
      <point x="276" y="423"/>
      <point x="274" y="413" type="curve" smooth="yes"/>
      <point x="262" y="357"/>
      <point x="250" y="311"/>
      <point x="240" y="277" type="curve"/>
      <point x="238" y="267"/>
      <point x="234" y="262"/>
      <point x="218" y="262" type="curve" smooth="yes"/>
      <point x="202" y="262"/>
      <point x="199" y="267"/>
      <point x="196" y="276" type="curve" smooth="yes"/>
      <point x="188" y="307"/>
      <point x="176" y="356"/>
      <point x="164" y="411" type="curve" smooth="yes"/>
      <point x="162" y="421"/>
      <point x="150" y="424"/>
      <point x="146" y="416" type="curve"/>
      <point x="143" y="336"/>
      <point x="143" y="158"/>
      <point x="143" y="18" type="curve" smooth="yes"/>
      <point x="143" y="2"/>
      <point x="140" y="0"/>
      <point x="88" y="0" type="curve" smooth="yes"/>
      <point x="39" y="0"/>
      <point x="40" y="2"/>
      <point x="40" y="17" type="curve" smooth="yes"/>
      <point x="40" y="267"/>
      <point x="40" y="445"/>
      <point x="40" y="683" type="curve" smooth="yes"/>
      <point x="40" y="700"/>
      <point x="47" y="699"/>
      <point x="86" y="699" type="curve" smooth="yes"/>
      <point x="129" y="699"/>
      <point x="136" y="694"/>
      <point x="146" y="662" type="curve" smooth="yes"/>
      <point x="161" y="611"/>
      <point x="176" y="566"/>
      <point x="190" y="519" type="curve" smooth="yes"/>
      <point x="200" y="484"/>
      <point x="211" y="453"/>
      <point x="218" y="453" type="curve" smooth="yes"/>
      <point x="225" y="453"/>
      <point x="235" y="482"/>
      <point x="246" y="519" type="curve" smooth="yes"/>
      <point x="262" y="571"/>
      <point x="274" y="610"/>
      <point x="290" y="662" type="curve" smooth="yes"/>
      <point x="299" y="694"/>
      <point x="306" y="700"/>
      <point x="345" y="700" type="curve" smooth="yes"/>
      <point x="388" y="700"/>
      <point x="397" y="699"/>
      <point x="397" y="683" type="curve" smooth="yes"/>
      <point x="397" y="523"/>
      <point x="397" y="272"/>
    </contour>
  </outline>
</glyph>
<glyph name="N" format="1">
  <advance width="387"/>
  <unicode hex="004E"/>
  <outline>
    <contour>
      <point x="347" y="29" type="curve" smooth="yes"/>
      <point x="347" y="3"/>
      <point x="348" y="0"/>
      <point x="297" y="0" type="curve" smooth="yes"/>
      <point x="271" y="0"/>
      <point x="260" y="2"/>
      <point x="253" y="27" type="curve" smooth="yes"/>
      <point x="220" y="143"/>
      <point x="208" y="196"/>
      <point x="173" y="322" type="curve" smooth="yes"/>
      <point x="167" y="344"/>
      <point x="159" y="381"/>
      <point x="152" y="381" type="curve" smooth="yes"/>
      <point x="145" y="381"/>
      <point x="145" y="360"/>
      <point x="145" y="347" type="curve" smooth="yes"/>
      <point x="145" y="217"/>
      <point x="145" y="155"/>
      <point x="145" y="18" type="curve" smooth="yes"/>
      <point x="145" y="2"/>
      <point x="142" y="0"/>
      <point x="90" y="0" type="curve" smooth="yes"/>
      <point x="40" y="0"/>
      <point x="40" y="2"/>
      <point x="40" y="17" type="curve" smooth="yes"/>
      <point x="40" y="267"/>
      <point x="40" y="447"/>
      <point x="40" y="686" type="curve" smooth="yes"/>
      <point x="40" y="700"/>
      <point x="42" y="700"/>
      <point x="86" y="700" type="curve" smooth="yes"/>
      <point x="129" y="700"/>
      <point x="135" y="696"/>
      <point x="142" y="668" type="curve" smooth="yes"/>
      <point x="164" y="586"/>
      <point x="193" y="479"/>
      <point x="223" y="373" type="curve" smooth="yes"/>
      <point x="226" y="363"/>
      <point x="229" y="347"/>
      <point x="235" y="347" type="curve" smooth="yes"/>
      <point x="242" y="347"/>
      <point x="242" y="366"/>
      <point x="242" y="377" type="curve" smooth="yes"/>
      <point x="242" y="483"/>
      <point x="242" y="567"/>
      <point x="242" y="682" type="curve" smooth="yes"/>
      <point x="242" y="698"/>
      <point x="245" y="700"/>
      <point x="295" y="700" type="curve" smooth="yes"/>
      <point x="346" y="700"/>
      <point x="347" y="699"/>
      <point x="347" y="683" type="curve" smooth="yes"/>
      <point x="347" y="521"/>
      <point x="347" y="279"/>
    </contour>
  </outline>
</glyph>
<glyph name="O" format="1">
  <advance width="357"/>
  <unicode hex="004F"/>
  <outline>
    <contour>
      <point x="324" y="144" type="curve" smooth="yes"/>
      <point x="324" y="60"/>
      <point x="275" y="0"/>
      <point x="178" y="0" type="curve" smooth="yes"/>
      <point x="86" y="0"/>
      <point x="33" y="62"/>
      <point x="33" y="144" type="curve" smooth="yes"/>
      <point x="33" y="294"/>
      <point x="33" y="408"/>
      <point x="33" y="557" type="curve" smooth="yes"/>
      <point x="33" y="644"/>
      <point x="95" y="700"/>
      <point x="178" y="700" type="curve" smooth="yes"/>
      <point x="264" y="700"/>
      <point x="324" y="644"/>
      <point x="324" y="557" type="curve" smooth="yes"/>
      <point x="324" y="410"/>
      <point x="324" y="293"/>
    </contour>
    <contour>
      <point x="216" y="166" type="curve" smooth="yes"/>
      <point x="216" y="296"/>
      <point x="216" y="408"/>
      <point x="216" y="537" type="curve" smooth="yes"/>
      <point x="216" y="565"/>
      <point x="207" y="597"/>
      <point x="178" y="597" type="curve" smooth="yes"/>
      <point x="148" y="597"/>
      <point x="140" y="565"/>
      <point x="140" y="537" type="curve" smooth="yes"/>
      <point x="140" y="408"/>
      <point x="140" y="296"/>
      <point x="140" y="166" type="curve" smooth="yes"/>
      <point x="140" y="138"/>
      <point x="141" y="106"/>
      <point x="178" y="106" type="curve" smooth="yes"/>
      <point x="213" y="106"/>
      <point x="216" y="138"/>
    </contour>
  </outline>
</glyph>
<glyph name="P" format="1">
  <advance width="356"/>
  <unicode hex="0050"/>
  <outline>
    <contour>
      <point x="331" y="418" type="curve" smooth="yes"/>
      <point x="331" y="377"/>
      <point x="319" y="337"/>
      <point x="281" y="302" type="curve" smooth="yes"/>
      <point x="249" y="273"/>
      <point x="206" y="265"/>
      <point x="169" y="265" type="curve" smooth="yes"/>
      <point x="155" y="265"/>
      <point x="147" y="259"/>
      <point x="147" y="234" type="curve" smooth="yes"/>
      <point x="147" y="183"/>
      <point x="147" y="75"/>
      <point x="147" y="16" type="curve" smooth="yes"/>
      <point x="147" y="-1"/>
      <point x="137" y="0"/>
      <point x="91" y="0" type="curve" smooth="yes"/>
      <point x="46" y="0"/>
      <point x="40" y="0"/>
      <point x="40" y="22" type="curve" smooth="yes"/>
      <point x="40" y="220"/>
      <point x="40" y="476"/>
      <point x="40" y="669" type="curve" smooth="yes"/>
      <point x="40" y="681"/>
      <point x="41" y="689"/>
      <point x="45" y="694" type="curve" smooth="yes"/>
      <point x="50" y="701"/>
      <point x="58" y="700"/>
      <point x="70" y="700" type="curve" smooth="yes"/>
      <point x="94" y="700"/>
      <point x="145" y="700"/>
      <point x="172" y="700" type="curve" smooth="yes"/>
      <point x="212" y="700"/>
      <point x="252" y="690"/>
      <point x="282" y="665" type="curve" smooth="yes"/>
      <point x="316" y="637"/>
      <point x="331" y="599"/>
      <point x="331" y="549" type="curve" smooth="yes"/>
      <point x="331" y="451"/>
      <point x="331" y="515"/>
    </contour>
    <contour>
      <point x="223" y="432" type="curve" smooth="yes"/>
      <point x="223" y="470"/>
      <point x="223" y="491"/>
      <point x="223" y="528" type="curve" smooth="yes"/>
      <point x="223" y="549"/>
      <point x="222" y="568"/>
      <point x="210" y="583" type="curve"/>
      <point x="202" y="591"/>
      <point x="193" y="595"/>
      <point x="177" y="595" type="curve" smooth="yes"/>
      <point x="165" y="595"/>
      <point x="154" y="595"/>
      <point x="150" y="591" type="curve"/>
      <point x="147" y="587"/>
      <point x="147" y="583"/>
      <point x="147" y="577" type="curve" smooth="yes"/>
      <point x="147" y="477"/>
      <point x="147" y="485"/>
      <point x="147" y="387" type="curve" smooth="yes"/>
      <point x="147" y="377"/>
      <point x="146" y="369"/>
      <point x="153" y="366" type="curve"/>
      <point x="158" y="365"/>
      <point x="165" y="365"/>
      <point x="175" y="365" type="curve" smooth="yes"/>
      <point x="186" y="365"/>
      <point x="200" y="368"/>
      <point x="211" y="381" type="curve" smooth="yes"/>
      <point x="224" y="398"/>
      <point x="223" y="413"/>
    </contour>
  </outline>
</glyph>
<glyph name="Q" format="1">
  <advance width="356"/>
  <unicode hex="0051"/>
  <outline>
    <contour>
      <point x="323" y="144" type="curve" smooth="yes"/>
      <point x="323" y="63"/>
      <point x="281" y="26"/>
      <point x="243" y="12" type="curve" smooth="yes"/>
      <point x="233" y="9"/>
      <point x="230" y="5"/>
      <point x="230" y="1" type="curve" smooth="yes"/>
      <point x="230" y="-32"/>
      <point x="247" y="-46"/>
      <point x="284" y="-46" type="curve" smooth="yes"/>
      <point x="292" y="-46"/>
      <point x="294" y="-59"/>
      <point x="294" y="-87" type="curve" smooth="yes"/>
      <point x="294" y="-108"/>
      <point x="295" y="-125"/>
      <point x="286" y="-125" type="curve" smooth="yes"/>
      <point x="277" y="-125"/>
      <point x="261" y="-124"/>
      <point x="256" y="-124" type="curve" smooth="yes"/>
      <point x="193" y="-119"/>
      <point x="122" y="-92"/>
      <point x="122" y="-4" type="curve" smooth="yes"/>
      <point x="122" y="3"/>
      <point x="118" y="9"/>
      <point x="108" y="15" type="curve" smooth="yes"/>
      <point x="77" y="34"/>
      <point x="33" y="66"/>
      <point x="33" y="144" type="curve" smooth="yes"/>
      <point x="33" y="300"/>
      <point x="33" y="408"/>
      <point x="33" y="557" type="curve" smooth="yes"/>
      <point x="33" y="644"/>
      <point x="95" y="700"/>
      <point x="178" y="700" type="curve" smooth="yes"/>
      <point x="263" y="700"/>
      <point x="323" y="644"/>
      <point x="323" y="557" type="curve" smooth="yes"/>
      <point x="323" y="410"/>
      <point x="323" y="297"/>
    </contour>
    <contour>
      <point x="215" y="166" type="curve" smooth="yes"/>
      <point x="215" y="296"/>
      <point x="215" y="408"/>
      <point x="215" y="537" type="curve" smooth="yes"/>
      <point x="215" y="565"/>
      <point x="207" y="597"/>
      <point x="178" y="597" type="curve" smooth="yes"/>
      <point x="148" y="597"/>
      <point x="140" y="565"/>
      <point x="140" y="537" type="curve" smooth="yes"/>
      <point x="140" y="408"/>
      <point x="140" y="296"/>
      <point x="140" y="166" type="curve" smooth="yes"/>
      <point x="140" y="132"/>
      <point x="148" y="106"/>
      <point x="178" y="106" type="curve" smooth="yes"/>
      <point x="208" y="106"/>
      <point x="215" y="132"/>
    </contour>
  </outline>
</glyph>
<glyph name="R" format="1">
  <advance width="360"/>
  <unicode hex="0052"/>
  <outline>
    <contour>
      <point x="330" y="16" type="curve" smooth="yes"/>
      <point x="330" y="0"/>
      <point x="323" y="0"/>
      <point x="275" y="0" type="curve" smooth="yes"/>
      <point x="227" y="0"/>
      <point x="223" y="-1"/>
      <point x="223" y="17" type="curve" smooth="yes"/>
      <point x="223" y="98"/>
      <point x="223" y="201"/>
      <point x="223" y="247" type="curve" smooth="yes"/>
      <point x="223" y="282"/>
      <point x="211" y="310"/>
      <point x="186" y="310" type="curve" smooth="yes"/>
      <point x="151" y="310"/>
      <point x="147" y="311"/>
      <point x="147" y="297" type="curve" smooth="yes"/>
      <point x="147" y="193"/>
      <point x="147" y="130"/>
      <point x="147" y="19" type="curve" smooth="yes"/>
      <point x="147" y="0"/>
      <point x="139" y="0"/>
      <point x="89" y="0" type="curve" smooth="yes"/>
      <point x="48" y="0"/>
      <point x="40" y="0"/>
      <point x="40" y="22" type="curve" smooth="yes"/>
      <point x="40" y="220"/>
      <point x="40" y="476"/>
      <point x="40" y="669" type="curve" smooth="yes"/>
      <point x="40" y="679"/>
      <point x="41" y="689"/>
      <point x="44" y="694" type="curve"/>
      <point x="50" y="702"/>
      <point x="57" y="700"/>
      <point x="70" y="700" type="curve" smooth="yes"/>
      <point x="93" y="700"/>
      <point x="142" y="700"/>
      <point x="169" y="700" type="curve" smooth="yes"/>
      <point x="212" y="700"/>
      <point x="256" y="688"/>
      <point x="286" y="659" type="curve" smooth="yes"/>
      <point x="316" y="631"/>
      <point x="327" y="591"/>
      <point x="327" y="549" type="curve" smooth="yes"/>
      <point x="327" y="510"/>
      <point x="327" y="501"/>
      <point x="327" y="464" type="curve" smooth="yes"/>
      <point x="327" y="435"/>
      <point x="323" y="416"/>
      <point x="310" y="398" type="curve" smooth="yes"/>
      <point x="292" y="371"/>
      <point x="261" y="365"/>
      <point x="261" y="362" type="curve" smooth="yes"/>
      <point x="261" y="358"/>
      <point x="293" y="356"/>
      <point x="312" y="331" type="curve" smooth="yes"/>
      <point x="325" y="313"/>
      <point x="330" y="296"/>
      <point x="330" y="268" type="curve" smooth="yes"/>
      <point x="330" y="175"/>
      <point x="330" y="105"/>
    </contour>
    <contour>
      <point x="220" y="460" type="curve" smooth="yes"/>
      <point x="220" y="485"/>
      <point x="220" y="505"/>
      <point x="220" y="528" type="curve" smooth="yes"/>
      <point x="220" y="549"/>
      <point x="219" y="568"/>
      <point x="206" y="583" type="curve" smooth="yes"/>
      <point x="199" y="591"/>
      <point x="193" y="595"/>
      <point x="170" y="595" type="curve" smooth="yes"/>
      <point x="161" y="595"/>
      <point x="154" y="595"/>
      <point x="150" y="590" type="curve"/>
      <point x="148" y="586"/>
      <point x="147" y="582"/>
      <point x="147" y="577" type="curve" smooth="yes"/>
      <point x="147" y="484"/>
      <point x="147" y="484"/>
      <point x="147" y="428" type="curve" smooth="yes"/>
      <point x="147" y="419"/>
      <point x="147" y="412"/>
      <point x="152" y="408" type="curve" smooth="yes"/>
      <point x="156" y="405"/>
      <point x="162" y="406"/>
      <point x="170" y="406" type="curve" smooth="yes"/>
      <point x="179" y="406"/>
      <point x="195" y="409"/>
      <point x="206" y="421" type="curve" smooth="yes"/>
      <point x="219" y="435"/>
      <point x="220" y="450"/>
    </contour>
  </outline>
</glyph>
<glyph name="S" format="1">
  <advance width="340"/>
  <unicode hex="0053"/>
  <outline>
    <contour>
      <point x="315" y="173" type="curve" smooth="yes"/>
      <point x="315" y="143"/>
      <point x="311" y="105"/>
      <point x="299" y="83" type="curve" smooth="yes"/>
      <point x="265" y="22"/>
      <point x="242" y="0"/>
      <point x="170" y="0" type="curve" smooth="yes"/>
      <point x="88" y="0"/>
      <point x="25" y="49"/>
      <point x="25" y="140" type="curve" smooth="yes"/>
      <point x="25" y="151"/>
      <point x="25" y="183"/>
      <point x="25" y="196" type="curve" smooth="yes"/>
      <point x="25" y="205"/>
      <point x="34" y="206"/>
      <point x="74" y="206" type="curve" smooth="yes"/>
      <point x="114" y="206"/>
      <point x="133" y="206"/>
      <point x="133" y="198" type="curve" smooth="yes"/>
      <point x="133" y="185"/>
      <point x="133" y="166"/>
      <point x="133" y="156" type="curve" smooth="yes"/>
      <point x="133" y="119"/>
      <point x="140" y="97"/>
      <point x="170" y="97" type="curve" smooth="yes"/>
      <point x="197" y="97"/>
      <point x="204" y="117"/>
      <point x="206" y="134" type="curve" smooth="yes"/>
      <point x="207" y="151"/>
      <point x="208" y="166"/>
      <point x="208" y="180" type="curve" smooth="yes"/>
      <point x="208" y="267"/>
      <point x="19" y="388"/>
      <point x="19" y="538" type="curve" smooth="yes"/>
      <point x="19" y="566"/>
      <point x="31" y="612"/>
      <point x="44" y="635" type="curve" smooth="yes"/>
      <point x="57" y="658"/>
      <point x="93" y="700"/>
      <point x="161" y="700" type="curve" smooth="yes"/>
      <point x="246" y="700"/>
      <point x="303" y="637"/>
      <point x="303" y="564" type="curve" smooth="yes"/>
      <point x="303" y="549"/>
      <point x="303" y="532"/>
      <point x="303" y="515" type="curve" smooth="yes"/>
      <point x="303" y="508"/>
      <point x="289" y="509"/>
      <point x="255" y="509" type="curve" smooth="yes"/>
      <point x="217" y="509"/>
      <point x="197" y="509"/>
      <point x="197" y="516" type="curve" smooth="yes"/>
      <point x="197" y="529"/>
      <point x="197" y="553"/>
      <point x="197" y="562" type="curve" smooth="yes"/>
      <point x="197" y="590"/>
      <point x="178" y="607"/>
      <point x="161" y="607" type="curve" smooth="yes"/>
      <point x="143" y="607"/>
      <point x="129" y="591"/>
      <point x="127" y="575" type="curve" smooth="yes"/>
      <point x="125" y="560"/>
      <point x="124" y="548"/>
      <point x="124" y="535" type="curve" smooth="yes"/>
      <point x="124" y="417"/>
      <point x="315" y="336"/>
    </contour>
  </outline>
</glyph>
<glyph name="T" format="1">
  <advance width="321"/>
  <unicode hex="0054"/>
  <outline>
    <contour>
      <point x="306" y="653" type="curve" smooth="yes"/>
      <point x="306" y="607"/>
      <point x="305" y="602"/>
      <point x="294" y="602" type="curve" smooth="yes"/>
      <point x="282" y="602"/>
      <point x="268" y="602"/>
      <point x="251" y="602" type="curve" smooth="yes"/>
      <point x="240" y="602"/>
      <point x="227" y="602"/>
      <point x="222" y="600" type="curve"/>
      <point x="213" y="593"/>
      <point x="215" y="576"/>
      <point x="215" y="563" type="curve" smooth="yes"/>
      <point x="215" y="342"/>
      <point x="215" y="229"/>
      <point x="215" y="10" type="curve" smooth="yes"/>
      <point x="215" y="1"/>
      <point x="204" y="0"/>
      <point x="157" y="0" type="curve" smooth="yes"/>
      <point x="115" y="0"/>
      <point x="106" y="0"/>
      <point x="106" y="10" type="curve" smooth="yes"/>
      <point x="106" y="229"/>
      <point x="106" y="343"/>
      <point x="106" y="563" type="curve" smooth="yes"/>
      <point x="106" y="576"/>
      <point x="108" y="593"/>
      <point x="99" y="600" type="curve"/>
      <point x="94" y="602"/>
      <point x="81" y="602"/>
      <point x="70" y="602" type="curve" smooth="yes"/>
      <point x="56" y="602"/>
      <point x="42" y="602"/>
      <point x="33" y="602" type="curve" smooth="yes"/>
      <point x="18" y="602"/>
      <point x="15" y="609"/>
      <point x="15" y="651" type="curve" smooth="yes"/>
      <point x="15" y="693"/>
      <point x="17" y="700"/>
      <point x="29" y="700" type="curve" smooth="yes"/>
      <point x="92" y="700"/>
      <point x="230" y="700"/>
      <point x="293" y="700" type="curve" smooth="yes"/>
      <point x="305" y="700"/>
      <point x="306" y="691"/>
    </contour>
  </outline>
</glyph>
<glyph name="U" format="1">
  <advance width="357"/>
  <unicode hex="0055"/>
  <outline>
    <contour>
      <point x="324" y="140" type="curve" smooth="yes"/>
      <point x="324" y="57"/>
      <point x="271" y="0"/>
      <point x="178" y="0" type="curve" smooth="yes"/>
      <point x="87" y="0"/>
      <point x="33" y="66"/>
      <point x="33" y="139" type="curve" smooth="yes"/>
      <point x="33" y="303"/>
      <point x="33" y="498"/>
      <point x="33" y="683" type="curve" smooth="yes"/>
      <point x="33" y="699"/>
      <point x="40" y="700"/>
      <point x="89" y="700" type="curve" smooth="yes"/>
      <point x="129" y="700"/>
      <point x="140" y="698"/>
      <point x="140" y="683" type="curve" smooth="yes"/>
      <point x="140" y="517"/>
      <point x="140" y="304"/>
      <point x="140" y="162" type="curve" smooth="yes"/>
      <point x="140" y="135"/>
      <point x="145" y="106"/>
      <point x="178" y="106" type="curve" smooth="yes"/>
      <point x="210" y="106"/>
      <point x="216" y="134"/>
      <point x="216" y="162" type="curve" smooth="yes"/>
      <point x="216" y="300"/>
      <point x="216" y="521"/>
      <point x="216" y="684" type="curve" smooth="yes"/>
      <point x="216" y="698"/>
      <point x="221" y="700"/>
      <point x="266" y="700" type="curve" smooth="yes"/>
      <point x="318" y="700"/>
      <point x="324" y="697"/>
      <point x="324" y="685" type="curve" smooth="yes"/>
      <point x="324" y="505"/>
      <point x="324" y="300"/>
    </contour>
  </outline>
</glyph>
<glyph name="V" format="1">
  <advance width="332"/>
  <unicode hex="0056"/>
  <outline>
    <contour>
      <point x="317" y="684" type="curve" smooth="yes"/>
      <point x="282" y="440"/>
      <point x="240" y="193"/>
      <point x="217" y="15" type="curve" smooth="yes"/>
      <point x="215" y="0"/>
      <point x="205" y="0"/>
      <point x="162" y="0" type="curve" smooth="yes"/>
      <point x="116" y="0"/>
      <point x="106" y="0"/>
      <point x="104" y="17" type="curve" smooth="yes"/>
      <point x="84" y="179"/>
      <point x="49" y="442"/>
      <point x="15" y="685" type="curve" smooth="yes"/>
      <point x="13" y="700"/>
      <point x="20" y="700"/>
      <point x="70" y="700" type="curve" smooth="yes"/>
      <point x="123" y="700"/>
      <point x="124" y="697"/>
      <point x="127" y="682" type="curve"/>
      <point x="137" y="581"/>
      <point x="148" y="375"/>
      <point x="160" y="263" type="curve"/>
      <point x="160" y="259"/>
      <point x="161" y="253"/>
      <point x="164" y="253" type="curve" smooth="yes"/>
      <point x="168" y="253"/>
      <point x="169" y="258"/>
      <point x="169" y="263" type="curve"/>
      <point x="183" y="376"/>
      <point x="198" y="590"/>
      <point x="209" y="682" type="curve" smooth="yes"/>
      <point x="211" y="699"/>
      <point x="214" y="699"/>
      <point x="262" y="699" type="curve" smooth="yes"/>
      <point x="311" y="699"/>
      <point x="319" y="698"/>
    </contour>
  </outline>
</glyph>
<glyph name="W" format="1">
  <advance width="412"/>
  <unicode hex="0057"/>
  <outline>
    <contour>
      <point x="397" y="689" type="curve" smooth="yes"/>
      <point x="384" y="532"/>
      <point x="356" y="194"/>
      <point x="341" y="11" type="curve" smooth="yes"/>
      <point x="340" y="-2"/>
      <point x="321" y="0"/>
      <point x="295" y="0" type="curve" smooth="yes"/>
      <point x="282" y="0"/>
      <point x="254" y="1"/>
      <point x="252" y="11" type="curve" smooth="yes"/>
      <point x="239" y="75"/>
      <point x="230" y="125"/>
      <point x="218" y="187" type="curve" smooth="yes"/>
      <point x="217" y="191"/>
      <point x="217" y="198"/>
      <point x="211" y="198" type="curve" smooth="yes"/>
      <point x="206" y="198"/>
      <point x="206" y="191"/>
      <point x="205" y="188" type="curve"/>
      <point x="193" y="128"/>
      <point x="184" y="78"/>
      <point x="171" y="12" type="curve" smooth="yes"/>
      <point x="168" y="-1"/>
      <point x="140" y="0"/>
      <point x="120" y="0" type="curve" smooth="yes"/>
      <point x="107" y="0"/>
      <point x="72" y="-2"/>
      <point x="71" y="11" type="curve" smooth="yes"/>
      <point x="57" y="187"/>
      <point x="36" y="436"/>
      <point x="15" y="688" type="curve" smooth="yes"/>
      <point x="14" y="696"/>
      <point x="42" y="700"/>
      <point x="62" y="700" type="curve" smooth="yes"/>
      <point x="92" y="700"/>
      <point x="117" y="699"/>
      <point x="118" y="689" type="curve" smooth="yes"/>
      <point x="128" y="503"/>
      <point x="137" y="386"/>
      <point x="146" y="218" type="curve" smooth="yes"/>
      <point x="146" y="215"/>
      <point x="147" y="208"/>
      <point x="152" y="208" type="curve" smooth="yes"/>
      <point x="158" y="208"/>
      <point x="159" y="215"/>
      <point x="159" y="219" type="curve"/>
      <point x="168" y="316"/>
      <point x="173" y="383"/>
      <point x="180" y="469" type="curve" smooth="yes"/>
      <point x="181" y="478"/>
      <point x="190" y="481"/>
      <point x="208" y="481" type="curve" smooth="yes"/>
      <point x="228" y="481"/>
      <point x="239" y="479"/>
      <point x="240" y="469" type="curve" smooth="yes"/>
      <point x="248" y="375"/>
      <point x="251" y="314"/>
      <point x="261" y="215" type="curve"/>
      <point x="261" y="212"/>
      <point x="262" y="205"/>
      <point x="267" y="205" type="curve" smooth="yes"/>
      <point x="273" y="205"/>
      <point x="274" y="212"/>
      <point x="274" y="216" type="curve" smooth="yes"/>
      <point x="282" y="393"/>
      <point x="292" y="548"/>
      <point x="299" y="690" type="curve" smooth="yes"/>
      <point x="300" y="700"/>
      <point x="322" y="700"/>
      <point x="345" y="700" type="curve" smooth="yes"/>
      <point x="372" y="700"/>
      <point x="398" y="702"/>
    </contour>
  </outline>
</glyph>
<glyph name="X" format="1">
  <advance width="335"/>
  <unicode hex="0058"/>
  <outline>
    <contour>
      <point x="320" y="14" type="curve" smooth="yes"/>
      <point x="323" y="2"/>
      <point x="312" y="0"/>
      <point x="265" y="0" type="curve" smooth="yes"/>
      <point x="220" y="0"/>
      <point x="213" y="0"/>
      <point x="210" y="13" type="curve" smooth="yes"/>
      <point x="198" y="63"/>
      <point x="186" y="134"/>
      <point x="174" y="196" type="curve" smooth="yes"/>
      <point x="173" y="201"/>
      <point x="171" y="212"/>
      <point x="167" y="212" type="curve" smooth="yes"/>
      <point x="161" y="212"/>
      <point x="160" y="204"/>
      <point x="159" y="196" type="curve" smooth="yes"/>
      <point x="147" y="128"/>
      <point x="135" y="66"/>
      <point x="123" y="15" type="curve" smooth="yes"/>
      <point x="120" y="1"/>
      <point x="115" y="0"/>
      <point x="67" y="0" type="curve" smooth="yes"/>
      <point x="22" y="0"/>
      <point x="11" y="0"/>
      <point x="15" y="17" type="curve" smooth="yes"/>
      <point x="43" y="121"/>
      <point x="67" y="221"/>
      <point x="98" y="333" type="curve" smooth="yes"/>
      <point x="101" y="345"/>
      <point x="103" y="351"/>
      <point x="103" y="359" type="curve" smooth="yes"/>
      <point x="103" y="368"/>
      <point x="100" y="376"/>
      <point x="97" y="387" type="curve" smooth="yes"/>
      <point x="71" y="489"/>
      <point x="45" y="582"/>
      <point x="17" y="686" type="curve" smooth="yes"/>
      <point x="13" y="699"/>
      <point x="27" y="700"/>
      <point x="71" y="700" type="curve" smooth="yes"/>
      <point x="121" y="700"/>
      <point x="126" y="700"/>
      <point x="128" y="686" type="curve" smooth="yes"/>
      <point x="139" y="619"/>
      <point x="149" y="556"/>
      <point x="158" y="511" type="curve" smooth="yes"/>
      <point x="160" y="504"/>
      <point x="162" y="497"/>
      <point x="166" y="497" type="curve" smooth="yes"/>
      <point x="171" y="497"/>
      <point x="173" y="506"/>
      <point x="174" y="510" type="curve" smooth="yes"/>
      <point x="183" y="560"/>
      <point x="195" y="626"/>
      <point x="205" y="687" type="curve" smooth="yes"/>
      <point x="207" y="700"/>
      <point x="209" y="700"/>
      <point x="259" y="700" type="curve" smooth="yes"/>
      <point x="309" y="700"/>
      <point x="316" y="699"/>
      <point x="313" y="687" type="curve" smooth="yes"/>
      <point x="285" y="584"/>
      <point x="262" y="491"/>
      <point x="237" y="390" type="curve" smooth="yes"/>
      <point x="233" y="376"/>
      <point x="229" y="366"/>
      <point x="229" y="361" type="curve" smooth="yes"/>
      <point x="229" y="353"/>
      <point x="231" y="346"/>
      <point x="234" y="335" type="curve" smooth="yes"/>
      <point x="256" y="220"/>
      <point x="290" y="121"/>
    </contour>
  </outline>
</glyph>
<glyph name="Y" format="1">
  <advance width="318"/>
  <unicode hex="0059"/>
  <outline>
    <contour>
      <point x="303" y="685" type="curve" smooth="yes"/>
      <point x="278" y="567"/>
      <point x="259" y="476"/>
      <point x="231" y="358" type="curve" smooth="yes"/>
      <point x="226" y="337"/>
      <point x="223" y="315"/>
      <point x="220" y="299" type="curve" smooth="yes"/>
      <point x="218" y="290"/>
      <point x="214" y="264"/>
      <point x="214" y="246" type="curve" smooth="yes"/>
      <point x="214" y="161"/>
      <point x="214" y="92"/>
      <point x="214" y="8" type="curve" smooth="yes"/>
      <point x="214" y="-1"/>
      <point x="172" y="0"/>
      <point x="159" y="0" type="curve" smooth="yes"/>
      <point x="143" y="0"/>
      <point x="106" y="-1"/>
      <point x="106" y="11" type="curve" smooth="yes"/>
      <point x="106" y="92"/>
      <point x="107" y="154"/>
      <point x="107" y="243" type="curve" smooth="yes"/>
      <point x="107" y="261"/>
      <point x="106" y="281"/>
      <point x="104" y="292" type="curve" smooth="yes"/>
      <point x="102" y="305"/>
      <point x="95" y="330"/>
      <point x="90" y="352" type="curve" smooth="yes"/>
      <point x="63" y="469"/>
      <point x="40" y="568"/>
      <point x="15" y="685" type="curve" smooth="yes"/>
      <point x="12" y="698"/>
      <point x="43" y="699"/>
      <point x="60" y="699" type="curve" smooth="yes"/>
      <point x="91" y="699"/>
      <point x="119" y="698"/>
      <point x="121" y="683" type="curve" smooth="yes"/>
      <point x="133" y="596"/>
      <point x="144" y="518"/>
      <point x="155" y="437" type="curve"/>
      <point x="155" y="434"/>
      <point x="157" y="428"/>
      <point x="161" y="428" type="curve" smooth="yes"/>
      <point x="165" y="428"/>
      <point x="166" y="435"/>
      <point x="166" y="438" type="curve"/>
      <point x="179" y="527"/>
      <point x="186" y="593"/>
      <point x="198" y="683" type="curve" smooth="yes"/>
      <point x="200" y="696"/>
      <point x="228" y="699"/>
      <point x="254" y="699" type="curve" smooth="yes"/>
      <point x="281" y="699"/>
      <point x="306" y="698"/>
    </contour>
  </outline>
</glyph>
<glyph name="Z" format="1">
  <advance width="300"/>
  <unicode hex="005A"/>
  <outline>
    <contour>
      <point x="278" y="672" type="curve" smooth="yes"/>
      <point x="278" y="648"/>
      <point x="278" y="600"/>
      <point x="275" y="591" type="curve" smooth="yes"/>
      <point x="206" y="372"/>
      <point x="186" y="307"/>
      <point x="132" y="135" type="curve" smooth="yes"/>
      <point x="130" y="128"/>
      <point x="129" y="122"/>
      <point x="132" y="107" type="curve"/>
      <point x="135" y="100"/>
      <point x="137" y="99"/>
      <point x="148" y="99" type="curve" smooth="yes"/>
      <point x="184" y="99"/>
      <point x="228" y="99"/>
      <point x="264" y="99" type="curve" smooth="yes"/>
      <point x="275" y="99"/>
      <point x="275" y="71"/>
      <point x="275" y="46" type="curve" smooth="yes"/>
      <point x="275" y="21"/>
      <point x="275" y="0"/>
      <point x="264" y="0" type="curve" smooth="yes"/>
      <point x="211" y="0"/>
      <point x="91" y="0"/>
      <point x="38" y="0" type="curve" smooth="yes"/>
      <point x="24" y="0"/>
      <point x="25" y="17"/>
      <point x="25" y="26" type="curve" smooth="yes"/>
      <point x="25" y="82"/>
      <point x="23" y="128"/>
      <point x="28" y="142" type="curve" smooth="yes"/>
      <point x="89" y="326"/>
      <point x="117" y="411"/>
      <point x="167" y="571" type="curve" smooth="yes"/>
      <point x="171" y="583"/>
      <point x="169" y="598"/>
      <point x="160" y="605" type="curve"/>
      <point x="155" y="607"/>
      <point x="146" y="607"/>
      <point x="139" y="607" type="curve" smooth="yes"/>
      <point x="106" y="607"/>
      <point x="76" y="607"/>
      <point x="43" y="607" type="curve" smooth="yes"/>
      <point x="33" y="607"/>
      <point x="31" y="628"/>
      <point x="31" y="651" type="curve" smooth="yes"/>
      <point x="31" y="675"/>
      <point x="31" y="700"/>
      <point x="43" y="700" type="curve" smooth="yes"/>
      <point x="105" y="700"/>
      <point x="197" y="700"/>
      <point x="259" y="700" type="curve" smooth="yes"/>
      <point x="277" y="700"/>
      <point x="278" y="698"/>
    </contour>
  </outline>
</glyph>
<glyph name="bracketleft" format="1">
  <advance width="211"/>
  <unicode hex="005B"/>
  <outline>
    <contour>
      <point x="201" y="743" type="curve" smooth="yes"/>
      <point x="201" y="731"/>
      <point x="200" y="698"/>
      <point x="193" y="698" type="curve" smooth="yes"/>
      <point x="163" y="698"/>
      <point x="142" y="701"/>
      <point x="142" y="673" type="curve" smooth="yes"/>
      <point x="142" y="448"/>
      <point x="142" y="222"/>
      <point x="142" y="32" type="curve" smooth="yes"/>
      <point x="142" y="-5"/>
      <point x="163" y="2"/>
      <point x="193" y="2" type="curve" smooth="yes"/>
      <point x="202" y="2"/>
      <point x="199" y="-27"/>
      <point x="199" y="-38" type="curve" smooth="yes"/>
      <point x="199" y="-55"/>
      <point x="200" y="-88"/>
      <point x="193" y="-88" type="curve" smooth="yes"/>
      <point x="127" y="-88"/>
      <point x="35" y="-100"/>
      <point x="35" y="-68" type="curve" smooth="yes"/>
      <point x="35" y="161"/>
      <point x="35" y="550"/>
      <point x="35" y="766" type="curve" smooth="yes"/>
      <point x="35" y="796"/>
      <point x="128" y="788"/>
      <point x="193" y="788" type="curve" smooth="yes"/>
      <point x="206" y="788"/>
      <point x="201" y="755"/>
    </contour>
  </outline>
</glyph>
<glyph name="backslash" format="1">
  <advance width="256"/>
  <unicode hex="005C"/>
  <outline>
    <contour>
      <point x="235" y="13" type="curve" smooth="yes"/>
      <point x="237" y="1"/>
      <point x="214" y="0"/>
      <point x="194" y="0" type="curve" smooth="yes"/>
      <point x="173" y="0"/>
      <point x="138" y="2"/>
      <point x="136" y="15" type="curve" smooth="yes"/>
      <point x="94" y="252"/>
      <point x="61" y="439"/>
      <point x="20" y="680" type="curve" smooth="yes"/>
      <point x="17" y="695"/>
      <point x="45" y="699"/>
      <point x="67" y="699" type="curve" smooth="yes"/>
      <point x="88" y="699"/>
      <point x="118" y="699"/>
      <point x="120" y="689" type="curve" smooth="yes"/>
      <point x="162" y="446"/>
      <point x="192" y="262"/>
    </contour>
  </outline>
</glyph>
<glyph name="bracketright" format="1">
  <advance width="211"/>
  <unicode hex="005D"/>
  <outline>
    <contour>
      <point x="175" y="-69" type="curve" smooth="yes"/>
      <point x="175" y="-96"/>
      <point x="83" y="-88"/>
      <point x="17" y="-88" type="curve" smooth="yes"/>
      <point x="10" y="-88"/>
      <point x="12" y="-54"/>
      <point x="12" y="-37" type="curve" smooth="yes"/>
      <point x="12" y="-26"/>
      <point x="8" y="2"/>
      <point x="17" y="2" type="curve" smooth="yes"/>
      <point x="53" y="2"/>
      <point x="68" y="-2"/>
      <point x="68" y="31" type="curve" smooth="yes"/>
      <point x="68" y="242"/>
      <point x="68" y="433"/>
      <point x="68" y="673" type="curve" smooth="yes"/>
      <point x="68" y="701"/>
      <point x="47" y="698"/>
      <point x="17" y="698" type="curve" smooth="yes"/>
      <point x="10" y="698"/>
      <point x="10" y="731"/>
      <point x="10" y="743" type="curve" smooth="yes"/>
      <point x="10" y="755"/>
      <point x="4" y="788"/>
      <point x="17" y="788" type="curve" smooth="yes"/>
      <point x="82" y="788"/>
      <point x="175" y="796"/>
      <point x="175" y="765" type="curve" smooth="yes"/>
      <point x="175" y="521"/>
      <point x="175" y="169"/>
    </contour>
  </outline>
</glyph>
<glyph name="asciicircum" format="1">
  <advance width="341"/>
  <unicode hex="005E"/>
  <outline>
    <contour>
      <point x="300" y="495" type="curve"/>
      <point x="300" y="485"/>
      <point x="295" y="485"/>
      <point x="276" y="474" type="curve" smooth="yes"/>
      <point x="263" y="467"/>
      <point x="252" y="454"/>
      <point x="243" y="470" type="curve" smooth="yes"/>
      <point x="201" y="541"/>
      <point x="174" y="589"/>
      <point x="170" y="589" type="curve" smooth="yes"/>
      <point x="166" y="589"/>
      <point x="134" y="533"/>
      <point x="99" y="475" type="curve" smooth="yes"/>
      <point x="94" y="466"/>
      <point x="78" y="471"/>
      <point x="61" y="484" type="curve" smooth="yes"/>
      <point x="46" y="496"/>
      <point x="43" y="502"/>
      <point x="48" y="511" type="curve" smooth="yes"/>
      <point x="59" y="532"/>
      <point x="123" y="640"/>
      <point x="138" y="666" type="curve" smooth="yes"/>
      <point x="148" y="682"/>
      <point x="156" y="702"/>
      <point x="170" y="702" type="curve" smooth="yes"/>
      <point x="182" y="702"/>
      <point x="191" y="683"/>
      <point x="200" y="668" type="curve" smooth="yes"/>
      <point x="219" y="635"/>
      <point x="299" y="505"/>
    </contour>
  </outline>
</glyph>
<glyph name="underscore" format="1">
  <advance width="281"/>
  <unicode hex="005F"/>
  <outline>
    <contour>
      <point x="283" y="-67" type="curve" smooth="yes"/>
      <point x="270" y="-73"/>
      <point x="168" y="-68"/>
      <point x="155" y="-69" type="curve" smooth="yes"/>
      <point x="121" y="-72"/>
      <point x="100" y="-70"/>
      <point x="65" y="-69" type="curve" smooth="yes"/>
      <point x="48" y="-69"/>
      <point x="19" y="-69"/>
      <point x="1" y="-67" type="curve" smooth="yes"/>
      <point x="-5" y="-66"/>
      <point x="-4" y="-36"/>
      <point x="2" y="-34" type="curve" smooth="yes"/>
      <point x="17" y="-30"/>
      <point x="46" y="-32"/>
      <point x="60" y="-32" type="curve" smooth="yes"/>
      <point x="91" y="-31"/>
      <point x="110" y="-33"/>
      <point x="140" y="-33" type="curve" smooth="yes"/>
      <point x="158" y="-33"/>
      <point x="261" y="-34"/>
      <point x="279" y="-34" type="curve" smooth="yes"/>
      <point x="284" y="-34"/>
      <point x="288" y="-65"/>
    </contour>
  </outline>
</glyph>
<glyph name="grave" format="1">
  <advance width="341"/>
  <unicode hex="0060"/>
  <outline>
    <contour>
      <point x="258" y="589" type="curve" smooth="yes"/>
      <point x="254" y="579"/>
      <point x="245" y="556"/>
      <point x="243" y="546" type="curve" smooth="yes"/>
      <point x="241" y="537"/>
      <point x="237" y="531"/>
      <point x="219" y="539" type="curve" smooth="yes"/>
      <point x="157" y="569"/>
      <point x="137" y="576"/>
      <point x="86" y="599" type="curve"/>
      <point x="82" y="602"/>
      <point x="65" y="615"/>
      <point x="74" y="627" type="curve" smooth="yes"/>
      <point x="80" y="635"/>
      <point x="87" y="655"/>
      <point x="91" y="666" type="curve" smooth="yes"/>
      <point x="95" y="677"/>
      <point x="105" y="675"/>
      <point x="125" y="666" type="curve" smooth="yes"/>
      <point x="156" y="652"/>
      <point x="194" y="635"/>
      <point x="223" y="623" type="curve" smooth="yes"/>
      <point x="248" y="612"/>
      <point x="263" y="599"/>
    </contour>
  </outline>
</glyph>
<glyph name="a" format="1">
  <advance width="345"/>
  <unicode hex="0061"/>
  <outline>
    <contour>
      <point x="315" y="10" type="curve" smooth="yes"/>
      <point x="315" y="-2"/>
      <point x="307" y="0"/>
      <point x="270" y="0" type="curve" smooth="yes"/>
      <point x="223" y="0"/>
      <point x="216" y="0"/>
      <point x="216" y="15" type="curve" smooth="yes"/>
      <point x="216" y="28"/>
      <point x="218" y="38"/>
      <point x="210" y="33" type="curve"/>
      <point x="202" y="24"/>
      <point x="187" y="0"/>
      <point x="152" y="0" type="curve" smooth="yes"/>
      <point x="78" y="0"/>
      <point x="25" y="45"/>
      <point x="25" y="142" type="curve" smooth="yes"/>
      <point x="25" y="212"/>
      <point x="25" y="266"/>
      <point x="25" y="337" type="curve" smooth="yes"/>
      <point x="25" y="444"/>
      <point x="92" y="481"/>
      <point x="151" y="481" type="curve" smooth="yes"/>
      <point x="172" y="481"/>
      <point x="194" y="469"/>
      <point x="207" y="452" type="curve" smooth="yes"/>
      <point x="214" y="443"/>
      <point x="215" y="450"/>
      <point x="215" y="468" type="curve" smooth="yes"/>
      <point x="215" y="481"/>
      <point x="226" y="482"/>
      <point x="269" y="482" type="curve" smooth="yes"/>
      <point x="307" y="482"/>
      <point x="315" y="482"/>
      <point x="315" y="471" type="curve" smooth="yes"/>
      <point x="315" y="347"/>
      <point x="315" y="210"/>
    </contour>
    <contour>
      <point x="210" y="173" type="curve" smooth="yes"/>
      <point x="210" y="219"/>
      <point x="210" y="257"/>
      <point x="210" y="311" type="curve" smooth="yes"/>
      <point x="210" y="342"/>
      <point x="203" y="377"/>
      <point x="170" y="377" type="curve" smooth="yes"/>
      <point x="138" y="377"/>
      <point x="130" y="342"/>
      <point x="130" y="311" type="curve" smooth="yes"/>
      <point x="130" y="263"/>
      <point x="130" y="229"/>
      <point x="130" y="173" type="curve" smooth="yes"/>
      <point x="130" y="135"/>
      <point x="137" y="106"/>
      <point x="170" y="106" type="curve" smooth="yes"/>
      <point x="203" y="106"/>
      <point x="210" y="135"/>
    </contour>
  </outline>
</glyph>
<glyph name="b" format="1">
  <advance width="346"/>
  <unicode hex="0062"/>
  <outline>
    <contour>
      <point x="321" y="142" type="curve" smooth="yes"/>
      <point x="321" y="45"/>
      <point x="269" y="0"/>
      <point x="196" y="0" type="curve" smooth="yes"/>
      <point x="170" y="0"/>
      <point x="144" y="21"/>
      <point x="136" y="29" type="curve"/>
      <point x="128" y="35"/>
      <point x="128" y="27"/>
      <point x="128" y="15" type="curve" smooth="yes"/>
      <point x="128" y="-4"/>
      <point x="113" y="0"/>
      <point x="74" y="0" type="curve" smooth="yes"/>
      <point x="45" y="0"/>
      <point x="30" y="-2"/>
      <point x="30" y="8" type="curve" smooth="yes"/>
      <point x="30" y="208"/>
      <point x="30" y="406"/>
      <point x="30" y="692" type="curve" smooth="yes"/>
      <point x="30" y="701"/>
      <point x="45" y="701"/>
      <point x="77" y="701" type="curve" smooth="yes"/>
      <point x="110" y="701"/>
      <point x="130" y="701"/>
      <point x="130" y="692" type="curve" smooth="yes"/>
      <point x="130" y="612"/>
      <point x="130" y="544"/>
      <point x="130" y="473" type="curve" smooth="yes"/>
      <point x="130" y="457"/>
      <point x="134" y="452"/>
      <point x="141" y="459" type="curve" smooth="yes"/>
      <point x="155" y="472"/>
      <point x="184" y="481"/>
      <point x="196" y="481" type="curve" smooth="yes"/>
      <point x="265" y="481"/>
      <point x="321" y="434"/>
      <point x="321" y="337" type="curve" smooth="yes"/>
      <point x="321" y="266"/>
      <point x="321" y="212"/>
    </contour>
    <contour>
      <point x="215" y="173" type="curve" smooth="yes"/>
      <point x="215" y="229"/>
      <point x="215" y="257"/>
      <point x="215" y="311" type="curve" smooth="yes"/>
      <point x="215" y="342"/>
      <point x="208" y="377"/>
      <point x="175" y="377" type="curve" smooth="yes"/>
      <point x="143" y="377"/>
      <point x="135" y="342"/>
      <point x="135" y="311" type="curve" smooth="yes"/>
      <point x="135" y="263"/>
      <point x="135" y="230"/>
      <point x="135" y="173" type="curve" smooth="yes"/>
      <point x="135" y="136"/>
      <point x="143" y="106"/>
      <point x="175" y="106" type="curve" smooth="yes"/>
      <point x="209" y="106"/>
      <point x="215" y="135"/>
    </contour>
  </outline>
</glyph>
<glyph name="c" format="1">
  <advance width="330"/>
  <unicode hex="0063"/>
  <outline>
    <contour>
      <point x="315" y="144" type="curve" smooth="yes"/>
      <point x="315" y="57"/>
      <point x="263" y="-1"/>
      <point x="170" y="-1" type="curve" smooth="yes"/>
      <point x="80" y="-1"/>
      <point x="25" y="61"/>
      <point x="25" y="144" type="curve" smooth="yes"/>
      <point x="25" y="259"/>
      <point x="25" y="222"/>
      <point x="25" y="337" type="curve" smooth="yes"/>
      <point x="25" y="425"/>
      <point x="85" y="481"/>
      <point x="170" y="481" type="curve" smooth="yes"/>
      <point x="254" y="481"/>
      <point x="315" y="434"/>
      <point x="315" y="336" type="curve" smooth="yes"/>
      <point x="315" y="325"/>
      <point x="312" y="324"/>
      <point x="257" y="324" type="curve" smooth="yes"/>
      <point x="214" y="324"/>
      <point x="210" y="325"/>
      <point x="210" y="334" type="curve" smooth="yes"/>
      <point x="210" y="365"/>
      <point x="197" y="384"/>
      <point x="170" y="384" type="curve" smooth="yes"/>
      <point x="138" y="384"/>
      <point x="129" y="357"/>
      <point x="129" y="318" type="curve" smooth="yes"/>
      <point x="129" y="265"/>
      <point x="129" y="218"/>
      <point x="129" y="163" type="curve" smooth="yes"/>
      <point x="129" y="131"/>
      <point x="132" y="96"/>
      <point x="170" y="96" type="curve" smooth="yes"/>
      <point x="202" y="96"/>
      <point x="210" y="123"/>
      <point x="210" y="147" type="curve" smooth="yes"/>
      <point x="210" y="155"/>
      <point x="211" y="159"/>
      <point x="261" y="159" type="curve" smooth="yes"/>
      <point x="310" y="159"/>
      <point x="315" y="157"/>
    </contour>
  </outline>
</glyph>
<glyph name="d" format="1">
  <advance width="345"/>
  <unicode hex="0064"/>
  <outline>
    <contour>
      <point x="315" y="8" type="curve" smooth="yes"/>
      <point x="315" y="-2"/>
      <point x="301" y="0"/>
      <point x="269" y="0" type="curve" smooth="yes"/>
      <point x="228" y="0"/>
      <point x="217" y="-5"/>
      <point x="217" y="13" type="curve" smooth="yes"/>
      <point x="217" y="25"/>
      <point x="217" y="35"/>
      <point x="209" y="29" type="curve"/>
      <point x="201" y="21"/>
      <point x="176" y="0"/>
      <point x="149" y="0" type="curve" smooth="yes"/>
      <point x="76" y="0"/>
      <point x="25" y="46"/>
      <point x="25" y="142" type="curve" smooth="yes"/>
      <point x="25" y="212"/>
      <point x="25" y="269"/>
      <point x="25" y="337" type="curve" smooth="yes"/>
      <point x="25" y="435"/>
      <point x="82" y="481"/>
      <point x="149" y="481" type="curve" smooth="yes"/>
      <point x="161" y="481"/>
      <point x="190" y="472"/>
      <point x="204" y="459" type="curve" smooth="yes"/>
      <point x="211" y="452"/>
      <point x="215" y="457"/>
      <point x="215" y="473" type="curve" smooth="yes"/>
      <point x="215" y="544"/>
      <point x="215" y="608"/>
      <point x="215" y="692" type="curve" smooth="yes"/>
      <point x="215" y="701"/>
      <point x="232" y="700"/>
      <point x="266" y="700" type="curve" smooth="yes"/>
      <point x="303" y="700"/>
      <point x="315" y="701"/>
      <point x="315" y="692" type="curve" smooth="yes"/>
      <point x="315" y="438"/>
      <point x="315" y="208"/>
    </contour>
    <contour>
      <point x="210" y="173" type="curve" smooth="yes"/>
      <point x="210" y="225"/>
      <point x="210" y="257"/>
      <point x="210" y="311" type="curve" smooth="yes"/>
      <point x="210" y="342"/>
      <point x="203" y="377"/>
      <point x="170" y="377" type="curve" smooth="yes"/>
      <point x="138" y="377"/>
      <point x="130" y="342"/>
      <point x="130" y="311" type="curve" smooth="yes"/>
      <point x="130" y="263"/>
      <point x="130" y="225"/>
      <point x="130" y="173" type="curve" smooth="yes"/>
      <point x="130" y="135"/>
      <point x="137" y="106"/>
      <point x="170" y="106" type="curve" smooth="yes"/>
      <point x="203" y="106"/>
      <point x="210" y="136"/>
    </contour>
  </outline>
</glyph>
<glyph name="e" format="1">
  <advance width="340"/>
  <unicode hex="0065"/>
  <outline>
    <contour>
      <point x="315" y="144" type="curve" smooth="yes"/>
      <point x="315" y="48"/>
      <point x="256" y="0"/>
      <point x="170" y="0" type="curve" smooth="yes"/>
      <point x="86" y="0"/>
      <point x="25" y="55"/>
      <point x="25" y="144" type="curve" smooth="yes"/>
      <point x="25" y="260"/>
      <point x="25" y="222"/>
      <point x="25" y="338" type="curve" smooth="yes"/>
      <point x="25" y="425"/>
      <point x="87" y="481"/>
      <point x="170" y="481" type="curve" smooth="yes"/>
      <point x="255" y="481"/>
      <point x="315" y="425"/>
      <point x="315" y="338" type="curve" smooth="yes"/>
      <point x="315" y="292"/>
      <point x="315" y="262"/>
      <point x="315" y="234" type="curve" smooth="yes"/>
      <point x="315" y="224"/>
      <point x="316" y="219"/>
      <point x="295" y="219" type="curve" smooth="yes"/>
      <point x="240" y="219"/>
      <point x="189" y="219"/>
      <point x="143" y="219" type="curve" smooth="yes"/>
      <point x="135" y="219"/>
      <point x="129" y="217"/>
      <point x="129" y="203" type="curve" smooth="yes"/>
      <point x="129" y="184"/>
      <point x="130" y="167"/>
      <point x="130" y="149" type="curve" smooth="yes"/>
      <point x="131" y="119"/>
      <point x="143" y="106"/>
      <point x="170" y="106" type="curve" smooth="yes"/>
      <point x="199" y="106"/>
      <point x="210" y="126"/>
      <point x="210" y="152" type="curve" smooth="yes"/>
      <point x="210" y="157"/>
      <point x="219" y="158"/>
      <point x="260" y="158" type="curve" smooth="yes"/>
      <point x="305" y="158"/>
      <point x="315" y="158"/>
    </contour>
    <contour>
      <point x="208" y="305" type="curve" smooth="yes"/>
      <point x="208" y="314"/>
      <point x="208" y="317"/>
      <point x="208" y="332" type="curve" smooth="yes"/>
      <point x="208" y="355"/>
      <point x="198" y="377"/>
      <point x="169" y="377" type="curve" smooth="yes"/>
      <point x="140" y="377"/>
      <point x="130" y="354"/>
      <point x="130" y="332" type="curve" smooth="yes"/>
      <point x="130" y="321"/>
      <point x="130" y="317"/>
      <point x="130" y="307" type="curve" smooth="yes"/>
      <point x="130" y="300"/>
      <point x="135" y="292"/>
      <point x="168" y="292" type="curve" smooth="yes"/>
      <point x="205" y="292"/>
      <point x="208" y="300"/>
    </contour>
  </outline>
</glyph>
<glyph name="g" format="1">
  <advance width="345"/>
  <unicode hex="0067"/>
  <outline>
    <contour>
      <point x="315" y="-56" type="curve" smooth="yes"/>
      <point x="315" y="-144"/>
      <point x="263" y="-200"/>
      <point x="170" y="-200" type="curve" smooth="yes"/>
      <point x="82" y="-200"/>
      <point x="25" y="-141"/>
      <point x="25" y="-56" type="curve" smooth="yes"/>
      <point x="25" y="-45"/>
      <point x="34" y="-48"/>
      <point x="78" y="-48" type="curve" smooth="yes"/>
      <point x="115" y="-48"/>
      <point x="125" y="-42"/>
      <point x="125" y="-54" type="curve" smooth="yes"/>
      <point x="125" y="-87"/>
      <point x="145" y="-107"/>
      <point x="170" y="-107" type="curve" smooth="yes"/>
      <point x="197" y="-107"/>
      <point x="212" y="-85"/>
      <point x="214" y="-48" type="curve" smooth="yes"/>
      <point x="215" y="-32"/>
      <point x="215" y="-17"/>
      <point x="215" y="1" type="curve" smooth="yes"/>
      <point x="215" y="27"/>
      <point x="213" y="32"/>
      <point x="206" y="25" type="curve"/>
      <point x="196" y="12"/>
      <point x="180" y="0"/>
      <point x="152" y="0" type="curve" smooth="yes"/>
      <point x="88" y="0"/>
      <point x="25" y="40"/>
      <point x="25" y="143" type="curve" smooth="yes"/>
      <point x="25" y="213"/>
      <point x="25" y="268"/>
      <point x="25" y="338" type="curve" smooth="yes"/>
      <point x="25" y="434"/>
      <point x="81" y="481"/>
      <point x="154" y="481" type="curve" smooth="yes"/>
      <point x="189" y="481"/>
      <point x="203" y="456"/>
      <point x="213" y="445" type="curve"/>
      <point x="220" y="439"/>
      <point x="220" y="450"/>
      <point x="220" y="466" type="curve" smooth="yes"/>
      <point x="220" y="483"/>
      <point x="227" y="479"/>
      <point x="272" y="479" type="curve" smooth="yes"/>
      <point x="305" y="479"/>
      <point x="315" y="481"/>
      <point x="315" y="471" type="curve" smooth="yes"/>
      <point x="315" y="253"/>
      <point x="315" y="89"/>
    </contour>
    <contour>
      <point x="210" y="173" type="curve" smooth="yes"/>
      <point x="210" y="229"/>
      <point x="210" y="257"/>
      <point x="210" y="311" type="curve" smooth="yes"/>
      <point x="210" y="342"/>
      <point x="202" y="377"/>
      <point x="170" y="377" type="curve" smooth="yes"/>
      <point x="136" y="377"/>
      <point x="129" y="342"/>
      <point x="129" y="311" type="curve" smooth="yes"/>
      <point x="129" y="263"/>
      <point x="129" y="230"/>
      <point x="129" y="173" type="curve" smooth="yes"/>
      <point x="129" y="135"/>
      <point x="137" y="106"/>
      <point x="170" y="106" type="curve" smooth="yes"/>
      <point x="203" y="106"/>
      <point x="210" y="135"/>
    </contour>
  </outline>
</glyph>
<glyph name="h" format="1">
  <advance width="351"/>
  <unicode hex="0068"/>
  <outline>
    <contour>
      <point x="321" y="10" type="curve" smooth="yes"/>
      <point x="321" y="0"/>
      <point x="307" y="0"/>
      <point x="270" y="0" type="curve" smooth="yes"/>
      <point x="226" y="0"/>
      <point x="213" y="0"/>
      <point x="213" y="8" type="curve" smooth="yes"/>
      <point x="213" y="98"/>
      <point x="213" y="204"/>
      <point x="213" y="318" type="curve" smooth="yes"/>
      <point x="213" y="346"/>
      <point x="204" y="378"/>
      <point x="175" y="378" type="curve" smooth="yes"/>
      <point x="145" y="378"/>
      <point x="137" y="346"/>
      <point x="137" y="318" type="curve" smooth="yes"/>
      <point x="137" y="204"/>
      <point x="137" y="100"/>
      <point x="137" y="11" type="curve" smooth="yes"/>
      <point x="137" y="-1"/>
      <point x="128" y="0"/>
      <point x="79" y="0" type="curve" smooth="yes"/>
      <point x="40" y="0"/>
      <point x="30" y="0"/>
      <point x="30" y="10" type="curve" smooth="yes"/>
      <point x="30" y="209"/>
      <point x="30" y="449"/>
      <point x="30" y="692" type="curve" smooth="yes"/>
      <point x="30" y="702"/>
      <point x="46" y="701"/>
      <point x="77" y="701" type="curve" smooth="yes"/>
      <point x="109" y="701"/>
      <point x="130" y="702"/>
      <point x="130" y="692" type="curve" smooth="yes"/>
      <point x="130" y="647"/>
      <point x="130" y="507"/>
      <point x="130" y="473" type="curve" smooth="yes"/>
      <point x="130" y="457"/>
      <point x="134" y="452"/>
      <point x="141" y="459" type="curve" smooth="yes"/>
      <point x="155" y="472"/>
      <point x="183" y="481"/>
      <point x="196" y="481" type="curve" smooth="yes"/>
      <point x="264" y="481"/>
      <point x="321" y="435"/>
      <point x="321" y="337" type="curve" smooth="yes"/>
      <point x="321" y="248"/>
      <point x="321" y="111"/>
    </contour>
  </outline>
</glyph>
<glyph name="i" format="1">
  <advance width="177"/>
  <unicode hex="0069"/>
  <outline>
    <contour>
      <point x="145" y="615" type="curve" smooth="yes"/>
      <point x="148" y="579"/>
      <point x="152" y="554"/>
      <point x="87" y="546" type="curve" smooth="yes"/>
      <point x="50" y="542"/>
      <point x="22" y="581"/>
      <point x="26" y="618" type="curve" smooth="yes"/>
      <point x="29" y="650"/>
      <point x="38" y="680"/>
      <point x="87" y="678" type="curve" smooth="yes"/>
      <point x="120" y="676"/>
      <point x="143" y="649"/>
    </contour>
    <contour>
      <point x="142" y="18" type="curve" smooth="yes"/>
      <point x="142" y="0"/>
      <point x="140" y="0"/>
      <point x="86" y="0" type="curve" smooth="yes"/>
      <point x="36" y="0"/>
      <point x="35" y="0"/>
      <point x="35" y="16" type="curve" smooth="yes"/>
      <point x="35" y="155"/>
      <point x="35" y="321"/>
      <point x="35" y="464" type="curve" smooth="yes"/>
      <point x="35" y="480"/>
      <point x="39" y="481"/>
      <point x="86" y="481" type="curve" smooth="yes"/>
      <point x="138" y="481"/>
      <point x="142" y="481"/>
      <point x="142" y="463" type="curve" smooth="yes"/>
      <point x="142" y="346"/>
      <point x="142" y="173"/>
    </contour>
  </outline>
</glyph>
<glyph name="j" format="1">
  <advance width="177"/>
  <unicode hex="006A"/>
  <outline>
    <contour>
      <point x="146" y="615" type="curve" smooth="yes"/>
      <point x="148" y="579"/>
      <point x="152" y="553"/>
      <point x="87" y="546" type="curve" smooth="yes"/>
      <point x="51" y="542"/>
      <point x="22" y="581"/>
      <point x="26" y="618" type="curve" smooth="yes"/>
      <point x="30" y="650"/>
      <point x="38" y="680"/>
      <point x="87" y="678" type="curve" smooth="yes"/>
      <point x="121" y="676"/>
      <point x="144" y="649"/>
    </contour>
    <contour>
      <point x="141" y="-57" type="curve" smooth="yes"/>
      <point x="141" y="-150"/>
      <point x="91" y="-200"/>
      <point x="-17" y="-200" type="curve" smooth="yes"/>
      <point x="-26" y="-200"/>
      <point x="-29" y="-194"/>
      <point x="-29" y="-152" type="curve" smooth="yes"/>
      <point x="-29" y="-109"/>
      <point x="-26" y="-101"/>
      <point x="-18" y="-101" type="curve" smooth="yes"/>
      <point x="29" y="-101"/>
      <point x="36" y="-84"/>
      <point x="36" y="-37" type="curve" smooth="yes"/>
      <point x="36" y="49"/>
      <point x="36" y="242"/>
      <point x="36" y="463" type="curve" smooth="yes"/>
      <point x="36" y="477"/>
      <point x="38" y="481"/>
      <point x="88" y="481" type="curve" smooth="yes"/>
      <point x="140" y="481"/>
      <point x="141" y="477"/>
      <point x="141" y="464" type="curve" smooth="yes"/>
      <point x="141" y="321"/>
      <point x="141" y="39"/>
    </contour>
  </outline>
</glyph>
<glyph name="k" format="1">
  <advance width="341"/>
  <unicode hex="006B"/>
  <outline>
    <contour>
      <point x="331" y="12" type="curve" smooth="yes"/>
      <point x="333" y="6"/>
      <point x="326" y="0"/>
      <point x="273" y="0" type="curve" smooth="yes"/>
      <point x="241" y="0"/>
      <point x="227" y="1"/>
      <point x="222" y="14" type="curve" smooth="yes"/>
      <point x="197" y="86"/>
      <point x="192" y="96"/>
      <point x="168" y="165" type="curve" smooth="yes"/>
      <point x="162" y="184"/>
      <point x="155" y="187"/>
      <point x="149" y="182" type="curve" smooth="yes"/>
      <point x="143" y="177"/>
      <point x="137" y="172"/>
      <point x="137" y="159" type="curve" smooth="yes"/>
      <point x="137" y="103"/>
      <point x="137" y="76"/>
      <point x="137" y="18" type="curve" smooth="yes"/>
      <point x="137" y="1"/>
      <point x="111" y="1"/>
      <point x="81" y="1" type="curve" smooth="yes"/>
      <point x="55" y="1"/>
      <point x="30" y="2"/>
      <point x="30" y="16" type="curve" smooth="yes"/>
      <point x="30" y="267"/>
      <point x="30" y="445"/>
      <point x="30" y="685" type="curve" smooth="yes"/>
      <point x="30" y="698"/>
      <point x="65" y="699"/>
      <point x="81" y="699" type="curve" smooth="yes"/>
      <point x="100" y="699"/>
      <point x="137" y="699"/>
      <point x="137" y="684" type="curve" smooth="yes"/>
      <point x="137" y="560"/>
      <point x="137" y="449"/>
      <point x="137" y="335" type="curve" smooth="yes"/>
      <point x="137" y="323"/>
      <point x="140" y="315"/>
      <point x="144" y="320" type="curve" smooth="yes"/>
      <point x="148" y="325"/>
      <point x="151" y="333"/>
      <point x="155" y="341" type="curve"/>
      <point x="174" y="392"/>
      <point x="185" y="422"/>
      <point x="202" y="470" type="curve" smooth="yes"/>
      <point x="206" y="480"/>
      <point x="226" y="480"/>
      <point x="249" y="480" type="curve" smooth="yes"/>
      <point x="273" y="480"/>
      <point x="318" y="480"/>
      <point x="314" y="470" type="curve" smooth="yes"/>
      <point x="285" y="405"/>
      <point x="270" y="371"/>
      <point x="241" y="308" type="curve" smooth="yes"/>
      <point x="237" y="299"/>
      <point x="232" y="289"/>
      <point x="232" y="282" type="curve" smooth="yes"/>
      <point x="232" y="277"/>
      <point x="234" y="264"/>
      <point x="238" y="255" type="curve" smooth="yes"/>
      <point x="277" y="157"/>
      <point x="296" y="105"/>
    </contour>
  </outline>
</glyph>
<glyph name="l" format="1">
  <advance width="172"/>
  <unicode hex="006C"/>
  <outline>
    <contour>
      <point x="139" y="16" type="curve" smooth="yes"/>
      <point x="139" y="1"/>
      <point x="137" y="0"/>
      <point x="83" y="0" type="curve" smooth="yes"/>
      <point x="36" y="0"/>
      <point x="33" y="0"/>
      <point x="33" y="14" type="curve" smooth="yes"/>
      <point x="33" y="265"/>
      <point x="33" y="443"/>
      <point x="33" y="683" type="curve" smooth="yes"/>
      <point x="33" y="698"/>
      <point x="38" y="699"/>
      <point x="83" y="699" type="curve" smooth="yes"/>
      <point x="133" y="699"/>
      <point x="139" y="698"/>
      <point x="139" y="682" type="curve" smooth="yes"/>
      <point x="139" y="521"/>
      <point x="139" y="271"/>
    </contour>
  </outline>
</glyph>
<glyph name="m" format="1">
  <advance width="502"/>
  <unicode hex="006D"/>
  <outline>
    <contour>
      <point x="472" y="10" type="curve" smooth="yes"/>
      <point x="472" y="1"/>
      <point x="463" y="0"/>
      <point x="422" y="0" type="curve" smooth="yes"/>
      <point x="373" y="0"/>
      <point x="364" y="1"/>
      <point x="364" y="9" type="curve" smooth="yes"/>
      <point x="364" y="116"/>
      <point x="364" y="201"/>
      <point x="364" y="314" type="curve" smooth="yes"/>
      <point x="364" y="346"/>
      <point x="366" y="377"/>
      <point x="332" y="377" type="curve" smooth="yes"/>
      <point x="303" y="377"/>
      <point x="305" y="349"/>
      <point x="305" y="317" type="curve" smooth="yes"/>
      <point x="305" y="199"/>
      <point x="305" y="135"/>
      <point x="305" y="10" type="curve" smooth="yes"/>
      <point x="305" y="0"/>
      <point x="292" y="0"/>
      <point x="254" y="0" type="curve" smooth="yes"/>
      <point x="209" y="0"/>
      <point x="197" y="1"/>
      <point x="197" y="9" type="curve" smooth="yes"/>
      <point x="197" y="118"/>
      <point x="197" y="200"/>
      <point x="197" y="318" type="curve" smooth="yes"/>
      <point x="197" y="346"/>
      <point x="197" y="377"/>
      <point x="167" y="377" type="curve" smooth="yes"/>
      <point x="138" y="377"/>
      <point x="137" y="349"/>
      <point x="137" y="317" type="curve" smooth="yes"/>
      <point x="137" y="198"/>
      <point x="137" y="122"/>
      <point x="137" y="11" type="curve" smooth="yes"/>
      <point x="137" y="1"/>
      <point x="133" y="0"/>
      <point x="80" y="0" type="curve" smooth="yes"/>
      <point x="34" y="0"/>
      <point x="30" y="1"/>
      <point x="30" y="10" type="curve" smooth="yes"/>
      <point x="30" y="209"/>
      <point x="30" y="306"/>
      <point x="30" y="472" type="curve" smooth="yes"/>
      <point x="30" y="481"/>
      <point x="38" y="480"/>
      <point x="73" y="480" type="curve" smooth="yes"/>
      <point x="120" y="480"/>
      <point x="128" y="483"/>
      <point x="128" y="464" type="curve" smooth="yes"/>
      <point x="128" y="452"/>
      <point x="129" y="437"/>
      <point x="133" y="444" type="curve"/>
      <point x="139" y="459"/>
      <point x="168" y="480"/>
      <point x="192" y="480" type="curve" smooth="yes"/>
      <point x="256" y="480"/>
      <point x="259" y="438"/>
      <point x="265" y="438" type="curve" smooth="yes"/>
      <point x="274" y="438"/>
      <point x="280" y="480"/>
      <point x="348" y="480" type="curve" smooth="yes"/>
      <point x="426" y="480"/>
      <point x="472" y="434"/>
      <point x="472" y="335" type="curve" smooth="yes"/>
      <point x="472" y="250"/>
      <point x="472" y="132"/>
    </contour>
  </outline>
</glyph>
<glyph name="n" format="1">
  <advance width="351"/>
  <unicode hex="006E"/>
  <outline>
    <contour>
      <point x="321" y="10" type="curve" smooth="yes"/>
      <point x="321" y="1"/>
      <point x="312" y="0"/>
      <point x="271" y="0" type="curve" smooth="yes"/>
      <point x="223" y="0"/>
      <point x="213" y="1"/>
      <point x="213" y="8" type="curve" smooth="yes"/>
      <point x="213" y="100"/>
      <point x="213" y="196"/>
      <point x="213" y="314" type="curve" smooth="yes"/>
      <point x="213" y="344"/>
      <point x="211" y="377"/>
      <point x="183" y="377" type="curve" smooth="yes"/>
      <point x="150" y="377"/>
      <point x="137" y="350"/>
      <point x="137" y="317" type="curve" smooth="yes"/>
      <point x="137" y="207"/>
      <point x="137" y="100"/>
      <point x="137" y="11" type="curve" smooth="yes"/>
      <point x="137" y="0"/>
      <point x="133" y="0"/>
      <point x="80" y="0" type="curve" smooth="yes"/>
      <point x="35" y="0"/>
      <point x="30" y="1"/>
      <point x="30" y="10" type="curve" smooth="yes"/>
      <point x="30" y="209"/>
      <point x="30" y="306"/>
      <point x="30" y="472" type="curve" smooth="yes"/>
      <point x="30" y="481"/>
      <point x="38" y="480"/>
      <point x="75" y="480" type="curve" smooth="yes"/>
      <point x="121" y="480"/>
      <point x="128" y="483"/>
      <point x="128" y="465" type="curve" smooth="yes"/>
      <point x="128" y="439"/>
      <point x="128" y="431"/>
      <point x="135" y="442" type="curve" smooth="yes"/>
      <point x="147" y="463"/>
      <point x="184" y="480"/>
      <point x="204" y="480" type="curve" smooth="yes"/>
      <point x="270" y="480"/>
      <point x="321" y="441"/>
      <point x="321" y="335" type="curve" smooth="yes"/>
      <point x="321" y="245"/>
      <point x="321" y="119"/>
    </contour>
  </outline>
</glyph>
<glyph name="o" format="1">
  <advance width="341"/>
  <unicode hex="006F"/>
  <outline>
    <contour>
      <point x="316" y="144" type="curve" smooth="yes"/>
      <point x="316" y="48"/>
      <point x="256" y="0"/>
      <point x="170" y="0" type="curve" smooth="yes"/>
      <point x="87" y="0"/>
      <point x="25" y="54"/>
      <point x="25" y="144" type="curve" smooth="yes"/>
      <point x="25" y="260"/>
      <point x="25" y="222"/>
      <point x="25" y="338" type="curve" smooth="yes"/>
      <point x="25" y="425"/>
      <point x="87" y="481"/>
      <point x="170" y="481" type="curve" smooth="yes"/>
      <point x="256" y="481"/>
      <point x="316" y="425"/>
      <point x="316" y="338" type="curve" smooth="yes"/>
      <point x="316" y="224"/>
      <point x="316" y="259"/>
    </contour>
    <contour>
      <point x="210" y="173" type="curve" smooth="yes"/>
      <point x="210" y="229"/>
      <point x="210" y="257"/>
      <point x="210" y="311" type="curve" smooth="yes"/>
      <point x="210" y="342"/>
      <point x="203" y="377"/>
      <point x="170" y="377" type="curve" smooth="yes"/>
      <point x="138" y="377"/>
      <point x="130" y="342"/>
      <point x="130" y="311" type="curve" smooth="yes"/>
      <point x="130" y="263"/>
      <point x="130" y="230"/>
      <point x="130" y="173" type="curve" smooth="yes"/>
      <point x="130" y="135"/>
      <point x="138" y="106"/>
      <point x="170" y="106" type="curve" smooth="yes"/>
      <point x="204" y="106"/>
      <point x="210" y="136"/>
    </contour>
  </outline>
</glyph>
<glyph name="p" format="1">
  <advance width="346"/>
  <unicode hex="0070"/>
  <outline>
    <contour>
      <point x="321" y="143" type="curve" smooth="yes"/>
      <point x="321" y="52"/>
      <point x="264" y="0"/>
      <point x="193" y="0" type="curve" smooth="yes"/>
      <point x="183" y="0"/>
      <point x="155" y="8"/>
      <point x="141" y="21" type="curve" smooth="yes"/>
      <point x="134" y="27"/>
      <point x="130" y="23"/>
      <point x="130" y="7" type="curve" smooth="yes"/>
      <point x="130" y="-46"/>
      <point x="130" y="-103"/>
      <point x="130" y="-192" type="curve" smooth="yes"/>
      <point x="130" y="-201"/>
      <point x="131" y="-200"/>
      <point x="80" y="-200" type="curve" smooth="yes"/>
      <point x="37" y="-200"/>
      <point x="30" y="-200"/>
      <point x="30" y="-191" type="curve" smooth="yes"/>
      <point x="30" y="65"/>
      <point x="30" y="253"/>
      <point x="30" y="471" type="curve" smooth="yes"/>
      <point x="30" y="481"/>
      <point x="38" y="480"/>
      <point x="75" y="480" type="curve" smooth="yes"/>
      <point x="120" y="480"/>
      <point x="125" y="485"/>
      <point x="128" y="466" type="curve" smooth="yes"/>
      <point x="130" y="454"/>
      <point x="128" y="442"/>
      <point x="135" y="446" type="curve"/>
      <point x="142" y="453"/>
      <point x="155" y="481"/>
      <point x="193" y="481" type="curve" smooth="yes"/>
      <point x="263" y="481"/>
      <point x="321" y="431"/>
      <point x="321" y="337" type="curve" smooth="yes"/>
      <point x="321" y="267"/>
      <point x="321" y="226"/>
    </contour>
    <contour>
      <point x="215" y="173" type="curve" smooth="yes"/>
      <point x="215" y="229"/>
      <point x="215" y="257"/>
      <point x="215" y="311" type="curve" smooth="yes"/>
      <point x="215" y="342"/>
      <point x="208" y="377"/>
      <point x="175" y="377" type="curve" smooth="yes"/>
      <point x="143" y="377"/>
      <point x="135" y="342"/>
      <point x="135" y="311" type="curve" smooth="yes"/>
      <point x="135" y="263"/>
      <point x="135" y="230"/>
      <point x="135" y="173" type="curve" smooth="yes"/>
      <point x="135" y="135"/>
      <point x="143" y="106"/>
      <point x="175" y="106" type="curve" smooth="yes"/>
      <point x="209" y="106"/>
      <point x="215" y="136"/>
    </contour>
  </outline>
</glyph>
<glyph name="q" format="1">
  <advance width="346"/>
  <unicode hex="0071"/>
  <outline>
    <contour>
      <point x="316" y="-191" type="curve" smooth="yes"/>
      <point x="316" y="-200"/>
      <point x="308" y="-200"/>
      <point x="266" y="-200" type="curve" smooth="yes"/>
      <point x="216" y="-200"/>
      <point x="216" y="-200"/>
      <point x="216" y="-192" type="curve" smooth="yes"/>
      <point x="216" y="-99"/>
      <point x="216" y="-46"/>
      <point x="216" y="7" type="curve" smooth="yes"/>
      <point x="216" y="23"/>
      <point x="212" y="27"/>
      <point x="205" y="21" type="curve" smooth="yes"/>
      <point x="190" y="8"/>
      <point x="163" y="0"/>
      <point x="152" y="0" type="curve" smooth="yes"/>
      <point x="88" y="0"/>
      <point x="25" y="46"/>
      <point x="25" y="143" type="curve" smooth="yes"/>
      <point x="25" y="226"/>
      <point x="25" y="267"/>
      <point x="25" y="337" type="curve" smooth="yes"/>
      <point x="25" y="431"/>
      <point x="82" y="481"/>
      <point x="152" y="481" type="curve" smooth="yes"/>
      <point x="190" y="481"/>
      <point x="203" y="452"/>
      <point x="210" y="445" type="curve"/>
      <point x="218" y="442"/>
      <point x="217" y="453"/>
      <point x="217" y="464" type="curve" smooth="yes"/>
      <point x="217" y="483"/>
      <point x="226" y="480"/>
      <point x="272" y="480" type="curve" smooth="yes"/>
      <point x="305" y="480"/>
      <point x="316" y="482"/>
      <point x="316" y="471" type="curve" smooth="yes"/>
      <point x="316" y="253"/>
      <point x="316" y="66"/>
    </contour>
    <contour>
      <point x="211" y="173" type="curve" smooth="yes"/>
      <point x="211" y="228"/>
      <point x="211" y="257"/>
      <point x="211" y="311" type="curve" smooth="yes"/>
      <point x="211" y="342"/>
      <point x="203" y="377"/>
      <point x="170" y="377" type="curve" smooth="yes"/>
      <point x="138" y="377"/>
      <point x="130" y="342"/>
      <point x="130" y="311" type="curve" smooth="yes"/>
      <point x="130" y="263"/>
      <point x="130" y="231"/>
      <point x="130" y="173" type="curve" smooth="yes"/>
      <point x="130" y="135"/>
      <point x="137" y="106"/>
      <point x="170" y="106" type="curve" smooth="yes"/>
      <point x="203" y="106"/>
      <point x="211" y="136"/>
    </contour>
  </outline>
</glyph>
<glyph name="r" format="1">
  <advance width="235"/>
  <unicode hex="0072"/>
  <outline>
    <contour>
      <point x="225" y="442" type="curve" smooth="yes"/>
      <point x="225" y="400"/>
      <point x="224" y="387"/>
      <point x="221" y="383" type="curve" smooth="yes"/>
      <point x="215" y="375"/>
      <point x="202" y="375"/>
      <point x="195" y="375" type="curve" smooth="yes"/>
      <point x="161" y="375"/>
      <point x="137" y="345"/>
      <point x="137" y="306" type="curve" smooth="yes"/>
      <point x="137" y="198"/>
      <point x="137" y="121"/>
      <point x="137" y="11" type="curve" smooth="yes"/>
      <point x="137" y="0"/>
      <point x="131" y="0"/>
      <point x="80" y="0" type="curve" smooth="yes"/>
      <point x="37" y="0"/>
      <point x="30" y="1"/>
      <point x="30" y="10" type="curve" smooth="yes"/>
      <point x="30" y="209"/>
      <point x="30" y="306"/>
      <point x="30" y="472" type="curve" smooth="yes"/>
      <point x="30" y="481"/>
      <point x="39" y="479"/>
      <point x="75" y="479" type="curve" smooth="yes"/>
      <point x="119" y="479"/>
      <point x="128" y="483"/>
      <point x="128" y="465" type="curve" smooth="yes"/>
      <point x="128" y="453"/>
      <point x="129" y="444"/>
      <point x="132" y="445" type="curve"/>
      <point x="137" y="448"/>
      <point x="155" y="480"/>
      <point x="209" y="480" type="curve" smooth="yes"/>
      <point x="223" y="480"/>
      <point x="225" y="482"/>
    </contour>
  </outline>
</glyph>
<glyph name="s" format="1">
  <advance width="318"/>
  <unicode hex="0073"/>
  <outline>
    <contour>
      <point x="298" y="127" type="curve" smooth="yes"/>
      <point x="298" y="59"/>
      <point x="235" y="0"/>
      <point x="159" y="0" type="curve" smooth="yes"/>
      <point x="83" y="0"/>
      <point x="20" y="54"/>
      <point x="20" y="140" type="curve" smooth="yes"/>
      <point x="20" y="147"/>
      <point x="28" y="147"/>
      <point x="66" y="147" type="curve" smooth="yes"/>
      <point x="103" y="147"/>
      <point x="118" y="148"/>
      <point x="118" y="142" type="curve" smooth="yes"/>
      <point x="118" y="115"/>
      <point x="127" y="92"/>
      <point x="157" y="92" type="curve" smooth="yes"/>
      <point x="187" y="92"/>
      <point x="196" y="110"/>
      <point x="196" y="135" type="curve" smooth="yes"/>
      <point x="196" y="225"/>
      <point x="23" y="186"/>
      <point x="23" y="351" type="curve" smooth="yes"/>
      <point x="23" y="414"/>
      <point x="73" y="480"/>
      <point x="157" y="480" type="curve" smooth="yes"/>
      <point x="236" y="480"/>
      <point x="291" y="414"/>
      <point x="291" y="339" type="curve" smooth="yes"/>
      <point x="291" y="333"/>
      <point x="279" y="334"/>
      <point x="243" y="334" type="curve" smooth="yes"/>
      <point x="202" y="334"/>
      <point x="190" y="336"/>
      <point x="190" y="341" type="curve" smooth="yes"/>
      <point x="190" y="374"/>
      <point x="175" y="392"/>
      <point x="155" y="392" type="curve" smooth="yes"/>
      <point x="133" y="392"/>
      <point x="120" y="377"/>
      <point x="120" y="349" type="curve" smooth="yes"/>
      <point x="120" y="281"/>
      <point x="298" y="291"/>
    </contour>
  </outline>
</glyph>
<glyph name="t" format="1">
  <advance width="242"/>
  <unicode hex="0074"/>
  <outline>
    <contour>
      <point x="224" y="47" type="curve" smooth="yes"/>
      <point x="224" y="4"/>
      <point x="225" y="0"/>
      <point x="215" y="0" type="curve" smooth="yes"/>
      <point x="90" y="0"/>
      <point x="52" y="56"/>
      <point x="52" y="143" type="curve" smooth="yes"/>
      <point x="52" y="218"/>
      <point x="52" y="317"/>
      <point x="52" y="369" type="curve" smooth="yes"/>
      <point x="52" y="380"/>
      <point x="40" y="383"/>
      <point x="22" y="383" type="curve" smooth="yes"/>
      <point x="11" y="383"/>
      <point x="10" y="387"/>
      <point x="10" y="422" type="curve" smooth="yes"/>
      <point x="10" y="464"/>
      <point x="14" y="468"/>
      <point x="23" y="468" type="curve" smooth="yes"/>
      <point x="51" y="468"/>
      <point x="52" y="471"/>
      <point x="52" y="489" type="curve" smooth="yes"/>
      <point x="52" y="534"/>
      <point x="52" y="480"/>
      <point x="52" y="544" type="curve" smooth="yes"/>
      <point x="52" y="558"/>
      <point x="57" y="558"/>
      <point x="105" y="558" type="curve" smooth="yes"/>
      <point x="152" y="558"/>
      <point x="159" y="558"/>
      <point x="159" y="542" type="curve" smooth="yes"/>
      <point x="159" y="479"/>
      <point x="159" y="534"/>
      <point x="159" y="489" type="curve" smooth="yes"/>
      <point x="159" y="472"/>
      <point x="164" y="470"/>
      <point x="207" y="470" type="curve" smooth="yes"/>
      <point x="218" y="470"/>
      <point x="222" y="463"/>
      <point x="222" y="423" type="curve" smooth="yes"/>
      <point x="222" y="386"/>
      <point x="222" y="382"/>
      <point x="210" y="382" type="curve" smooth="yes"/>
      <point x="195" y="382"/>
      <point x="168" y="382"/>
      <point x="163" y="377" type="curve" smooth="yes"/>
      <point x="160" y="374"/>
      <point x="159" y="365"/>
      <point x="159" y="358" type="curve" smooth="yes"/>
      <point x="159" y="279"/>
      <point x="159" y="215"/>
      <point x="159" y="157" type="curve" smooth="yes"/>
      <point x="159" y="109"/>
      <point x="181" y="99"/>
      <point x="214" y="99" type="curve" smooth="yes"/>
      <point x="221" y="99"/>
      <point x="224" y="92"/>
    </contour>
  </outline>
</glyph>
<glyph name="u" format="1">
  <advance width="346"/>
  <unicode hex="0075"/>
  <outline>
    <contour>
      <point x="316" y="8" type="curve" smooth="yes"/>
      <point x="316" y="-2"/>
      <point x="307" y="0"/>
      <point x="272" y="0" type="curve" smooth="yes"/>
      <point x="244" y="0"/>
      <point x="230" y="0"/>
      <point x="224" y="4" type="curve"/>
      <point x="219" y="9"/>
      <point x="217" y="18"/>
      <point x="217" y="28" type="curve" smooth="yes"/>
      <point x="217" y="43"/>
      <point x="217" y="52"/>
      <point x="211" y="41" type="curve" smooth="yes"/>
      <point x="199" y="20"/>
      <point x="174" y="-1"/>
      <point x="144" y="-1" type="curve" smooth="yes"/>
      <point x="78" y="-1"/>
      <point x="25" y="38"/>
      <point x="25" y="145" type="curve" smooth="yes"/>
      <point x="25" y="234"/>
      <point x="25" y="369"/>
      <point x="25" y="470" type="curve" smooth="yes"/>
      <point x="25" y="479"/>
      <point x="36" y="480"/>
      <point x="74" y="480" type="curve" smooth="yes"/>
      <point x="122" y="480"/>
      <point x="130" y="478"/>
      <point x="130" y="470" type="curve" smooth="yes"/>
      <point x="130" y="352"/>
      <point x="130" y="302"/>
      <point x="130" y="172" type="curve" smooth="yes"/>
      <point x="130" y="142"/>
      <point x="130" y="103"/>
      <point x="162" y="103" type="curve" smooth="yes"/>
      <point x="201" y="103"/>
      <point x="211" y="136"/>
      <point x="211" y="169" type="curve" smooth="yes"/>
      <point x="211" y="291"/>
      <point x="211" y="369"/>
      <point x="211" y="467" type="curve" smooth="yes"/>
      <point x="211" y="478"/>
      <point x="213" y="479"/>
      <point x="264" y="479" type="curve" smooth="yes"/>
      <point x="310" y="479"/>
      <point x="316" y="478"/>
      <point x="316" y="470" type="curve" smooth="yes"/>
      <point x="316" y="270"/>
      <point x="316" y="173"/>
    </contour>
  </outline>
</glyph>
<glyph name="v" format="1">
  <advance width="314"/>
  <unicode hex="0076"/>
  <outline>
    <contour>
      <point x="304" y="463" type="curve" smooth="yes"/>
      <point x="271" y="303"/>
      <point x="243" y="172"/>
      <point x="209" y="16" type="curve" smooth="yes"/>
      <point x="206" y="2"/>
      <point x="186" y="0"/>
      <point x="154" y="0" type="curve" smooth="yes"/>
      <point x="124" y="0"/>
      <point x="99" y="-1"/>
      <point x="95" y="19" type="curve" smooth="yes"/>
      <point x="68" y="163"/>
      <point x="40" y="307"/>
      <point x="10" y="467" type="curve" smooth="yes"/>
      <point x="8" y="478"/>
      <point x="33" y="479"/>
      <point x="56" y="479" type="curve" smooth="yes"/>
      <point x="84" y="479"/>
      <point x="115" y="478"/>
      <point x="117" y="465" type="curve" smooth="yes"/>
      <point x="129" y="357"/>
      <point x="137" y="282"/>
      <point x="149" y="171" type="curve"/>
      <point x="149" y="168"/>
      <point x="150" y="161"/>
      <point x="155" y="161" type="curve" smooth="yes"/>
      <point x="161" y="161"/>
      <point x="161" y="168"/>
      <point x="162" y="172" type="curve"/>
      <point x="176" y="286"/>
      <point x="185" y="352"/>
      <point x="198" y="466" type="curve" smooth="yes"/>
      <point x="199" y="477"/>
      <point x="231" y="480"/>
      <point x="255" y="480" type="curve" smooth="yes"/>
      <point x="284" y="480"/>
      <point x="307" y="477"/>
    </contour>
  </outline>
</glyph>
<glyph name="w" format="1">
  <advance width="409"/>
  <unicode hex="0077"/>
  <outline>
    <contour>
      <point x="399" y="466" type="curve" smooth="yes"/>
      <point x="371" y="284"/>
      <point x="352" y="154"/>
      <point x="329" y="10" type="curve" smooth="yes"/>
      <point x="327" y="-5"/>
      <point x="303" y="-1"/>
      <point x="282" y="0" type="curve" smooth="yes"/>
      <point x="269" y="1"/>
      <point x="237" y="0"/>
      <point x="235" y="13" type="curve" smooth="yes"/>
      <point x="228" y="75"/>
      <point x="221" y="119"/>
      <point x="212" y="188" type="curve"/>
      <point x="211" y="192"/>
      <point x="211" y="199"/>
      <point x="205" y="199" type="curve" smooth="yes"/>
      <point x="200" y="199"/>
      <point x="199" y="192"/>
      <point x="199" y="189" type="curve"/>
      <point x="188" y="116"/>
      <point x="182" y="75"/>
      <point x="173" y="9" type="curve" smooth="yes"/>
      <point x="171" y="-3"/>
      <point x="144" y="-1"/>
      <point x="123" y="0" type="curve" smooth="yes"/>
      <point x="110" y="1"/>
      <point x="80" y="0"/>
      <point x="78" y="13" type="curve" smooth="yes"/>
      <point x="57" y="152"/>
      <point x="32" y="316"/>
      <point x="10" y="461" type="curve" smooth="yes"/>
      <point x="8" y="471"/>
      <point x="21" y="478"/>
      <point x="52" y="478" type="curve" smooth="yes"/>
      <point x="88" y="478"/>
      <point x="102" y="475"/>
      <point x="103" y="462" type="curve" smooth="yes"/>
      <point x="117" y="342"/>
      <point x="121" y="297"/>
      <point x="132" y="195" type="curve"/>
      <point x="132" y="192"/>
      <point x="133" y="185"/>
      <point x="138" y="185" type="curve" smooth="yes"/>
      <point x="144" y="185"/>
      <point x="144" y="192"/>
      <point x="145" y="196" type="curve"/>
      <point x="155" y="312"/>
      <point x="161" y="363"/>
      <point x="169" y="467" type="curve" smooth="yes"/>
      <point x="170" y="476"/>
      <point x="176" y="479"/>
      <point x="202" y="479" type="curve" smooth="yes"/>
      <point x="228" y="479"/>
      <point x="241" y="478"/>
      <point x="242" y="467" type="curve" smooth="yes"/>
      <point x="250" y="362"/>
      <point x="256" y="307"/>
      <point x="265" y="197" type="curve" smooth="yes"/>
      <point x="265" y="194"/>
      <point x="266" y="187"/>
      <point x="271" y="187" type="curve" smooth="yes"/>
      <point x="277" y="187"/>
      <point x="277" y="194"/>
      <point x="278" y="198" type="curve"/>
      <point x="290" y="318"/>
      <point x="297" y="372"/>
      <point x="306" y="469" type="curve" smooth="yes"/>
      <point x="307" y="478"/>
      <point x="321" y="480"/>
      <point x="346" y="480" type="curve" smooth="yes"/>
      <point x="378" y="480"/>
      <point x="401" y="478"/>
    </contour>
  </outline>
</glyph>
<glyph name="x" format="1">
  <advance width="319"/>
  <unicode hex="0078"/>
  <outline>
    <contour>
      <point x="309" y="12" type="curve" smooth="yes"/>
      <point x="312" y="4"/>
      <point x="294" y="0"/>
      <point x="261" y="0" type="curve" smooth="yes"/>
      <point x="231" y="0"/>
      <point x="204" y="1"/>
      <point x="201" y="11" type="curve" smooth="yes"/>
      <point x="189" y="55"/>
      <point x="176" y="99"/>
      <point x="163" y="142" type="curve" smooth="yes"/>
      <point x="162" y="145"/>
      <point x="161" y="151"/>
      <point x="157" y="151" type="curve" smooth="yes"/>
      <point x="152" y="151"/>
      <point x="151" y="145"/>
      <point x="150" y="141" type="curve" smooth="yes"/>
      <point x="138" y="98"/>
      <point x="127" y="58"/>
      <point x="112" y="13" type="curve" smooth="yes"/>
      <point x="108" y="0"/>
      <point x="82" y="0"/>
      <point x="54" y="0" type="curve" smooth="yes"/>
      <point x="28" y="0"/>
      <point x="7" y="2"/>
      <point x="10" y="13" type="curve"/>
      <point x="37" y="83"/>
      <point x="61" y="149"/>
      <point x="86" y="220" type="curve" smooth="yes"/>
      <point x="89" y="227"/>
      <point x="89" y="234"/>
      <point x="89" y="243" type="curve" smooth="yes"/>
      <point x="89" y="254"/>
      <point x="89" y="260"/>
      <point x="85" y="270" type="curve" smooth="yes"/>
      <point x="61" y="336"/>
      <point x="39" y="398"/>
      <point x="14" y="467" type="curve" smooth="yes"/>
      <point x="12" y="474"/>
      <point x="32" y="479"/>
      <point x="58" y="479" type="curve" smooth="yes"/>
      <point x="90" y="479"/>
      <point x="118" y="477"/>
      <point x="121" y="466" type="curve" smooth="yes"/>
      <point x="130" y="426"/>
      <point x="142" y="380"/>
      <point x="151" y="342" type="curve"/>
      <point x="152" y="339"/>
      <point x="153" y="333"/>
      <point x="157" y="333" type="curve" smooth="yes"/>
      <point x="161" y="333"/>
      <point x="161" y="340"/>
      <point x="162" y="343" type="curve"/>
      <point x="172" y="385"/>
      <point x="183" y="428"/>
      <point x="192" y="471" type="curve" smooth="yes"/>
      <point x="194" y="480"/>
      <point x="221" y="479"/>
      <point x="249" y="479" type="curve" smooth="yes"/>
      <point x="281" y="479"/>
      <point x="299" y="473"/>
      <point x="297" y="467" type="curve" smooth="yes"/>
      <point x="273" y="397"/>
      <point x="250" y="336"/>
      <point x="227" y="271" type="curve" smooth="yes"/>
      <point x="224" y="262"/>
      <point x="223" y="255"/>
      <point x="223" y="244" type="curve" smooth="yes"/>
      <point x="223" y="235"/>
      <point x="223" y="228"/>
      <point x="226" y="222" type="curve"/>
      <point x="253" y="152"/>
      <point x="281" y="83"/>
    </contour>
  </outline>
</glyph>
<glyph name="y" format="1">
  <advance width="329"/>
  <unicode hex="0079"/>
  <outline>
    <contour>
      <point x="319" y="466" type="curve" smooth="yes"/>
      <point x="261" y="228"/>
      <point x="211" y="27"/>
      <point x="158" y="-187" type="curve" smooth="yes"/>
      <point x="155" y="-199"/>
      <point x="136" y="-200"/>
      <point x="110" y="-200" type="curve" smooth="yes"/>
      <point x="89" y="-200"/>
      <point x="62" y="-199"/>
      <point x="65" y="-184" type="curve" smooth="yes"/>
      <point x="80" y="-113"/>
      <point x="90" y="-66"/>
      <point x="104" y="3" type="curve" smooth="yes"/>
      <point x="107" y="16"/>
      <point x="107" y="21"/>
      <point x="107" y="36" type="curve" smooth="yes"/>
      <point x="107" y="53"/>
      <point x="106" y="57"/>
      <point x="104" y="67" type="curve" smooth="yes"/>
      <point x="69" y="215"/>
      <point x="44" y="321"/>
      <point x="10" y="469" type="curve" smooth="yes"/>
      <point x="8" y="479"/>
      <point x="35" y="480"/>
      <point x="62" y="480" type="curve" smooth="yes"/>
      <point x="89" y="480"/>
      <point x="113" y="479"/>
      <point x="115" y="466" type="curve" smooth="yes"/>
      <point x="131" y="365"/>
      <point x="143" y="304"/>
      <point x="158" y="210" type="curve"/>
      <point x="158" y="207"/>
      <point x="159" y="200"/>
      <point x="164" y="200" type="curve" smooth="yes"/>
      <point x="170" y="200"/>
      <point x="170" y="207"/>
      <point x="171" y="211" type="curve" smooth="yes"/>
      <point x="189" y="311"/>
      <point x="200" y="368"/>
      <point x="216" y="468" type="curve" smooth="yes"/>
      <point x="218" y="479"/>
      <point x="241" y="480"/>
      <point x="271" y="480" type="curve" smooth="yes"/>
      <point x="294" y="480"/>
      <point x="322" y="477"/>
    </contour>
  </outline>
</glyph>
<glyph name="z" format="1">
  <advance width="296"/>
  <unicode hex="007A"/>
  <outline>
    <contour>
      <point x="281" y="41" type="curve" smooth="yes"/>
      <point x="281" y="17"/>
      <point x="283" y="0"/>
      <point x="266" y="0" type="curve" smooth="yes"/>
      <point x="221" y="0"/>
      <point x="83" y="0"/>
      <point x="38" y="0" type="curve" smooth="yes"/>
      <point x="21" y="0"/>
      <point x="20" y="21"/>
      <point x="20" y="55" type="curve" smooth="yes"/>
      <point x="20" y="85"/>
      <point x="19" y="110"/>
      <point x="22" y="115" type="curve" smooth="yes"/>
      <point x="76" y="211"/>
      <point x="97" y="248"/>
      <point x="157" y="353" type="curve" smooth="yes"/>
      <point x="163" y="364"/>
      <point x="159" y="383"/>
      <point x="150" y="390" type="curve"/>
      <point x="145" y="392"/>
      <point x="136" y="392"/>
      <point x="129" y="392" type="curve" smooth="yes"/>
      <point x="104" y="392"/>
      <point x="70" y="392"/>
      <point x="44" y="392" type="curve" smooth="yes"/>
      <point x="29" y="392"/>
      <point x="28" y="410"/>
      <point x="28" y="431" type="curve" smooth="yes"/>
      <point x="28" y="456"/>
      <point x="29" y="480"/>
      <point x="41" y="480" type="curve" smooth="yes"/>
      <point x="94" y="480"/>
      <point x="204" y="480"/>
      <point x="257" y="480" type="curve" smooth="yes"/>
      <point x="278" y="480"/>
      <point x="278" y="470"/>
      <point x="278" y="433" type="curve" smooth="yes"/>
      <point x="278" y="413"/>
      <point x="278" y="381"/>
      <point x="273" y="372" type="curve" smooth="yes"/>
      <point x="208" y="255"/>
      <point x="173" y="193"/>
      <point x="133" y="120" type="curve" smooth="yes"/>
      <point x="129" y="113"/>
      <point x="133" y="95"/>
      <point x="138" y="92" type="curve" smooth="yes"/>
      <point x="143" y="89"/>
      <point x="157" y="89"/>
      <point x="168" y="89" type="curve" smooth="yes"/>
      <point x="197" y="89"/>
      <point x="237" y="89"/>
      <point x="266" y="89" type="curve" smooth="yes"/>
      <point x="278" y="89"/>
      <point x="281" y="64"/>
    </contour>
  </outline>
</glyph>
<glyph name="braceleft" format="1">
  <advance width="240"/>
  <unicode hex="007B"/>
  <outline>
    <contour>
      <point x="230" y="743" type="curve" smooth="yes"/>
      <point x="230" y="732"/>
      <point x="231" y="698"/>
      <point x="224" y="698" type="curve" smooth="yes"/>
      <point x="186" y="698"/>
      <point x="165" y="669"/>
      <point x="165" y="638" type="curve" smooth="yes"/>
      <point x="165" y="577"/>
      <point x="165" y="518"/>
      <point x="165" y="440" type="curve" smooth="yes"/>
      <point x="165" y="368"/>
      <point x="130" y="356"/>
      <point x="130" y="349" type="curve" smooth="yes"/>
      <point x="130" y="342"/>
      <point x="165" y="329"/>
      <point x="165" y="258" type="curve" smooth="yes"/>
      <point x="165" y="183"/>
      <point x="166" y="154"/>
      <point x="166" y="65" type="curve" smooth="yes"/>
      <point x="166" y="24"/>
      <point x="186" y="4"/>
      <point x="224" y="4" type="curve" smooth="yes"/>
      <point x="230" y="4"/>
      <point x="229" y="-28"/>
      <point x="229" y="-39" type="curve" smooth="yes"/>
      <point x="229" y="-56"/>
      <point x="231" y="-88"/>
      <point x="224" y="-88" type="curve" smooth="yes"/>
      <point x="129" y="-88"/>
      <point x="66" y="-47"/>
      <point x="66" y="60" type="curve" smooth="yes"/>
      <point x="66" y="154"/>
      <point x="66" y="184"/>
      <point x="66" y="253" type="curve" smooth="yes"/>
      <point x="66" y="282"/>
      <point x="39" y="313"/>
      <point x="15" y="313" type="curve" smooth="yes"/>
      <point x="10" y="313"/>
      <point x="10" y="324"/>
      <point x="10" y="348" type="curve" smooth="yes"/>
      <point x="10" y="371"/>
      <point x="10" y="385"/>
      <point x="15" y="385" type="curve" smooth="yes"/>
      <point x="41" y="385"/>
      <point x="66" y="416"/>
      <point x="66" y="445" type="curve" smooth="yes"/>
      <point x="66" y="515"/>
      <point x="66" y="567"/>
      <point x="66" y="641" type="curve" smooth="yes"/>
      <point x="66" y="746"/>
      <point x="129" y="788"/>
      <point x="224" y="788" type="curve" smooth="yes"/>
      <point x="232" y="788"/>
      <point x="230" y="758"/>
    </contour>
  </outline>
</glyph>
<glyph name="bar" format="1">
  <advance width="177"/>
  <unicode hex="007C"/>
  <outline>
    <contour>
      <point x="142" y="-55" type="curve" smooth="yes"/>
      <point x="142" y="-70"/>
      <point x="118" y="-70"/>
      <point x="87" y="-70" type="curve" smooth="yes"/>
      <point x="63" y="-70"/>
      <point x="35" y="-71"/>
      <point x="35" y="-57" type="curve" smooth="yes"/>
      <point x="35" y="249"/>
      <point x="35" y="460"/>
      <point x="35" y="755" type="curve" smooth="yes"/>
      <point x="35" y="768"/>
      <point x="58" y="770"/>
      <point x="85" y="770" type="curve" smooth="yes"/>
      <point x="116" y="770"/>
      <point x="142" y="769"/>
      <point x="142" y="754" type="curve" smooth="yes"/>
      <point x="142" y="461"/>
      <point x="142" y="250"/>
    </contour>
  </outline>
</glyph>
<glyph name="braceright" format="1">
  <advance width="240"/>
  <unicode hex="007D"/>
  <outline>
    <contour>
      <point x="231" y="349" type="curve" smooth="yes"/>
      <point x="231" y="330"/>
      <point x="231" y="313"/>
      <point x="226" y="313" type="curve" smooth="yes"/>
      <point x="202" y="313"/>
      <point x="175" y="282"/>
      <point x="175" y="253" type="curve" smooth="yes"/>
      <point x="175" y="184"/>
      <point x="175" y="154"/>
      <point x="175" y="60" type="curve" smooth="yes"/>
      <point x="175" y="-47"/>
      <point x="112" y="-88"/>
      <point x="16" y="-88" type="curve" smooth="yes"/>
      <point x="10" y="-88"/>
      <point x="11" y="-57"/>
      <point x="11" y="-40" type="curve" smooth="yes"/>
      <point x="11" y="-29"/>
      <point x="10" y="4"/>
      <point x="16" y="4" type="curve" smooth="yes"/>
      <point x="55" y="4"/>
      <point x="75" y="25"/>
      <point x="75" y="65" type="curve" smooth="yes"/>
      <point x="75" y="154"/>
      <point x="75" y="183"/>
      <point x="75" y="258" type="curve" smooth="yes"/>
      <point x="75" y="329"/>
      <point x="110" y="342"/>
      <point x="110" y="349" type="curve" smooth="yes"/>
      <point x="110" y="355"/>
      <point x="75" y="367"/>
      <point x="75" y="440" type="curve" smooth="yes"/>
      <point x="75" y="518"/>
      <point x="75" y="577"/>
      <point x="75" y="638" type="curve" smooth="yes"/>
      <point x="75" y="669"/>
      <point x="55" y="698"/>
      <point x="16" y="698" type="curve" smooth="yes"/>
      <point x="10" y="698"/>
      <point x="10" y="732"/>
      <point x="10" y="744" type="curve" smooth="yes"/>
      <point x="10" y="758"/>
      <point x="8" y="788"/>
      <point x="16" y="788" type="curve" smooth="yes"/>
      <point x="111" y="788"/>
      <point x="175" y="746"/>
      <point x="175" y="641" type="curve" smooth="yes"/>
      <point x="175" y="567"/>
      <point x="175" y="515"/>
      <point x="175" y="445" type="curve" smooth="yes"/>
      <point x="175" y="416"/>
      <point x="200" y="385"/>
      <point x="226" y="385" type="curve" smooth="yes"/>
      <point x="232" y="385"/>
      <point x="231" y="363"/>
    </contour>
  </outline>
</glyph>
<glyph name="asciitilde" format="1">
  <advance width="443"/>
  <unicode hex="007E"/>
  <outline>
    <contour>
      <point x="387" y="377" type="curve"/>
      <point x="395" y="365"/>
      <point x="360" y="330"/>
      <point x="334" y="308" type="curve" smooth="yes"/>
      <point x="306" y="284"/>
      <point x="288" y="279"/>
      <point x="272" y="279" type="curve" smooth="yes"/>
      <point x="253" y="279"/>
      <point x="230" y="283"/>
      <point x="218" y="295" type="curve" smooth="yes"/>
      <point x="199" y="314"/>
      <point x="190" y="344"/>
      <point x="169" y="344" type="curve" smooth="yes"/>
      <point x="147" y="344"/>
      <point x="138" y="319"/>
      <point x="105" y="287" type="curve" smooth="yes"/>
      <point x="93" y="276"/>
      <point x="86" y="284"/>
      <point x="78" y="293" type="curve" smooth="yes"/>
      <point x="69" y="303"/>
      <point x="66" y="304"/>
      <point x="60" y="317" type="curve"/>
      <point x="52" y="329"/>
      <point x="85" y="362"/>
      <point x="110" y="386" type="curve" smooth="yes"/>
      <point x="131" y="406"/>
      <point x="154" y="418"/>
      <point x="170" y="418" type="curve" smooth="yes"/>
      <point x="186" y="418"/>
      <point x="206" y="420"/>
      <point x="224" y="403" type="curve" smooth="yes"/>
      <point x="245" y="384"/>
      <point x="254" y="350"/>
      <point x="274" y="350" type="curve" smooth="yes"/>
      <point x="290" y="350"/>
      <point x="311" y="380"/>
      <point x="337" y="407" type="curve" smooth="yes"/>
      <point x="346" y="417"/>
      <point x="353" y="413"/>
      <point x="362" y="405" type="curve" smooth="yes"/>
      <point x="371" y="397"/>
      <point x="380" y="390"/>
    </contour>
  </outline>
</glyph>
